<svg xmlns="http://www.w3.org/2000/svg" viewBox="0 0 967.57 839.64"><defs><style>.cls-1{fill:#80a895;}.cls-2{fill:#d6d6d6;}.cls-3{fill:#dddf6f;}.cls-4{fill:#393944;}.cls-5{fill:none;stroke:#dddf6f;stroke-miterlimit:10;stroke-width:1.64px;}</style></defs><title>Fichier 1</title><g id="Calque_2" data-name="Calque 2"><g id="ae7ad495-543d-4c4b-9483-8059c5566fe6"><g id="Fleur"><path class="cls-1" d="M139.87,346.5c2.57-3.56,1.32-8.17-1.69-11.27s-7.46-5-11.81-6.81c-1.54-.63-3.07-1.26-4.62-1.88-4.93-2-10.85-2.8-16-.3-3.76,1.81-6.66,4.59-9.47,7.32a15,15,0,0,0-3.44,4.22,8.39,8.39,0,0,0-.43,5.18c1.17,6.07,6.53,11.37,13.67,13.24,3.9,1,8.12,1.05,12.24,1.31,3.38.22,6.8.6,10.17.06s6.78-2.23,8-4.88c.47-1,.57-2.16,1.1-3.18A29.29,29.29,0,0,1,139.87,346.5Z"/><path class="cls-1" d="M129.31,263.05c-1.42-1.61-4.28-2.24-6.68-2a19.08,19.08,0,0,0-6.44,2.18l-2.08,1c-2.21,1.11-4,2.79-3.75,5a12,12,0,0,0,2,4.6,7,7,0,0,0,1.59,2,7.67,7.67,0,0,0,2.8,1.29c3.65,1,7.81.49,10.45-1.33a19,19,0,0,0,3.46-3.55,11.58,11.58,0,0,0,2.31-3.18,3.08,3.08,0,0,0-.95-3.59c-.48-.38-1.08-.66-1.53-1.05A13.66,13.66,0,0,1,129.31,263.05Z"/><path class="cls-1" d="M13.81,352.53c-3.66-2.37-10.07-1-12.58,2a4.77,4.77,0,0,0-.47,5.76,7.8,7.8,0,0,0,6.44,3.06A10.22,10.22,0,0,0,14.57,360a5.53,5.53,0,0,0,1.69-3.63A4.86,4.86,0,0,0,13.81,352.53Z"/><path class="cls-1" d="M156.24,381.7c-1.42-1.6-4.28-2.24-6.68-2a18.88,18.88,0,0,0-6.44,2.19l-2.08,1c-2.21,1.1-4,2.78-3.75,5a12,12,0,0,0,2,4.6,6.85,6.85,0,0,0,1.58,2,7.47,7.47,0,0,0,2.81,1.29c3.65,1,7.81.49,10.45-1.33a19,19,0,0,0,3.46-3.54,11.73,11.73,0,0,0,2.3-3.19,3.08,3.08,0,0,0-.94-3.59c-.48-.37-1.08-.66-1.53-1A12.66,12.66,0,0,1,156.24,381.7Z"/><path class="cls-1" d="M25,295.67a1.71,1.71,0,0,0-.38,2.17,5.53,5.53,0,0,0,1.8,1.69l.75.51a3.68,3.68,0,0,0,3,.61,8.3,8.3,0,0,0,2.23-1,3.64,3.64,0,0,0,.91-.67,1.76,1.76,0,0,0,.39-.95,2.92,2.92,0,0,0-1.74-3,12.07,12.07,0,0,0-2.21-.67A8.07,8.07,0,0,0,27.8,294a2.3,2.3,0,0,0-1.79.64c-.16.18-.24.38-.41.56A7.8,7.8,0,0,1,25,295.67Z"/><path class="cls-1" d="M67.28,340.77a1.71,1.71,0,0,0-.38,2.17,5.53,5.53,0,0,0,1.8,1.69l.75.51a3.69,3.69,0,0,0,3,.61,8.68,8.68,0,0,0,2.22-1,3.9,3.9,0,0,0,.91-.67,1.92,1.92,0,0,0,.4-1,2.92,2.92,0,0,0-1.75-2.95,11.34,11.34,0,0,0-2.21-.67,8.61,8.61,0,0,0-1.91-.37,2.38,2.38,0,0,0-1.79.64c-.16.18-.24.39-.41.56A6,6,0,0,1,67.28,340.77Z"/><path class="cls-2" d="M827.7,170.72c-2.57-3.56-1.32-8.17,1.69-11.27s7.46-5,11.81-6.81q2.29-.94,4.62-1.88c4.93-2,10.85-2.8,16-.3,3.76,1.81,6.66,4.59,9.47,7.32a15.43,15.43,0,0,1,3.44,4.21,8.42,8.42,0,0,1,.42,5.19c-1.17,6.07-6.53,11.37-13.66,13.24-3.9,1-8.12,1-12.24,1.31-3.38.22-6.8.6-10.17.06s-6.78-2.24-8-4.88c-.47-1-.57-2.16-1.11-3.18A27.84,27.84,0,0,0,827.7,170.72Z"/><path class="cls-2" d="M838.26,87.26c1.42-1.6,4.28-2.24,6.68-2a19.08,19.08,0,0,1,6.44,2.18l2.08,1c2.21,1.11,4,2.78,3.75,5a11.94,11.94,0,0,1-2,4.61,7,7,0,0,1-1.59,2,7.67,7.67,0,0,1-2.8,1.29c-3.65,1-7.81.49-10.45-1.33a19,19,0,0,1-3.46-3.55,11.58,11.58,0,0,1-2.31-3.18,3.08,3.08,0,0,1,1-3.59c.48-.38,1.08-.66,1.53-1.06A12.66,12.66,0,0,0,838.26,87.26Z"/><path class="cls-2" d="M953.75,176.75c3.67-2.37,10.07-1,12.59,2a4.77,4.77,0,0,1,.47,5.76,7.84,7.84,0,0,1-6.44,3.06,10.22,10.22,0,0,1-7.37-3.36,5.55,5.55,0,0,1-1.69-3.63A4.87,4.87,0,0,1,953.75,176.75Z"/><path class="cls-2" d="M811.33,205.92c1.42-1.61,4.28-2.24,6.68-2a19.08,19.08,0,0,1,6.44,2.18l2.08,1c2.21,1.11,4,2.79,3.75,5a12,12,0,0,1-2,4.6,7,7,0,0,1-1.59,2,7.67,7.67,0,0,1-2.8,1.29c-3.65,1-7.81.49-10.45-1.33a19,19,0,0,1-3.46-3.55,11.58,11.58,0,0,1-2.31-3.18,3.08,3.08,0,0,1,.95-3.59c.48-.38,1.08-.66,1.53-1.05A12.66,12.66,0,0,0,811.33,205.92Z"/><path class="cls-2" d="M942.59,119.89a1.69,1.69,0,0,1,.37,2.17,5.37,5.37,0,0,1-1.79,1.68l-.75.52a3.69,3.69,0,0,1-3,.61,8.38,8.38,0,0,1-2.22-1.05,3.64,3.64,0,0,1-.91-.67,1.85,1.85,0,0,1-.4-1,2.94,2.94,0,0,1,1.75-3,11.34,11.34,0,0,1,2.21-.67,8.07,8.07,0,0,1,1.91-.36,2.3,2.3,0,0,1,1.79.64c.15.17.24.38.41.55A6.08,6.08,0,0,0,942.59,119.89Z"/><path class="cls-2" d="M900.29,165a1.7,1.7,0,0,1,.37,2.17,5.4,5.4,0,0,1-1.79,1.69l-.75.51a3.69,3.69,0,0,1-3,.61,8.68,8.68,0,0,1-2.22-1,3.9,3.9,0,0,1-.91-.67,1.92,1.92,0,0,1-.4-1,3,3,0,0,1,1.75-3,12.9,12.9,0,0,1,2.21-.67,9.22,9.22,0,0,1,1.91-.36,2.38,2.38,0,0,1,1.79.64c.15.18.24.38.41.56A5.09,5.09,0,0,0,900.29,165Z"/><path class="cls-2" d="M561.07,334.9c-1.48,1.4-1.25,2.82-1.08,4.26.5,4.35.92,8.71,1.44,13,.59,4.93,1.21,9.84,1.89,14.76s9.08,56.21,9.85,61.23c.84,5.48,1.75,11,2.62,16.43,1.1,7,2.29,13.92,3.26,20.89a75.8,75.8,0,0,1,.53,15,29.51,29.51,0,0,1-.35,3.09,3.48,3.48,0,0,1-1.07,2.06,1.25,1.25,0,0,1-2-.08,6,6,0,0,1-.76-1.79c-.44-1.87-.9-3.74-1.17-5.62-1.26-8.86-3-17.67-4.6-26.49q-2-10.92-3.76-21.88c-1.07-6.61-9.74-59.39-10.65-66-.8-5.89-1.49-11.78-2.11-17.68q-1-9.19-1.69-18.4c-.38-5-.58-10-.83-15-.12-2.3-.22-4.6-.23-6.89,0-1.27-.62-2.11-2.07-2.84a99.42,99.42,0,0,1-16.09-10.53A205.41,205.41,0,0,1,515.87,278a310.86,310.86,0,0,1-32.67-37.1c-7.05-9.3-14-18.64-20.1-28.3a185.94,185.94,0,0,1-19.66-40.42,94.3,94.3,0,0,1-3.92-15,45.16,45.16,0,0,1-.6-11,10.71,10.71,0,0,1,1.08-4.21,6.7,6.7,0,0,1,1.46-1.93,4.62,4.62,0,0,1,4.37-.85,8.57,8.57,0,0,1,3.09,1.45,33.86,33.86,0,0,1,3.09,2.56,51.24,51.24,0,0,1,5.52,6.35c4.1,5.39,7.66,11,11.16,16.62,6.29,10.1,12.46,20.25,18.73,30.36,6.39,10.31,13,20.55,19.25,30.92,7.11,11.84,13.85,23.8,20.83,35.69q7.63,13,15.5,26c1.71,2.82,3.81,5.5,5.76,8.24a9.68,9.68,0,0,0,.87.94c.69-.2.56-.59.57-.91,0-2,0-4,.09-6,.34-7.29.62-14.59,1.12-21.88q.66-9.74,2.13-19.42c.62-4.11,1.32-8.21,2-12.32a3.73,3.73,0,0,0-.15-2.21c-3.1-7-6-14-9.26-20.93-2.43-5.21-5.25-10.31-7.91-15.45-5.43-10.51-10.13-21.21-14.56-32s-8.64-21.81-13-32.7c-4.57-11.45-8.86-23-12.54-34.59A118.46,118.46,0,0,1,493.8,82a45.42,45.42,0,0,1,.26-16.84,30.16,30.16,0,0,1,1.57-4.67,6.8,6.8,0,0,1,2.21-2.8,7.26,7.26,0,0,1,6.72-1.18,12,12,0,0,1,4.36,2.18,44.48,44.48,0,0,1,4,3.55,55.88,55.88,0,0,1,6.25,7.83A108.37,108.37,0,0,1,530.65,92.2,217.54,217.54,0,0,1,541.45,129c1.55,7.79,3,15.58,4.75,23.34,1.87,8.44,3.93,16.86,6,25.28s3.88,16.63,5.09,25c.65,4.46,1.41,8.9,2.14,13.35a6,6,0,0,0,.5,1.08c.26-.57.41-.81.48-1A270.31,270.31,0,0,1,571.13,184q1.38-3.37,2.83-6.74a2.48,2.48,0,0,0,.2-2,73.5,73.5,0,0,1-3.66-13.15,260.22,260.22,0,0,0-7-25.31c-2.88-8.87-5.48-17.8-7.47-26.81A163.57,163.57,0,0,1,553,91.13,174.9,174.9,0,0,1,553.05,55a120.39,120.39,0,0,1,2.28-13.5c1.41-6.35,3.17-12.65,5.18-18.9a57.67,57.67,0,0,1,6.2-13.87c.87-1.34,1.82-2.65,2.82-3.94a13.88,13.88,0,0,1,1.89-1.95,9.27,9.27,0,0,1,2.08-1.34c2.21-1,4.41-.65,5.69,1a8.7,8.7,0,0,1,1.33,2.56,27.51,27.51,0,0,1,1.08,4.22c.79,5,1.57,9.93,2.21,14.9.59,4.69,1.09,9.39,1.45,14.09.39,5.05.58,10.1.82,15.16.21,4.53.37,9.07.55,13.61.08,2.13.17,4.25.21,6.38.11,5.63.2,11.26.3,16.89.21,11.38.15,22.76-.36,34.14-.3,6.84-1.08,13.65-2,20.46-.41,2.91-1,5.81-1.52,8.71a14.86,14.86,0,0,0-.3,3.09c.33-.12.52-.13.57-.21a8.91,8.91,0,0,0,.57-.93c2.24-4.22,4.41-8.46,6.71-12.66a335.27,335.27,0,0,1,20.61-32.53q11-15.45,23.12-30.39a280.82,280.82,0,0,1,39.74-39.44c7.18-5.91,14.54-11.68,22.45-17.06A184.14,184.14,0,0,1,724.45,7.89,150.17,150.17,0,0,1,739.56,2,44.16,44.16,0,0,1,747,.23a21.47,21.47,0,0,1,4.81-.16c3.6.31,5.45,2.43,5,5A7.23,7.23,0,0,1,756,7.4,35.74,35.74,0,0,1,753.72,11a125.66,125.66,0,0,1-16,17.86,488.08,488.08,0,0,1-49.62,40.48c-9.14,6.57-18.39,13-27.61,19.54a510.86,510.86,0,0,0-42.07,32.58c-.6.52-1.2,1-1.84,1.54-6.82,5.34-12.32,11.43-17.63,17.63a6.26,6.26,0,0,0-.68.9c-1.55,2.82-3.08,5.63-4.61,8.46,0,.08,0,.21,0,.37.72,0,1-.5,1.34-.8,3.83-3.07,7.55-6.21,11.47-9.2a81.2,81.2,0,0,1,19.85-11.08c2.93-1.14,5.87-2.27,8.92-3.21q11.7-3.61,23.49-7c26.38-7.67,53-14.77,79.66-22a223.68,223.68,0,0,1,24-5.25,131.25,131.25,0,0,1,20.33-1.6,59.62,59.62,0,0,1,6.4.42,16.31,16.31,0,0,1,3.49.84c3.21,1.14,4.62,3.36,3.9,6a11.85,11.85,0,0,1-3.93,6,43.94,43.94,0,0,1-4.61,3.36,65.09,65.09,0,0,1-11.13,5.49c-9.06,3.54-18.46,6.48-28,9.17a270.44,270.44,0,0,1-28,6.3c-14.12,2.42-28.19,5-42.28,7.54-7.6,1.36-15.23,2.65-22.76,4.22-10.79,2.25-21.3,5.14-31.8,8.06a247.74,247.74,0,0,0-26.57,9.05c-1.61.65-3.34,1.15-5,1.72-.49.17-1,.31-1.48.48a5.3,5.3,0,0,0-3.31,2.71c-2.2,4.9-4.54,9.76-6.69,14.67a253.12,253.12,0,0,0-9.3,24.71,3.2,3.2,0,0,0-.24,1.88c.43-.35.68-.53.91-.73a97.92,97.92,0,0,1,32.66-19.53c7-2.53,14.11-4.8,21.29-7q13.74-4.18,27.58-8.21a282.66,282.66,0,0,0,28.54-10q15.81-6.54,31.62-13.08c8.08-3.32,16.34-6.35,24.89-8.94a91.37,91.37,0,0,1,17-3.68,74.28,74.28,0,0,1,16.73-.12,20.59,20.59,0,0,1,5,1.21c3.86,1.53,5.56,4.28,4.72,7.51a10.47,10.47,0,0,1-2.42,4.43,50.9,50.9,0,0,1-4.3,4.26,75.73,75.73,0,0,1-17.25,10.79,205,205,0,0,1-30.27,11.22c-8.23,2.39-16.69,4.24-25.1,6.22-12.73,3-25.65,5.49-38.47,8.24-10.17,2.18-20.32,4.42-30.52,6.53-5.24,1.09-10.57,1.92-15.85,2.92a319.4,319.4,0,0,0-36.49,8.87c-.85.27-1.7.54-2.53.83l-8.1,2.88c-.92.33-1.88.64-1.57,1.63a16.51,16.51,0,0,0-1.61,5c-1.33,5.42-2.69,10.85-3.82,16.3s-2.05,10.69-2.88,16c-1,6.68-1.76,13.39-2.25,20.1a4.37,4.37,0,0,0,.14.85,4.05,4.05,0,0,0,.76-.52,59.68,59.68,0,0,1,7-6.38c12.23-10,26.71-17.91,42.38-24.63q11.49-4.94,23.53-9.05c13.83-4.72,27.38-9.84,40.74-15.26,11.06-4.49,22.37-8.62,34-12.21a169.24,169.24,0,0,1,21.4-5.25,62.17,62.17,0,0,1,7.73-.86,19.82,19.82,0,0,1,6.31.73,14.37,14.37,0,0,1,2.82,1.15c2.13,1.15,3.19,2.74,3.17,4.73a9,9,0,0,1-.89,3.71,25.37,25.37,0,0,1-5.1,7.11,44.36,44.36,0,0,1-6.27,5.27,115,115,0,0,1-18.58,10.69c-5.76,2.65-11.67,5.08-17.65,7.43-8.36,3.29-16.85,6.36-25.42,9.32A246.59,246.59,0,0,1,648.2,251c-14.05,3.11-28.15,6.06-42.39,8.63-6.63,1.2-13.26,2.4-19.83,3.79a96.86,96.86,0,0,0-17.18,5.3c-2,.83-4.16,1.47-6.24,2.2a12.69,12.69,0,0,0-1.81.74c-2.27,1.22-2.29,1.3-2.43,3.4-.54,8-.68,16.09-.63,24.13.06,7.71.36,15.4.95,23.09.14,1.84.23,3.68.35,5.51a3.2,3.2,0,0,0,.31,1.63.8.8,0,0,0,1-.3,218.79,218.79,0,0,1,30.81-24.15c7.46-5,14.81-10,22.12-15.1,7.64-5.33,15.5-10.46,23.76-15.25,8.85-5.14,17.56-10.42,26.74-15.23A199.56,199.56,0,0,1,698.29,245,121.92,121.92,0,0,1,715.61,241a28.52,28.52,0,0,1,5.7-.41c.46,0,.93,0,1.38.08,4.11.38,6.41,2.6,5.78,5.68a14.54,14.54,0,0,1-1.12,3.16,17,17,0,0,1-3.5,4.83,59.63,59.63,0,0,1-4.54,4.11,94.65,94.65,0,0,1-18.26,11.53c-18.87,9-37.66,18.17-56.91,26.76Q619,308,594.24,319.81c-6.78,3.26-13.55,6.53-20.37,9.74-3,1.43-6.21,2.75-9.34,4.08C563.33,334.14,562.06,334.54,561.07,334.9Zm67.06-190.85-.23.24.19-.27a1.29,1.29,0,0,0,1.18-.17,4.62,4.62,0,0,0,2.33-.61c.81-.17,1.63-.31,2.42-.52,8.14-2.21,16.35-4.25,24.75-5.85q8.13-1.56,16.3-3,11.63-2.07,23.1-4.58c8.91-1.95,18-3.33,27-4.94a242.33,242.33,0,0,0,50.25-14.53,69.73,69.73,0,0,0,9.42-4.61c1.79-1.08,3.49-2.25,5.13-3.45a8.82,8.82,0,0,0,2.84-3.31,11.25,11.25,0,0,0,.71-2,2.06,2.06,0,0,0-.49-1.82c-.28-.34-.6-.68-1-.65l-7,3c-1.54.65-3.1,1.27-4.63,1.92q-5.1,2.17-10.49,3.92c-7.39,2.4-15,4.4-22.65,6.22-8,1.91-16,3.9-23.8,6.38q-21.35,6.83-42.68,13.71c-9.28,3-18.57,6-28.23,8.29-3.87.92-7.71,1.93-11.54,2.93-2.68.71-5.32,1.47-8,2.23-.53.15-1.24.18-1.41.73a2.56,2.56,0,0,0-2.33.61Zm-2.51.55c0,.05,0,.11-.07.17l-.09-.09.15-.06a.52.52,0,0,1,.17,0,.35.35,0,0,1,.14.06ZM587,319.71c.88.11,1.4-.4,2-.7,9.5-4.54,18.94-9.15,28.49-13.62q14.84-6.93,29.85-13.64c14.66-6.59,29-13.54,43.46-20.4,2.85-1.35,5.72-2.68,8.53-4.07A81.49,81.49,0,0,0,718,254.82a23.78,23.78,0,0,0,4.38-5,8,8,0,0,0,.46-1.1,8.5,8.5,0,0,0-1.06.24c-3.15,1.31-6.31,2.6-9.42,4-2.52,1.09-5,2.28-7.48,3.38-9.92,4.37-19.48,9.16-29.21,13.75-1.42.68-2.8,1.41-4.19,2.13-14.73,7.67-29,15.82-43.35,23.89-10.66,6-21.23,12.11-31.85,18.16-2.68,1.53-5.4,3-8.09,4.56-.46.27-1.1.45-1.15,1-.9.25-.9.25-1.25.78C586.36,320.35,586.93,320.22,587,319.71Zm28.75-206c.91.07,1.07-.55,1.44-.93,4.07-4.11,8.15-8.21,12.15-12.35,2.88-3,5.73-6,8.47-9,2.54-2.81,4.95-5.68,7.38-8.54A203.64,203.64,0,0,1,668.59,59.6a185.18,185.18,0,0,1,28.15-20c4.22-2.4,8.53-4.7,12.72-7.12,6.87-4,13.77-7.89,20.5-12A86.19,86.19,0,0,0,747.44,6.82c.9-.93,1.94-1.78,2.89-2.68a3.17,3.17,0,0,0,.41-.62,4.48,4.48,0,0,0-2.53-.3,36.73,36.73,0,0,0-7.52,1.52,126.34,126.34,0,0,0-14.19,5.31,165.47,165.47,0,0,0-30.38,17.51C688.86,32.78,682,38.31,675.42,44a253.61,253.61,0,0,0-32.18,32.5c-9.5,11.68-18.21,23.69-26.65,35.82a10.2,10.2,0,0,0-.74,1.43,1.83,1.83,0,0,0-.26.21s0,.09,0,.13.26-.06.27-.11S615.83,113.78,615.79,113.69ZM583.5,254.77l.33.27c.47-.18.95-.34,1.41-.54A119.29,119.29,0,0,1,610,247.14c8.1-1.52,16.23-3,24.34-4.48,10.57-2,21-4.15,31.25-7a226.4,226.4,0,0,0,33.15-11.87c6.67-3.06,13.37-6.08,20-9.19,7.22-3.38,14.38-6.83,21.57-10.24a10.7,10.7,0,0,1,2-.84,2.59,2.59,0,0,0,2.1-2.06,9.35,9.35,0,0,0,.27-1.36c.15-1.3-.6-2.24-2.18-2.76a9.34,9.34,0,0,0-2.41-.52,40.61,40.61,0,0,0-4.81,0,38.76,38.76,0,0,0-4.28.64,158.42,158.42,0,0,0-21.47,5.62c-10.61,3.48-20.88,7.48-31,11.65-5.86,2.4-11.66,4.86-17.53,7.24-8.29,3.37-16.9,6.28-25.45,9.26a315.91,315.91,0,0,0-38.37,16c-4.06,2.06-8,4.3-11.92,6.47C584.59,254,584.06,254.41,583.5,254.77Zm21.28-124.41.36.23c.51-.48,1-1,1.55-1.45,2.09-1.91,4.15-3.84,6.28-5.73,2.62-2.32,5.29-4.62,8-6.92,3.08-2.63,6.12-5.3,9.31-7.86q11.63-9.33,23.86-18.21,12.52-9,25.11-18c10.31-7.39,20.25-15.06,29.95-22.9a260.8,260.8,0,0,0,26.4-24.1,116.48,116.48,0,0,0,11.32-13.79,3.25,3.25,0,0,0,.87-1.62,2.93,2.93,0,0,0-1.4,1c-2.11,1.75-4.15,3.55-6.33,5.24a136.06,136.06,0,0,1-13.62,9c-8.33,5-17,9.62-25.68,14.28a152.35,152.35,0,0,0-23.38,15.27,154.81,154.81,0,0,0-19.48,18.53c-3,3.41-5.84,6.89-8.68,10.37a220.94,220.94,0,0,1-20.07,21.64c-6.22,5.84-12.44,11.68-17.92,17.93-1.69,1.92-3.47,3.8-5.19,5.7C605.57,129.4,605.19,129.88,604.78,130.36Zm-31-125.85a3.75,3.75,0,0,0-1.93,1.66,40.4,40.4,0,0,0-5.66,10,154.47,154.47,0,0,0-5.63,18.11,118.38,118.38,0,0,0-3.7,23.61c-.2,3.84-.22,7.7-.28,11.55a152.11,152.11,0,0,0,1,18.59,166.63,166.63,0,0,0,3.13,18.46,275.59,275.59,0,0,0,7.83,27.64,154.63,154.63,0,0,1,7.22,30c.19,1.54.45,3.08.7,4.62a1,1,0,0,0,.72,1A7.22,7.22,0,0,0,578.5,166a16,16,0,0,1,.26-2.93,16.32,16.32,0,0,0-.07-5.49c-.67-4.92-1.38-9.83-2-14.75a152.56,152.56,0,0,1-1.38-19.44c0-2.59,0-5.17-.14-7.76-.17-4.13-.36-8.27-.65-12.4-.25-3.61-.59-7.23-1-10.83-.55-4.64-1.23-9.26-1.83-13.89-.72-5.55-1.39-11.1-2.14-16.65a165.41,165.41,0,0,1-1.82-20.46,105.41,105.41,0,0,1,.95-17.56c.37-2.39.84-4.78,1.34-7.16a50.49,50.49,0,0,1,3.47-11.24C573.6,5.23,573.66,5,573.82,4.51Zm15.33,194.2.27.28c.86-.21,1.73-.41,2.59-.63,7.73-2.06,15.6-3.79,23.53-5.34,4.59-.9,9.29-1.51,13.87-2.43q15.76-3.17,31.47-6.5c17.18-3.63,34.35-7.3,51.34-11.42a225.3,225.3,0,0,0,36-11.66,119.1,119.1,0,0,0,17.19-8.91,53.17,53.17,0,0,0,9.88-7.91,11.3,11.3,0,0,0,2.64-3.8,6,6,0,0,0,.34-2.2,1.93,1.93,0,0,0-1.49-1.84c-2.25,1-4.52,1.94-6.71,3-9,4.29-18.27,8.21-27.62,12C731.1,156,719.73,160.69,708.12,165a284.06,284.06,0,0,1-56.51,14.71c-3.75.57-7.51,1.14-11.25,1.77a120.6,120.6,0,0,0-24,6.86c-5.92,2.31-11.9,4.52-17.85,6.76-2.47.93-4.95,1.84-7.41,2.77C590.45,198.13,589.8,198.43,589.15,198.71ZM603.62,149l.21.25c.52-.2,1.07-.38,1.57-.6,3.77-1.67,7.7-3.1,11.69-4.44a383.25,383.25,0,0,1,41-11.26,177.42,177.42,0,0,0,20-5.58c4.32-1.49,8.69-2.89,13-4.33,6.87-2.27,13.76-4.51,20.61-6.82q8.07-2.73,16.41-5c7.37-2,14.9-3.54,22.42-5.11a186.72,186.72,0,0,0,38.16-12.21c.31-.14.57-.33,1-.59a6.2,6.2,0,0,0-1.18-.41c-.83-.09-1.68-.14-2.52-.18a91.1,91.1,0,0,0-16,.83,149.73,149.73,0,0,0-22.73,4.87c-9.71,2.84-19.38,5.76-29.1,8.57q-31.2,9.06-62.43,18c-7.3,2.1-14.58,4.23-21.66,6.73a88.21,88.21,0,0,0-19.44,9.42c-3.56,2.36-7,4.84-10.46,7.27A4.69,4.69,0,0,0,603.62,149ZM534,282.15l.38-.22c-.36-.63-.69-1.26-1.08-1.88-3.72-5.86-7-11.87-10.39-17.84-6.08-10.73-12-21.52-18.36-32.16-10.67-17.87-21.63-35.65-32.47-53.47-4.52-7.42-9.16-14.79-14.19-22A74.32,74.32,0,0,0,451,145.8c-1-1.08-2.15-2.09-3.26-3.12a7.09,7.09,0,0,0-1.09-.64,4.23,4.23,0,0,0,.1.88c.88,2.2,1.69,4.42,2.7,6.59,2.17,4.66,4.24,9.36,6.72,13.93,4.64,8.57,9.5,17.07,14.34,25.57,2.13,3.75,4.38,7.46,6.2,11.31a218.53,218.53,0,0,1,9.42,24,36.36,36.36,0,0,0,4.82,9.47,107.41,107.41,0,0,0,12.26,14.56c2.23,2.19,4.48,4.38,6.56,6.65,7.66,8.39,15.66,16.62,22.61,25.36C532.89,281,533.47,281.54,534,282.15ZM775.33,135.52a15.93,15.93,0,0,0-5.31-1,67.86,67.86,0,0,0-12.83.53,88.2,88.2,0,0,0-13.41,3,208.53,208.53,0,0,0-20.14,7.17q-17.45,7.19-34.84,14.43a340.37,340.37,0,0,1-32.51,11.74q-16.63,5-33.23,10.16-7.86,2.43-15.58,5.13a102.63,102.63,0,0,0-16.28,7.44c-.38.21-1,.35-.91,1,.82-.24,1.52-.44,2.2-.66,8.13-2.69,16.25-5.42,24.2-8.4a142.37,142.37,0,0,1,28.44-7.25c5.18-.8,10.36-1.61,15.49-2.56A275.86,275.86,0,0,0,704.77,164c14.91-5.42,29.45-11.36,44-17.34,8.6-3.54,17.13-7.17,25.7-10.76ZM557.14,227.66a3.09,3.09,0,0,0,.44-3.41c-.69-1.76-1.29-3.54-2-5.31-1.12-3-2.11-6-3.41-8.94-2.56-5.78-4.69-11.65-6.65-17.56-2.59-7.8-4.94-15.64-7.2-23.5-1.77-6.18-3.5-12.36-5.55-18.48-5.49-16.33-12.12-32.41-19.23-48.37A173.31,173.31,0,0,1,505,79.57a73.24,73.24,0,0,1-3.13-20.16,2.07,2.07,0,0,0-.17-.58,1.45,1.45,0,0,0-1.45.51,6.13,6.13,0,0,0-1.69,2.81,36.06,36.06,0,0,0-1.35,13.36,68.66,68.66,0,0,0,2.6,14.32,220.19,220.19,0,0,0,7.69,23.24q10.1,25.69,20.54,51.32a329.2,329.2,0,0,0,16.4,34.94,170.53,170.53,0,0,1,12,26.76C556.62,226.52,556.83,227,557.14,227.66ZM554.26,209l.43-.06a11.54,11.54,0,0,0-.1-1.17c-.15-.85-.37-1.7-.53-2.55-1.91-10.48-4.29-20.89-6.69-31.3-2-8.78-3.66-17.59-5.29-26.41-1.32-7.11-2.56-14.23-4-21.32a191.43,191.43,0,0,0-13.34-40.07,95,95,0,0,0-11.29-18.84,35.92,35.92,0,0,0-5.2-5.68,37,37,0,0,0-3.14-2.26.85.85,0,0,0-1.08,0,4.82,4.82,0,0,0,.05.61,94.84,94.84,0,0,0,3.85,14.52A189.57,189.57,0,0,0,517,95.74a187.11,187.11,0,0,1,11.38,28.54c4.2,14.25,8.26,28.51,11.69,42.88,1.76,7.4,3.78,14.77,6.23,22.07a148.72,148.72,0,0,0,7.34,18.49C553.81,208.13,554,208.55,554.26,209ZM442.38,147.71l-.32.06a5.81,5.81,0,0,0-.05,1c.35,2.74.59,5.5,1.09,8.22a94.94,94.94,0,0,0,4.34,15,188.76,188.76,0,0,0,23.24,44c6.45,9.21,13.34,18.23,20.32,27.22a296.55,296.55,0,0,0,32.9,35.93c2.51,2.32,5.14,4.57,7.73,6.83.22.19.39.51,1,.39-.15-.21-.27-.41-.42-.59-2.62-3.24-5.32-6.45-7.88-9.72-7.36-9.43-15.09-18.68-23.54-27.58a120.7,120.7,0,0,1-12.12-15.24,36.26,36.26,0,0,1-4.35-8.69c-1.25-3.61-2.64-7.2-4-10.79a108.72,108.72,0,0,0-15.45-27.94c-4.23-5.53-8.25-11.16-12.36-16.74a61,61,0,0,1-9.62-20C442.73,148.57,442.54,148.14,442.38,147.71ZM577.38,5l-.51,0c-.41,2.15-.88,4.3-1.21,6.46-.41,2.68-.7,5.37-1,8.06a97.77,97.77,0,0,0-.79,14.8c.09,4.19.28,8.39.56,12.57.25,3.67.69,7.34,1.06,11,.56,5.5,1.21,11,1.67,16.49.49,5.91.77,11.82,1.2,17.73s.5,12,.41,18.09c-.12,9.18-.82,18.37,0,27.56.3,3.38.65,6.76,1,10.14,0,.19,0,.49.63.41a7.25,7.25,0,0,0,.29-1.09c.3-2.69.65-5.38.85-8.08q.69-9.37,1.26-18.76c.65-10.62,1.19-21.24,1.34-31.87.08-5.81.25-11.61.18-17.41-.08-7.07-.41-14.13-.57-21.19a159.84,159.84,0,0,0-1.29-16.34c-.76-6.17-1.68-12.34-2.65-18.49-.46-2.91-1.18-5.79-1.82-8.68A10.57,10.57,0,0,0,577.38,5Zm3.89,313.47.31.26c.37-.2.74-.38,1.09-.59,8-4.92,16.36-9.52,24.66-14.16C617,298.5,626.7,293,636.51,287.7c9.32-5.06,18.76-10,28.21-14.91,10.26-5.35,21-10.11,31.74-14.94,8.61-3.88,17.34-7.6,26.35-10.93,1-.35,1.22-.74,1.06-1.52-.11-.57-.62-.92-1.62-1a10.27,10.27,0,0,0-1.84,0c-1.43.18-2.87.35-4.28.62a143.56,143.56,0,0,0-20.29,5.51,176,176,0,0,0-28.34,12.78c-7.81,4.36-15.45,8.89-23.17,13.34-9.91,5.72-19.38,11.83-28.51,18.24-5.48,3.85-11.15,7.55-16.74,11.32l-15.53,10.52C582.76,317.28,582,317.86,581.27,318.42Zm160.6-113c-.68.28-1.09.42-1.45.6-4.84,2.43-9.72,4.82-14.5,7.31q-13.89,7.23-28.3,13.86a161.25,161.25,0,0,1-15.76,6.41c-9,3.07-18.17,5.85-27.56,8.18-11.29,2.79-22.8,5-34.38,7-6,1.05-12.1,2.09-18,3.66a110.85,110.85,0,0,0-23.71,9,4.6,4.6,0,0,0-1.78,1.17,4.62,4.62,0,0,0,1.83-.31c2.77-.66,5.52-1.4,8.33-1.95,5.56-1.09,11.15-2.1,16.73-3.11,14.16-2.57,28.18-5.5,42.15-8.56a261.85,261.85,0,0,0,25.75-6.9c9.2-3,18.33-6.14,27.22-9.65,5.43-2.13,10.83-4.33,16.13-6.63a92.6,92.6,0,0,0,16.53-9.29,46.82,46.82,0,0,0,9.6-8.77A4,4,0,0,0,741.87,205.42Z"/><path class="cls-1" d="M496.09,416c2.52,10.85,5.85,21.49,10.08,34.12A273.24,273.24,0,0,0,526,496.27a177.29,177.29,0,0,0,11.51,18.83,87.75,87.75,0,0,0,12.88,14.67,2.3,2.3,0,0,1,.89,2.84c-.91,2.48-1.71,5-2.45,7.3l-1.17,3.65c-1.28,4-2.61,8.16-3.8,12.27-1.81,6.25-3.58,12.68-5.4,19.68s-3.35,13.22-4.67,19-9.15,44.69-12.9,63.34l-1.65,8.25c-1.74,8.55-3.24,16.33-4.58,23.78l-.92,5.1c-1.39,7.77-2.83,15.81-4.58,23.67-.41,1.85-.65,3.73-.89,5.56l-.08.63a6.44,6.44,0,0,0,.11,2.22,1.69,1.69,0,0,0,1.21,1.24,2.44,2.44,0,0,0,.71.1,3.15,3.15,0,0,0,1.51-.41,5.54,5.54,0,0,0,2.2-2.2c.68-1.24,1.19-2.26,1.6-3.21a88.45,88.45,0,0,0,5.31-15.92c1.22-5.4,2.33-10.89,3.41-16.21.43-2.14.86-4.28,1.31-6.42l1.28-6.28c.78-3.84,1.56-7.68,2.37-11.52.43-2,2.24-11,4.4-21.71,3.72-18.38,8.34-41.26,9.11-44.66,1.18-5.17,2.45-10.51,3.77-15.88.63-2.6,1.3-5.18,2-7.77.53-2.08,1.07-4.16,1.59-6.24l0-.18c.35-1.41.65-2.63,2.25-3.56l1-.13c.94-.11,2-.24,3-.44l1.68-.31c3.2-.6,6.52-1.21,9.74-1.93,6.75-1.5,13.47-3.06,20.2-4.61l5-1.15c19.93-4.6,40.57-9.08,61.32-13.33,20.13-4.11,40.38-8.78,60-13.29l10.17-2.34a124.28,124.28,0,0,0,23.84-8.16c2.31-1,4.46-2.24,6.44-3.36a24,24,0,0,0,5.73-4.45,19.57,19.57,0,0,0,2.48-3.16,4.66,4.66,0,0,0,.37-4.76,7.54,7.54,0,0,0-4.66-3.32c-.35-.11-.71-.2-1.06-.29l-.4-.11a32.64,32.64,0,0,0-6.37-.86,139.78,139.78,0,0,0-19.9.47,245.87,245.87,0,0,0-42,7.53c-8.78,2.31-17.5,5-25.94,7.64-2.69.83-5.39,1.67-8.09,2.49-9.6,2.94-19.72,6.48-30.93,10.83s-20.34,7.8-29,11a294.64,294.64,0,0,0-41.66,18.54,4.85,4.85,0,0,1,.17-.55l.79-2.59c.37-1.21.75-2.42,1.1-3.63,2.33-8,5-16.22,8-24.39,3.42-9.39,6.7-17.62,10-25.14.86-1.95.86-1.95,3.36-2.65a13.24,13.24,0,0,1,1.82-.31l.21,0c.84-.11,1.68-.2,2.51-.29,1.63-.18,3.31-.37,4.94-.66a114.52,114.52,0,0,1,19.9-1.79c7.47,0,15,.18,22.24.37,14.08.37,29.29.43,47.86.21a290.29,290.29,0,0,0,31.27-2.13c11.32-1.37,21.24-2.75,30.33-4.21,8.38-1.35,15.2-2.61,21.46-3.95A150.93,150.93,0,0,0,783,479.8a59.28,59.28,0,0,0,8.76-4.22,35.32,35.32,0,0,0,8.3-6.48,12.3,12.3,0,0,0,2.5-3.89,5.37,5.37,0,0,0-1.65-6.22,13.54,13.54,0,0,0-2.66-1.93,20.54,20.54,0,0,0-6.67-2.27A68.19,68.19,0,0,0,783,454a197.35,197.35,0,0,0-24.63.83c-12.9,1.16-26.15,2.92-40.52,5.38-17.19,2.94-33.09,5.26-48.61,7.09-9.38,1.1-18.9,2.57-28.29,4.36-21.32,4.05-39.08,9.5-54.28,16.64l-.35.17a85.87,85.87,0,0,0-8.74,4.51c3.21-7.07,6.44-13.57,9.86-19.87,3.16-5.8,6.19-11.1,9.27-16.18,2.95-4.88,6.14-9.78,9.22-14.52l1.12-1.73c.22-.34.44-.68.65-1a15.86,15.86,0,0,1,2.88-3.73l.19-.16v-.22c0-.49.22-.59,1.47-.75l3.3-.43,6.41-.83c1-.13,2-.22,2.93-.31a372.47,372.47,0,0,1,41.61-1.33q3.47.08,6.92.19c3.56.1,7.24.22,10.87.22,7.65,0,15.27,0,22.91-.1l11.64-.08c4.88,0,9.77,0,14.64,0,9.49,0,19.3,0,28.94-.22l5.38-.12c7.68-.17,15.63-.34,23.43-.92a247.29,247.29,0,0,0,36.28-5.17A99,99,0,0,0,850,418.05a68.85,68.85,0,0,0,6.25-3.57,14.93,14.93,0,0,0,4.48-4.33c2.34-3.49,1.54-7-2.2-9.66a19.91,19.91,0,0,0-5-2.47,77.05,77.05,0,0,0-17.84-3.59,102.49,102.49,0,0,0-19.44.15c-9.48.81-19.19,2.1-29.68,3.94q-11.8,2.07-23.59,4.19l-14.68,2.62c-10.77,1.91-22.11,3.33-33.71,4.21-12.94,1-22.85,1.78-32.13,2.58-6.91.58-16,1.42-25.1,2.66a128.91,128.91,0,0,0-41.23,12.94h0c6.22-8.39,12.72-16.41,19.34-23.83,2.37-2.66,4.8-5.3,7.23-7.93,1.84-2,3.68-4,5.5-6a6.11,6.11,0,0,1,4-1.84c.33-.05.65-.08,1-.11l.73-.07,1.81-.2c1.38-.14,2.8-.28,4.19-.52a292.18,292.18,0,0,1,31.27-3.66c13.47-.85,24.71-1.51,36.42-1.51,6.49,0,13.1.19,19.48.38l6,.17,9.8.26c12.29.32,25,.65,37.47,1.08a316.2,316.2,0,0,0,31.88-.49c12.92-.86,23.42-2,33.06-3.51a81.38,81.38,0,0,0,14-3.37,59,59,0,0,0,6.25-2.56,17,17,0,0,0,6.74-5.64c2-2.87,1.24-5.83-2-7.91a15.89,15.89,0,0,0-3.54-1.74,62.61,62.61,0,0,0-6.67-1.88A143.79,143.79,0,0,0,858,354.05a259.34,259.34,0,0,0-27.39.25l-13.72.77c-25.71,1.43-52.3,2.92-78.4,4.85-9.15.68-18.37,1.44-27.4,2.25-3.54.32-7.07.86-10.68,1.42A105.87,105.87,0,0,0,675,371c-3.55,1.53-7.08,3.18-10.5,4.77l-3.92,1.82q3.2-3.12,6.43-6.21a6.65,6.65,0,0,1,.93-.7c7.23-4.84,15.71-10.34,25.26-14.58.87-.39,1.72-.81,2.57-1.24,16.12-8.11,34.15-16,56.73-24.93l8.72-3.43c9.14-3.59,18.6-7.3,27.85-11A651.09,651.09,0,0,0,857,283.77a173.26,173.26,0,0,0,23.88-15.3,47.92,47.92,0,0,0,3.82-3.31,9.9,9.9,0,0,0,1.91-2.4,4.41,4.41,0,0,0,.16-4.39,6.46,6.46,0,0,0-4-2.8,22.44,22.44,0,0,0-5.36-.93,50.06,50.06,0,0,0-8.67.27c-6.19.66-12.32,1.62-18.24,2.85a236.77,236.77,0,0,0-35.35,10.33c-11.48,4.32-22.21,9.23-30.26,13a387.18,387.18,0,0,0-57.17,32.74c-12.34,8.66-24.49,17.69-36.12,26.86-13.12,10.34-24.36,20-34.35,29.66-2.72,2.61-5.38,5.26-8,7.91l-2.91,2.88.33-.57c.53-.94,1.07-1.87,1.61-2.8,1.13-2,2.31-4,3.38-6,4.32-8.18,7.54-14.87,10.13-21.05,4.56-10.86,9-22.56,13.69-35.75l1.89-5.38q2.19-6.21,4.37-12.41c.73-2.09,1.42-4.19,2.11-6.29l1.33-4q1.8-5.42,3.56-10.84l.94-2.92c1.39-4.31,2.83-8.76,4.1-13.17,1.39-4.77,2.69-9.71,4-15.11,1.25-5.25,2.35-10.61,3.42-15.78l.07-.35a29.68,29.68,0,0,0,.53-4.75,8.69,8.69,0,0,0-.43-3.14,4.16,4.16,0,0,0-2.38-2.55,7,7,0,0,0-4.25-.24,12.78,12.78,0,0,0-2.92,1,18.4,18.4,0,0,0-2.88,1.71c-1.8,1.32-3.25,2.45-4.54,3.56a79.38,79.38,0,0,0-12,13.29c-4.85,6.54-9,12.66-12.82,18.73a151.38,151.38,0,0,0-7.68,13.72,208.68,208.68,0,0,0-14.23,38,180.2,180.2,0,0,0-4.06,20.46,298.6,298.6,0,0,0-2.62,29.8,266.76,266.76,0,0,1-2.56,28l-.09.62a75.7,75.7,0,0,0-1.2,14.06,2.51,2.51,0,0,1-.85,1.71c-1.89,2.13-3.75,4.29-5.61,6.45a353.51,353.51,0,0,0-22.94,30.07l.42-2.1c.73-3.65,1.45-7.3,2.25-10.93,2.07-9.38,3.35-18.72,4.42-27.42l.38-3.1c1-8.11,2-16.49,3.22-24.71.94-6.58,2.06-13.26,3.14-19.72l1-5.79a226.55,226.55,0,0,0,3-41.07,103.28,103.28,0,0,0-3.41-25.85,49.84,49.84,0,0,0-3.55-9.68,38.71,38.71,0,0,0-2.87-4.66,11.06,11.06,0,0,0-4-3.47,9.22,9.22,0,0,0-8.43-.26,10.58,10.58,0,0,0-3.13,2.06l-2,.07,1.73.2-.29.33a40.73,40.73,0,0,0-3.52,4.62,54.58,54.58,0,0,0-6.9,17.78,126.75,126.75,0,0,0-2.42,19.68c-.6,11.76-.7,24.17-.31,39.05.12,4.69.21,9.38.3,14.06.15,7.57.3,15.4.59,23.09.54,14.46,1.44,26.14,2.82,36.75q.36,2.65.73,5.31c.58,4.13,1.18,8.4,1.55,12.6.45,5.19.76,10.48,1.05,15.6.16,2.79.32,5.59.5,8.38a3.68,3.68,0,0,1-.62,2.07l-2.12,3.8c-1.6,2.9-3.21,5.79-4.78,8.69-3.49,6.45-6.79,13.16-9.82,19.94-2.69,6-5.28,12.21-7.79,18.17l-1.91,4.55c-.57,1.34-1.08,2.69-1.59,4-.24.65-.48,1.29-.73,1.93-.27-.94-.56-1.88-.86-2.82-.71-2.28-1.44-4.65-1.94-7-2-9.43-4-19.45-6.14-30.61q-1.56-8.16-3-16.32c-1.55-8.42-3.16-17.13-4.9-25.68-1.59-7.78-3.39-15.66-5.13-23.28-1-4.46-2-8.91-3-13.37Q527.75,396,526,387.74c-1.4-6.49-2.8-13-4.24-19.47a197.41,197.41,0,0,0-5.25-19.93,46.43,46.43,0,0,0-3.36-8,29.32,29.32,0,0,0-2.28-3.42,8.6,8.6,0,0,0-2.94-2.42,6.33,6.33,0,0,0-5.88-.06,9.8,9.8,0,0,0-2.48,1.85,15,15,0,0,0-2.91,4.35,52.56,52.56,0,0,0-3.69,11.8,99.36,99.36,0,0,0-1.75,16.71A178.08,178.08,0,0,0,496.09,416Zm317.39-35.2h0ZM687.91,422Zm-80.14,71Z"/><path class="cls-3" d="M466.36,243.06c-.59.24-1.19.45-1.73.72A37.42,37.42,0,0,0,452.28,253a74.18,74.18,0,0,0-10.66,17.16c-1.3,2.83-2.47,5.74-3.63,8.65a99.81,99.81,0,0,1-18.5,30,105.9,105.9,0,0,0-13.3,18.53,215.12,215.12,0,0,0-9.59,19.37,76.45,76.45,0,0,0-3.27,9.33,5,5,0,0,0,0,3c.75,2.39,1.46,4.79,2,7.21.87,3.83,1.59,7.68,2.36,11.51.09.44,0,.95.45,1.29a1,1,0,0,0,.26,0,4.2,4.2,0,0,0,.54-.48,34.38,34.38,0,0,1,6.78-5.74c3.85-2.56,7.7-5.09,11.5-7.63,2.34-1.57,4.66-3.14,6.88-4.78,6.06-4.49,11.95-9,17.55-13.66a77,77,0,0,0,12.14-12.22c1.27-1.64,2.56-3.26,3.69-4.95,3.84-5.71,7.65-11.36,11.26-17a165.75,165.75,0,0,0,13.43-25.27c1.81-4.28,3.88-8.42,6.07-12.49a24.17,24.17,0,0,1,4.62-6.34,9.25,9.25,0,0,0,.62-.7c-.67-.73-1.28-1.44-1.95-2.13-2.4-2.45-4.86-4.91-7.26-7.4a138.2,138.2,0,0,0-13.48-12.13A26.35,26.35,0,0,0,466.36,243.06ZM222.62,295.51c-.52.6-.25,1.26-.19,1.86.4,4.34,1,8.67,1.78,13a146.12,146.12,0,0,0,5,19.94,2.51,2.51,0,0,0,1.83,1.81,81.14,81.14,0,0,0,9.22,2.42c2.12.42,4.25.82,6.36,1.29a120.81,120.81,0,0,0,24.56,2.82c6.63.11,13.25.14,19.88.26,2.57.05,5.15.15,7.7.41a78.4,78.4,0,0,1,26.05,7.52c2.48,1.19,4.86,2.51,7.26,3.79a108.72,108.72,0,0,0,12.68,6,122.07,122.07,0,0,0,34.89,7.81,37,37,0,0,0,8.28-.19c.37-.06.73-.18,1.17-.29-.15-.62-.23-1.15-.41-1.67-1.25-3.68-2.44-7.39-3.86-11.06a102.51,102.51,0,0,0-11.21-21.34,5.91,5.91,0,0,0-2.58-2.07,64.1,64.1,0,0,0-24.85-5.61c-2.57-.07-5.13,0-7.7,0-2.84,0-5.67,0-8.51-.11a46.23,46.23,0,0,1-11.61-1.93l-5.83-1.75c-8.52-2.51-11.41-2.85-20.22-2.27-3,.19-5.91.36-8.85.6a39.78,39.78,0,0,1-25-6c-1.77-1.1-3.57-2.17-5.34-3.3a56.88,56.88,0,0,0-12.1-5.94c-5.64-1.91-11.33-3.74-17-5.63C223.52,295.68,223.05,295.61,222.62,295.51Zm176.89,97.67c.39-.26.67-.41.91-.6A37.91,37.91,0,0,1,406,389a93.71,93.71,0,0,1,12-5.32c4.12-1.54,8.28-3,12.36-4.55,4.89-1.88,9.54-4.07,14.16-6.26a166.86,166.86,0,0,0,19.11-10.48,94.48,94.48,0,0,0,10.59-8,132.22,132.22,0,0,0,10.25-10.08,110.45,110.45,0,0,1,13-12.08c3.27-2.55,6.7-5,10.18-7.29a127,127,0,0,1,12.29-7.5c1.46-.77,2.8-1.63,4.16-2.47,1.67-1,1.59-.79,1-2.5a.69.69,0,0,0,0-.13c-3.7-10.57-10.16-20.63-18.71-30.52-2.48-2.87-5.05-5.72-7.62-8.61-.82-.91-1.72-1.8-2.6-2.7a3.13,3.13,0,0,0-.45-.22,2.3,2.3,0,0,0-1.43,1.1,22.69,22.69,0,0,0-3.36,5.63q-3.47,8.08-7,16.33c-1.64,3.83-3.4,7.65-5.38,11.44-4.83,9.27-10.79,18.33-16.88,27.58a84.23,84.23,0,0,1-20.18,20.78c-2.71,2-5.39,4.09-8.09,6.15-4.12,3.14-8.38,6.19-12.95,9-2.25,1.4-4.53,2.8-6.78,4.22-2,1.29-4.1,2.57-6.08,3.94a48.51,48.51,0,0,0-8.31,7.34,1.89,1.89,0,0,0-.57,1.52c.22,2.33.4,4.67.61,7A3.2,3.2,0,0,0,399.51,393.18ZM240.12,354.69c.33.8.49,1.26.69,1.71.93,2,1.95,3.93,2.78,5.93,1.46,3.49,2.81,7,4.17,10.5a4.26,4.26,0,0,0,1.13,1.88c2,1.73,4,3.52,6,5.22a108.07,108.07,0,0,0,10.4,7.89A157.69,157.69,0,0,0,288.6,400a116.74,116.74,0,0,0,18.1,6.12,87.2,87.2,0,0,0,25.56,2.28A70.72,70.72,0,0,0,345,406.61c1.27-.3,2.53-.6,3.79-.92a155.7,155.7,0,0,1,19.33-3.47,47.76,47.76,0,0,1,12.87.12A59,59,0,0,1,392.27,405c.46.16,1,.26,1.61.42,0-.56.07-1,.05-1.38-.07-1.6-.16-3.2-.26-4.8q-.48-8.4-1.1-16.82c-.11-1.45-.3-2.88-.48-4.32a8.19,8.19,0,0,0-.3-1.12c-.75,0-1.41-.08-2.08-.1-4.85-.11-9.71-.18-14.56-.34a131.44,131.44,0,0,0-17.62.61q-6.58.65-13.17,1.12a164.7,164.7,0,0,1-21.87.32,131.59,131.59,0,0,1-26-4.38,223.64,223.64,0,0,1-21.5-6.8c-4.31-1.63-8.63-3.26-12.92-5-4.59-1.85-9.23-3.61-14-5.1-2.1-.65-4.15-1.44-6.23-2.16C241.41,355.06,241,354.94,240.12,354.69Zm160.17,52.48A4.81,4.81,0,0,0,401,407a14.48,14.48,0,0,1,4.88-1.39c1.28-.16,2.57-.28,3.85-.36,9.29-.63,18.53-.75,27.71-.46,2.75.09,5.5.16,8.26.13a50.45,50.45,0,0,0,5.88-.37c5-.63,10-1.39,14.92-2.48a56.16,56.16,0,0,1,5.64-.92,7.53,7.53,0,0,0,3-1A233.52,233.52,0,0,0,497,385.86a113.94,113.94,0,0,0,17.08-15.65c4.79-5.42,8.52-11,10.63-17.07a69.19,69.19,0,0,0,3.47-19.29,3.85,3.85,0,0,0-.09-.67,3.1,3.1,0,0,0-1.82.06,26.3,26.3,0,0,0-6,2.12,60,60,0,0,0-14.07,8.95L494.4,354.59a104.45,104.45,0,0,1-12.82,9.74A233.44,233.44,0,0,1,460,376.62q-8,3.94-16.53,7.22c-4.9,1.88-9.95,3.48-15,5.13a116.27,116.27,0,0,0-15.83,6.25c-3.84,1.93-7.61,4-11.41,6-.52.28-1,.64-1.4.92A12.86,12.86,0,0,0,400.29,407.17Zm-62-115.39.3-.24a6.67,6.67,0,0,0-.45-.72,127.71,127.71,0,0,1-10.6-15.93c-1.46-2.59-2.86-5.22-4.23-7.87a3.68,3.68,0,0,0-2-2,10.67,10.67,0,0,1-1.95-1.16,94.83,94.83,0,0,0-15-8.12c-1-.45-2-.92-3.05-1.39a106.1,106.1,0,0,1-12.88-7.09c-2-1.29-4-2.62-6-3.94a153.24,153.24,0,0,0-28.17-14.86c-1.79-.7-3.54-1.51-5.31-2.26a76.85,76.85,0,0,1-17.13-9.9c-.3-.24-.61-.63-1.08-.5-1.38,3.21-6.78,27.45-6.93,31.09a2.52,2.52,0,0,0,.37.45c.42.37.85.74,1.31,1.07a202.79,202.79,0,0,0,29.8,18.24A152.38,152.38,0,0,0,299.81,281q5.07.79,10.14,1.66a111.5,111.5,0,0,1,15.22,3.63,67.58,67.58,0,0,1,12.28,5.09C337.73,291.51,338,291.63,338.32,291.78Zm20.26,14.64c.32.34.53.57.75.78,2.48,2.43,5.05,4.79,7.4,7.26s4.67,5.09,6.85,7.68c1.76,2.09,3.31,4.26,5,6.38.19.25.3.66.95.5.05-.29.11-.6.15-.92a31.27,31.27,0,0,1,2.77-9.74c1.27-2.69,2.54-5.37,4.06-7.93q4.38-7.32,9-14.37,8.53-13,15.7-26c3.14-5.71,5.54-11.63,8-17.44A80.62,80.62,0,0,0,423,241.39c1-3.67,1.37-7.49,2-11.21.42-2.35.79-4.71,2.43-6.63a10,10,0,0,0-1-.54q-7-3-14.06-6a9.54,9.54,0,0,0-1-.29c-.18.32-.34.58-.46.84-.69,1.48-1.37,3-2.07,4.46a121.37,121.37,0,0,1-9.29,17,127.46,127.46,0,0,1-16.13,19.13,111.69,111.69,0,0,0-7.87,8.42,25.18,25.18,0,0,0-5.87,13.29c-.25,2-.52,4.09-.76,6.14a27.67,27.67,0,0,1-2.29,8.47,49.27,49.27,0,0,1-6.54,10.15C359.71,305.19,359.19,305.73,358.58,306.42ZM390,367.25a7.37,7.37,0,0,0-1,.23,18.83,18.83,0,0,1-9.1,1.31c-3.56-.28-7.1-.64-10.63-1.05a58.08,58.08,0,0,1-10.14-2.08c-4.21-1.27-8.42-2.56-12.58-4a83.37,83.37,0,0,1-15-6.83c-1.27-.75-2.58-1.45-3.87-2.18a75.47,75.47,0,0,0-37.65-10c-4.32,0-8.65-.09-13-.11A141.94,141.94,0,0,1,243.76,339a60.18,60.18,0,0,1-11.58-3.57,6.06,6.06,0,0,0-1.12-.21c.29.85.48,1.51.73,2.14,1.56,4,3.38,7.8,5.23,11.6a3.89,3.89,0,0,0,2.37,2.09q6.3,2.34,12.79,4.11a139.64,139.64,0,0,1,14.54,4.94c1.78.71,3.54,1.44,5.32,2.16a304.85,304.85,0,0,0,29.5,10.2,105.23,105.23,0,0,0,31.73,4.08c2.77-.06,5.54-.16,8.32-.32,6-.33,12-1,18-1.68a110.08,110.08,0,0,1,13.57-.82c5.55,0,11.08.15,16.57.6a2,2,0,0,0,1.64-.21C391,371.91,390.55,369.66,390,367.25Zm4.89,46.46c-1.34,0-2.47-.11-3.6-.12a69.68,69.68,0,0,1-8.35-.58,78.67,78.67,0,0,0-22.75.43q-3.24.53-6.46,1.2a247.66,247.66,0,0,1-27.35,4.23c-1.76.17-3.52.27-5.28.32a99.81,99.81,0,0,1-15.53-1.06,49.47,49.47,0,0,1-10-2.38,84.45,84.45,0,0,1-17.3-8.33,100.25,100.25,0,0,0-21-9.67,7.57,7.57,0,0,0-1.2-.19,4.05,4.05,0,0,0,.52,2,85.28,85.28,0,0,0,9.29,17.54,44.8,44.8,0,0,0,8.93,9.73A62.68,62.68,0,0,0,300,438.67a81.69,81.69,0,0,0,21.49,1.66,227.9,227.9,0,0,0,28.68-3.19,81.8,81.8,0,0,0,13.61-3.62q5.28-1.89,10.37-4.16a99.32,99.32,0,0,0,19.18-10.83l1.25-.94a1.27,1.27,0,0,0,.58-1.2C395.08,415.56,395,414.72,394.85,413.71ZM360.1,314.46a24.22,24.22,0,0,0-4-4.51c-3.25-3.17-6.52-6.37-9.77-9.62a11.67,11.67,0,0,0-2.58-2.07c-.58-.33-1.13-.71-1.68-1.07a53.44,53.44,0,0,0-11.47-5.58,136.92,136.92,0,0,0-21.28-5.53c-4.31-.78-8.63-1.52-12.95-2.26a160,160,0,0,1-20.65-5,154.28,154.28,0,0,1-35.42-16.6,124.5,124.5,0,0,1-15.83-11.16c-.29-.25-.57-.64-1.14-.51a2.79,2.79,0,0,0-.22.6,206.49,206.49,0,0,0-1.61,25,58,58,0,0,0,.1,6.33l3.53,2A22,22,0,0,0,232.5,287a98.09,98.09,0,0,0,10.77,1c2.29.09,4.6.19,6.9.34a43.6,43.6,0,0,1,13.94,3.3c2.41,1,4.77,2.12,7.12,3.23s4.77,2.37,7.18,3.49a53.88,53.88,0,0,0,12,4c2.87.59,5.76,1.19,8.66,1.56,6.34.82,12.69,1.5,19,2.22,5.34.6,10.68,1.18,16,1.79A105.66,105.66,0,0,1,359,314.13C359.35,314.26,359.73,314.35,360.1,314.46Zm17.1-113.22c-.21.68-.39,1.2-.53,1.74s-.29,1.29-.45,1.93c-1.37,5.72-3.29,11.29-5.22,16.91-3.91,11.34-8.57,22.62-13.64,34-1.26,2.84-2.46,5.74-3.6,8.67a71.23,71.23,0,0,0-3.42,11.59c-1.43,7.13-.78,14.5.08,21.86a2.72,2.72,0,0,0,.93,1.7l4,3.83c.22.2.45.46.87.34.89-1.48,1.75-3,2.68-4.45s2-3,3-4.48a19.45,19.45,0,0,0,2.52-6.4c.34-1.71.58-3.44.86-5.16.34-2.14.62-4.3,1-6.42a25.4,25.4,0,0,1,4.13-9.77,40.12,40.12,0,0,1,3-3.91q4.32-4.77,8.76-9.35c6.17-6.34,11.79-12.84,16-20,3.51-6,6.71-12,10-18a2.57,2.57,0,0,0,.13-.73C398,210.65,387.74,206.05,377.2,201.24ZM331.15,273a6.26,6.26,0,0,0,.46-1,35.38,35.38,0,0,1,3.3-8.84c1.36-2.65,2.82-5.24,4.32-7.79,2-3.4,4.08-6.73,6.1-10.06A96.46,96.46,0,0,0,354.52,226c.83-2.5,1.78-4.94,2.67-7.39,2.74-7.55,5.13-15.15,8.62-22.15a2.46,2.46,0,0,0,.13-.76c-.44-.26-.79-.5-1.17-.7-8.73-4.51-17.24-9.49-25.82-14.5-3-1.73-6-3.42-9-5.13-.42-.24-.86-.6-1.4-.4a56.15,56.15,0,0,0-1,6.9,142.15,142.15,0,0,0-.15,19.71c.27,4.78.5,9.56.83,14.37a69.69,69.69,0,0,1-1.46,19.52c-1.49,7-2.49,14.26-3.3,21.57a3.76,3.76,0,0,0,.27,2c2,4.36,4.15,8.68,6.57,12.89A9.68,9.68,0,0,0,331.15,273ZM391,352l.41,0,.36-1.07c.53-1.56,1-3.14,1.59-4.67q1.8-4.55,3.72-9a114.32,114.32,0,0,1,18.37-30,106.16,106.16,0,0,0,15.81-24.11c1.42-3,2.77-6.05,4.13-9.06A98.9,98.9,0,0,1,444.83,257a42.79,42.79,0,0,1,9.5-10.1,38.14,38.14,0,0,1,8.28-4.81,10.25,10.25,0,0,0,1.14-.6c-2.58-2.69-21.81-12-28-14.25a1.74,1.74,0,0,0-.32.46,39,39,0,0,0-.95,4.15c-.63,4.92-1.49,9.8-2.53,14.67-1.16,5.51-2.08,11.11-3.58,16.61-2,7.3-4.18,14.61-7.77,21.58-1.86,3.62-3.8,7.23-5.89,10.82-2.66,4.55-5.54,9.06-8.29,13.67a159.88,159.88,0,0,0-11.81,23.5,73.21,73.21,0,0,0-4.6,15.66A6,6,0,0,0,391,352ZM234.81,147.51a11.24,11.24,0,0,0,.68,1c1.3,1.42,2.59,2.86,3.93,4.24,5.59,5.77,11.51,11.17,17.46,16.47,6.22,5.54,12.54,10.89,18.47,16.5,4.67,4.41,9.27,8.81,13.49,13.42.38.42.75.84,1.15,1.23a5.74,5.74,0,0,0,.82.52,13.25,13.25,0,0,0-.05-1.36c-.25-1.82-.51-3.65-.8-5.48a70.33,70.33,0,0,1-1.08-12.23,113.66,113.66,0,0,1,2.72-22.53,10.87,10.87,0,0,0,.14-1.19c-1-.34-1.89-.66-2.77-.93a155.15,155.15,0,0,0-25.75-5.71c-9-1.18-17.88-2.12-26.93-3.77C235.89,147.57,235.51,147.57,234.81,147.51Zm67,74.25.27-.21c-.29-.49-.54-1-.88-1.48-2.09-2.87-4.15-5.77-6.35-8.62a131.13,131.13,0,0,0-9.27-10.68c-4.11-4.27-8.49-8.4-13-12.5a21.14,21.14,0,0,0-3.53-2.9,49,49,0,0,0-15.8-6.38c-1.91-.36-3.83-.78-5.75-1.18a42.91,42.91,0,0,1-12.38-4.36c-.31-.16-.65-.4-1-.12,0,.26,0,.61,0,1a109.92,109.92,0,0,1,.2,16.11,6.7,6.7,0,0,0,.11,1.07c1.26.76,2.44,1.49,3.64,2.19,4.42,2.58,8.83,5.17,13.27,7.65a46.19,46.19,0,0,0,9.94,4.09c3.41,1,6.8,1.94,10.21,2.83a93.44,93.44,0,0,1,24,10l5,2.92C301,221.35,301.4,221.54,301.84,221.76Zm13.25,27.8c-.21-.74-.28-1.07-.41-1.39-1.9-4.69-3.8-9.4-5.82-14.11-1-2.29-2.2-4.55-3.29-6.84a3.58,3.58,0,0,0-1.51-1.58c-4.1-2.42-8.15-5-12.3-7.34a52,52,0,0,0-16.47-6.24l-6.75-1.29c-1.77-.34-3.55-.67-5.32-1.06-10.49-2.29-19.68-7.43-28-14.74-.25-.22-.54-.39-.79-.57-.18.16-.33.21-.34.3q-.84,6-1.69,12.11a3.9,3.9,0,0,0,0,.69c1.7,1.11,3.36,2.14,5,3.23a55.41,55.41,0,0,0,10.1,5.39c4.3,1.77,8.66,3.23,13,4.67,3.15,1,6.3,2.14,9.42,3.3a87.11,87.11,0,0,1,18.18,9.3c6,4.05,12.24,7.81,18.62,11.23,2.22,1.19,4.34,2.55,6.51,3.82Zm54.59,75.55c0-.29,0-.48-.05-.59-1.43-1.72-2.88-3.44-4.33-5.17a2.62,2.62,0,0,0-1.34-.75c-1.16-.35-2.33-.69-3.47-1.1a121.8,121.8,0,0,0-25.05-6.07c-5.18-.69-10.39-1.18-15.6-1.71-5-.51-10-.9-15-1.41a173.13,173.13,0,0,1-17.36-2.62,53.41,53.41,0,0,1-12-4c-2.09-1-4.15-2-6.21-3.11a92.56,92.56,0,0,0-9.28-4.38,33.14,33.14,0,0,0-9.56-2.25c-2-.16-4.07-.22-6.1-.36-3-.22-6.09-.44-9.13-.72a32,32,0,0,1-12.38-3.69,5.06,5.06,0,0,0-.91-.26,14.21,14.21,0,0,0,.36,5.24c.47.16,1,.35,1.5.51,4.6,1.43,9.19,2.88,13.8,4.23a69.36,69.36,0,0,1,19.8,9.2,57.75,57.75,0,0,0,7.61,4.27,31.6,31.6,0,0,0,11.79,3,67.39,67.39,0,0,0,8.29-.08c3.49-.2,7-.44,10.47-.59a44.62,44.62,0,0,1,14.09,1.67l4.5,1.28,6.24,1.84a42.55,42.55,0,0,0,10,1.7c2.57.12,5.14.18,7.71.24,2.77.06,5.55,0,8.32.16a61.3,61.3,0,0,1,22.15,5.09C368.84,324.86,369.22,325,369.68,325.11Zm-54.86-87.24a5.56,5.56,0,0,0,.25-.86c.05-1,0-1.93.1-2.89a89,89,0,0,0-1.83-22.9c-1-4.82-2-9.65-2.91-14.47-.76-3.95-1.43-7.9-2.09-11.84a53.74,53.74,0,0,1,.16-19.37,6.78,6.78,0,0,0,.05-.77c-1.74-1.07-4.07-2.06-10.56-4.49a5.44,5.44,0,0,0-2.34-.64c-.08.7-.12,1.41-.24,2.1-.66,3.78-1.33,7.59-2.06,11.39A56.44,56.44,0,0,0,292.6,190c.16,1.52.32,3,.46,4.55.31,3.27.57,6.53.89,9.8a2.51,2.51,0,0,0,.56,1.18c1.45,1.89,3,3.76,4.41,5.64A139.42,139.42,0,0,1,308,224.31a90.4,90.4,0,0,1,5.84,11.75A4.64,4.64,0,0,0,314.82,237.87Zm211.66,79.59c-.56.29-.83.4-1.05.55a72.39,72.39,0,0,1-6.39,3.82,16.23,16.23,0,0,0-1.61,1c-1.87,1.28-3.73,2.58-5.6,3.88-3.52,2.44-7,4.95-10.29,7.61a131.51,131.51,0,0,0-13.61,12.82,117.46,117.46,0,0,1-21.14,18.29c-2.61,1.73-5.32,3.38-8.17,4.92-4.86,2.64-9.9,5.08-15,7.48a161.18,161.18,0,0,1-16.87,6.85c-4.06,1.36-8.14,2.72-12.17,4.17a61.42,61.42,0,0,0-12.84,6.2c-2.68,1.76-2.3,1.2-2.21,3.83,0,.45-.21,1,.39,1.32a2.66,2.66,0,0,0,.56-.2l4.23-2.51a127.64,127.64,0,0,1,19.24-9.35c4.41-1.71,8.88-3.3,13.31-4.94a184.29,184.29,0,0,0,25.35-11.56c4-2.22,7.8-4.56,11.66-6.82a135.62,135.62,0,0,0,16.52-11.73c4.11-3.32,8.12-6.64,12.22-9.85a66.64,66.64,0,0,1,14.37-8.75,33.58,33.58,0,0,1,10.2-3.06,4.91,4.91,0,0,0,.74-.23A49.3,49.3,0,0,0,526.48,317.46ZM387.8,344c.16-.49.3-.82.39-1.17.64-2.42,1.18-4.86,1.9-7.27A98.76,98.76,0,0,1,395,323.26a193.27,193.27,0,0,1,12.35-22.42c3.63-5.83,7.07-11.64,10-17.58a127.48,127.48,0,0,0,9.33-26.54c1.92-7.92,3.79-15.77,5.12-23.68a18,18,0,0,1,2.08-6.41c0-.07,0-.2-.08-.39a23.67,23.67,0,0,0-2.77-1.3c-.5-.22-1-.39-1.64-.61a6.48,6.48,0,0,0-.3.71A39.26,39.26,0,0,0,427.8,233,75.66,75.66,0,0,1,425.5,247c-1,3.42-2.31,6.73-3.58,10.08a175.85,175.85,0,0,1-14.79,29.6c-3.58,5.81-7.48,11.57-11.36,17.43-2.85,4.3-5.61,8.7-8.07,13.27a44.17,44.17,0,0,0-4.85,16.87,2.76,2.76,0,0,0,.28,1.43c1.33,2.58,2.7,5.14,4.06,7.69A3.67,3.67,0,0,0,387.8,344ZM346.22,293.8c-.09-.68-.14-1.07-.19-1.46-.27-2.31-.66-4.62-.83-6.93a45.34,45.34,0,0,1,2.49-17.65,106.58,106.58,0,0,1,5.76-13.64c1.62-3.28,3.24-6.55,4.76-9.83a308.21,308.21,0,0,0,14-35c.91-2.82,1.79-5.64,2.66-8.45a5.93,5.93,0,0,0,.13-.66c-1.83-1-3.69-1.92-5.64-2.81a5.1,5.1,0,0,0-.53.84c-1.29,3.36-2.69,6.71-3.86,10.17-1.9,5.6-3.68,11.31-5.58,17A93.6,93.6,0,0,1,351.54,243c-1.91,3.3-3.92,6.58-5.92,9.88-2.48,4.11-5,8.25-7.12,12.6a43.28,43.28,0,0,0-4,11.75,3.4,3.4,0,0,0,.61,2.63,137.75,137.75,0,0,0,9.42,12.51A4.64,4.64,0,0,0,346.22,293.8Zm-95.85,85.51-.36.22c.12.46.23.92.37,1.38.75,2.45,1.48,4.9,2.23,7.33.53,1.68,1.15,3.33,1.61,5a2.56,2.56,0,0,0,2,1.94c.63.16,1.24.4,1.86.6a99.76,99.76,0,0,1,24.18,11.3,53.86,53.86,0,0,0,17.51,7.25,91.46,91.46,0,0,0,23,1.92,33.5,33.5,0,0,0,3.86-.33c4.74-.7,9.48-1.34,14.19-2.21,5.12-.94,10.2-2.15,15.3-3.18a75.91,75.91,0,0,1,29.28-.58c2.43.46,4.81,1,7.21,1.55l1.78.37a10.4,10.4,0,0,0-.31-3.93c-2.5-.44-4.87-.88-7.25-1.29-1.87-.32-3.74-.64-5.63-.91a44.1,44.1,0,0,0-11-.33c-4.33.46-8.67.92-13,1.6-3.64.57-7.25,1.42-10.85,2.23a78.42,78.42,0,0,1-11.33,1.84,94.06,94.06,0,0,1-28.47-1.78,125.32,125.32,0,0,1-47.49-22.85c-2.55-2-5-4.18-7.54-6.29C251.18,379.87,250.77,379.6,250.37,379.31Zm61.2-213.19c0,.47-.12.89-.12,1.33,0,2.33,0,4.67,0,7a61.59,61.59,0,0,0,1.2,11.64c1.1,5.5,2.18,11,3.29,16.5.65,3.24,1.41,6.49,2.14,9.73a69.47,69.47,0,0,1,1.44,18.83c-.13,2.63-.32,5.27-.45,7.91a6.43,6.43,0,0,1-1.2,4.07,2.13,2.13,0,0,0-.15,2.43c.8,1.69,1.48,3.4,2.23,5.1a14.61,14.61,0,0,0,.86,1.43c.13-.82.23-1.29.28-1.78a91.53,91.53,0,0,1,1.58-10.57c.35-1.68.67-3.36,1-5a54.61,54.61,0,0,0,.77-17.86c-.08-.63-.14-1.26-.2-1.89-.42-4.55-.9-9.11-1.32-13.65a74.5,74.5,0,0,1,2.44-26c.17-.66.4-1.28.6-1.89-1.67-1.26-4.93-3-10.95-5.84A13.64,13.64,0,0,0,311.57,166.12Zm89.27,248c2.27.76,4.51,1.53,6.77,2.25a42.54,42.54,0,0,0,11.14,1.76,75.55,75.55,0,0,0,25.55-3.67,147.42,147.42,0,0,0,21.6-9.24,9.68,9.68,0,0,0,1-.72,13.33,13.33,0,0,0-1.35.22c-4.13,1.15-8.37,1.88-12.59,2.74a39.64,39.64,0,0,1-7.09.83c-3.24.07-6.48.12-9.7.1-9.34-.07-18.67-.23-28-.33-1.87,0-3.78.19-5.68.36a3.73,3.73,0,0,0-2.22.7A35.42,35.42,0,0,0,400.84,414.08ZM320.1,261a2.1,2.1,0,0,0,0-.61c-.44-1-1-2-1.33-3a7.14,7.14,0,0,0-3.34-4.14.65.65,0,0,1-.16-.13,38.2,38.2,0,0,0-7-4.77c-2.89-1.57-5.87-3-8.74-4.66q-7.23-4.11-14.4-8.47a84.91,84.91,0,0,0-14.28-7.12c-3.65-1.38-7.33-2.67-11-4s-7.09-2.47-10.62-3.83a52.46,52.46,0,0,1-16-9.66,11,11,0,0,0-1.25-.84,15.69,15.69,0,0,0-.7,3.8c.39.32.76.67,1.16,1a95.08,95.08,0,0,0,19.85,11.23c2.37,1,4.74,1.93,7.12,2.88,3.83,1.53,7.56,3.28,11.23,5.16a185.87,185.87,0,0,1,16.95,10.07A116.65,116.65,0,0,0,306.15,254a100.26,100.26,0,0,1,12.12,6.1C318.79,260.37,319.35,260.62,320.1,261ZM262,179.41l.23-.2c-.3-.3-.57-.62-.89-.9-3.29-2.8-6.64-5.57-9.9-8.45q-5.29-4.7-10.49-9.58a104.22,104.22,0,0,1-8.36-8.86c-.26-.31-.49-.73-1.12-.74a7.35,7.35,0,0,0,0,1.15q1.09,8.26,2.13,16.56a6.12,6.12,0,0,0,.33,1.09c2,1,3.89,2,5.83,2.81a33.14,33.14,0,0,0,4.06,1.5c3.42,1,6.85,1.92,10.27,2.85a43.63,43.63,0,0,1,6.73,2.33C261.16,179.14,261.56,179.27,262,179.41Z"/><path class="cls-4" d="M548.47,802.35c.47-3.44.81-6.89,1.43-10.31.73-4,1.61-8.07,2.6-12.08.69-2.84,1.64-5.64,2.52-8.46a82.13,82.13,0,0,1,3.44-9.09,148.51,148.51,0,0,1,7.92-15.13c6.37-10.71,14.67-20.56,23.77-30a204.57,204.57,0,0,1,17.7-16.75c3.25-2.67,6.56-5.29,9.84-7.94.37-.29.71-.61,1.09-.94-.22-.16-.34-.32-.5-.34a84.46,84.46,0,0,1-17.93-5.07,99.18,99.18,0,0,1-16.14-8.05,62.09,62.09,0,0,1-8-6,146.29,146.29,0,0,1-17.39-18.08,52.82,52.82,0,0,1-9.86-18.14,45.64,45.64,0,0,1-1.09-22.16,41.22,41.22,0,0,1,4.65-11.87c4.78-8.55,11.65-16.14,19.31-23.35q4.44-4.18,9-8.27a131.83,131.83,0,0,0,16.45-17.61,136.39,136.39,0,0,1,17-18.29,161.84,161.84,0,0,1,33.33-22.57A254.45,254.45,0,0,1,706.25,490c8.41-2,16.8-4,25.06-6.35q10.66-3,21-6.64a192,192,0,0,0,20.83-8.88c5.94-2.91,11.84-5.87,17.8-8.76,1.5-.73,3.13-1.3,4.72-1.92a5.55,5.55,0,0,1,1.17-.28,1.74,1.74,0,0,1,1.47.41c.64.61,1.33,1.19,1.89,1.83,4.38,5,9.56,9.61,14.44,14.35,3.42,3.31,6.83,6.61,9.87,10.13a80.8,80.8,0,0,1,17.65,33.83,121.4,121.4,0,0,1,2.71,17.38,223.09,223.09,0,0,0,3.38,24c1.43,6.78,3.23,13.51,5.07,20.24,2.29,8.35,4.64,16.68,6.86,25,1.52,5.72,3,11.45,3.93,17.25a52.69,52.69,0,0,1,.62,13.9,45.48,45.48,0,0,1-2.63,11,120.3,120.3,0,0,1-6,13.68c-1.34,2.6-2.53,5.25-3.93,7.83-2.11,3.93-4.31,7.83-6.54,11.72a122.37,122.37,0,0,1-8.47,12.74C827.53,705.19,815,716,799.23,724.59a177.49,177.49,0,0,1-26.56,11.64,126,126,0,0,1-38.34,6.88,166.93,166.93,0,0,1-27.57-1.48,231.53,231.53,0,0,1-30.23-6.33,141.07,141.07,0,0,1-26.69-10.1,57.17,57.17,0,0,1-18-13.91,42.46,42.46,0,0,1-4.27-6.19,23.8,23.8,0,0,1-3-9.29,2.48,2.48,0,0,0-.46-1.71,10.28,10.28,0,0,0-1,.54c-1.09.79-2.18,1.58-3.24,2.39a242,242,0,0,0-40.89,39.6,127.32,127.32,0,0,0-9.62,13.69,115.93,115.93,0,0,0-8.67,16.91,120.16,120.16,0,0,0-4.1,12.32,216,216,0,0,0-4.67,22.33c-.07.4-.17.81-.25,1.22ZM859.54,636.71c-.71-.21-1.39-.44-2.1-.61a78.27,78.27,0,0,0-19.74-2.16,182.06,182.06,0,0,0-27.38,2.87c-4.15.74-8.28,1.59-12.39,2.45a214.66,214.66,0,0,1-45.68,4.86,211.55,211.55,0,0,0-28.39,1.73c-8.9,1.15-17.69,2.68-26.42,4.42-4,.79-7.89,1.86-11.74,3a8.42,8.42,0,0,0-3.17,1.66c-2.1,1.78-4.23,3.54-6.47,5.22-3.55,2.67-7.21,5.26-10.81,7.88-.43.31-1,.53-1.11,1,.08.07.12.14.17.15a5.56,5.56,0,0,0,.81.08,48.06,48.06,0,0,1,9.76,1.18c4.83,1.05,9.66,2.11,14.51,3.12,3,.62,6,1.22,9,1.71,8.28,1.34,16.6,2.53,25,3.44a129.08,129.08,0,0,0,20.81.7c2.61-.14,5.23-.26,7.82-.51,8.82-.85,17.63-1.7,26.43-2.66q19.44-2.15,38.38-6.12c6.31-1.33,12.69-2.42,19.1-3.42a59.64,59.64,0,0,1,10.87-.84c.4,0,.8,0,1.29,0,.44-.8.9-1.55,1.28-2.32,1.38-2.76,2.7-5.53,4.09-8.28a73.38,73.38,0,0,0,5.41-14.29A12,12,0,0,0,859.54,636.71ZM644.38,517.54a3,3,0,0,0-1.85.71q-5.67,3.24-10.95,6.84a139.66,139.66,0,0,0-15.4,12.09,1.61,1.61,0,0,0-.59,2,48.37,48.37,0,0,0,3.17,6.88c.86,1.52,1.73,3,2.52,4.58A80.63,80.63,0,0,0,633,567.32c3.76,4.2,7.58,8.38,11.32,12.59a61.5,61.5,0,0,1,4.09,5A42.37,42.37,0,0,1,656.06,605c.24,2.16.3,4.33.4,6.5a63.09,63.09,0,0,0,1.24,11.1A71.27,71.27,0,0,0,669.33,649a24.12,24.12,0,0,0,4.83,5.2c.26.2.59.37,1,.59.57-.44,1.08-.78,1.52-1.17,3.16-2.8,6.38-5.56,9.42-8.43a109,109,0,0,0,15.84-18.27,3.55,3.55,0,0,0,.63-2.67,34.18,34.18,0,0,0-9-18.26c-1.48-1.62-3.13-3.15-4.66-4.75-1.69-1.76-3.38-3.51-5-5.32a27.61,27.61,0,0,1-5-8.13c-.58-1.48-1.16-3-1.76-4.45-2.63-6.48-4.05-8.42-9.92-13.58-2-1.73-3.91-3.47-5.92-5.18-6.15-5.21-9.22-11.3-9.31-18.25,0-1.6-.1-3.2-.11-4.8a28.61,28.61,0,0,0-1.75-10.1c-1.66-4.32-3.43-8.61-5.16-12.91A10,10,0,0,0,644.38,517.54Zm5.74,160.23c.47.11.78.21,1.1.25a44.55,44.55,0,0,1,6.68,1.6,95.15,95.15,0,0,1,12,4.77c3.86,1.8,7.66,3.68,11.56,5.43,4.68,2.09,9.6,3.83,14.54,5.54a171.6,171.6,0,0,0,22.27,6.16,125.18,125.18,0,0,0,15,2.07c5.83.46,11.68.55,17.54.54a198.71,198.71,0,0,1,21.84,1c5,.52,9.93,1.21,14.86,2,5.6.85,11.18,1.77,16.65,3.06,1.84.43,3.73.72,5.61,1,2.31.4,2,.49,3.73-.88l.14-.11a110.48,110.48,0,0,0,25.69-29c1.89-3.1,3.7-6.23,5.51-9.35.58-1,1.06-2,1.56-3,0-.09,0-.2,0-.39a4.39,4.39,0,0,0-2.32-.21,57.86,57.86,0,0,0-9.14,1.19q-12.16,2.5-24.31,5c-5.64,1.19-11.3,2.29-17,3.24-14,2.33-28.2,3.82-42.39,5.3a139.65,139.65,0,0,1-35.15-.85c-3.78-.57-7.58-1.1-11.36-1.66-5.75-.84-11.45-1.85-17-3.18-2.76-.65-5.51-1.33-8.27-2-2.5-.59-5-1.2-7.52-1.71a69.25,69.25,0,0,0-12.25-1.28,3.3,3.3,0,0,0-1.89.49c-2.33,1.45-4.69,2.88-7,4.34A3.8,3.8,0,0,0,650.12,677.77Zm-50-122.43c-.55.58-.88.9-1.17,1.24-1.3,1.53-2.51,3.09-3.87,4.58-2.39,2.59-4.86,5.13-7.3,7.69a3.59,3.59,0,0,0-1.1,1.63c-.46,2.14-1,4.27-1.47,6.41a73.58,73.58,0,0,0-1.62,10.6,108.85,108.85,0,0,0,1.09,21.33,75.68,75.68,0,0,0,3.75,15,55.34,55.34,0,0,0,11.12,18.06,49.45,49.45,0,0,0,8.39,7.43c1,.67,1.91,1.34,2.88,2a116.58,116.58,0,0,1,13.55,10.84,29.15,29.15,0,0,1,6.57,8.55,32.06,32.06,0,0,1,3.07,9,12.49,12.49,0,0,0,.39,1.3c.59-.3,1-.51,1.47-.76,1.62-.95,3.23-1.92,4.85-2.89,5.64-3.39,11.3-6.77,16.93-10.16,1.45-.88,2.85-1.8,4.26-2.71.35-.23.63-.51,1-.81-.37-.51-.68-1-1-1.4-2.53-3.2-5.1-6.37-7.59-9.59A86.88,86.88,0,0,0,644,641.66q-4.26-3.9-8.33-7.9a110.23,110.23,0,0,1-12.26-14,82.41,82.41,0,0,1-10-19,145.49,145.49,0,0,1-5.49-17.16c-.87-3.55-1.77-7.1-2.58-10.66a96,96,0,0,0-3.19-11.36c-.59-1.65-1-3.32-1.55-5C600.5,556.33,600.35,556,600.1,555.34Zm35.79,130.92a3.31,3.31,0,0,0,.58.36,11.41,11.41,0,0,1,4,2.43c.84.76,1.62,1.55,2.37,2.35a160.11,160.11,0,0,1,14.67,18.13c1.31,1.88,2.63,3.75,4.08,5.57a30,30,0,0,0,3.39,3.69,106.32,106.32,0,0,0,10.36,8.41,37.53,37.53,0,0,1,3.92,3.19,5.85,5.85,0,0,0,2.64,1.4,241.38,241.38,0,0,0,27.71,5.59,165.75,165.75,0,0,0,27.57,1.37,108.88,108.88,0,0,0,26.46-3.84,176.58,176.58,0,0,0,25.59-9.72,6.72,6.72,0,0,0,.78-.47c-.11-.58-.69-.81-1.17-1.09a26.86,26.86,0,0,0-6.17-2.46,88.48,88.48,0,0,0-19-3.37q-9.47-.59-18.93-1.25a142.44,142.44,0,0,1-18.52-2.33,241.22,241.22,0,0,1-25.8-6.6,171.54,171.54,0,0,1-16.89-6.5c-4.68-2.09-9.1-4.46-13.56-6.8a112.4,112.4,0,0,0-15-6.78c-4.06-1.41-8.18-2.73-12.28-4.07-.56-.18-1.16-.28-1.68-.41A21,21,0,0,0,635.89,686.26Zm84-100.09.43.07a6.74,6.74,0,0,0,.46-.63,98.66,98.66,0,0,1,9.72-14c1.74-2.1,3.55-4.18,5.39-6.23.61-.68,1-1.29.77-2.15a4.79,4.79,0,0,1-.07-1.69,41.3,41.3,0,0,0-1.5-12.62c-.21-.81-.39-1.63-.58-2.44a49.89,49.89,0,0,1-1.31-10.78c0-1.76,0-3.51,0-5.27a64.41,64.41,0,0,0-4-23c-.5-1.34-.89-2.7-1.34-4.06a34.84,34.84,0,0,1-1.86-14.12c0-.28.2-.62-.24-.84-4.2.51-31.29,7.45-34.77,8.92a1.42,1.42,0,0,0-.2.41,8.46,8.46,0,0,0-.17,1.23,104.59,104.59,0,0,0,1.7,25.63,84.93,84.93,0,0,0,14.24,33.17q2.42,3.42,4.76,6.87a60,60,0,0,1,6,10.89,32.3,32.3,0,0,1,2.5,9.87C719.84,585.68,719.89,585.93,719.93,586.17Zm-2.61,19.53c-.16.37-.27.61-.36.85-1,2.74-1.92,5.5-3.07,8.2s-2.52,5.47-3.93,8.16c-1.14,2.16-2.5,4.25-3.75,6.37-.15.25-.52.53,0,.85.34-.12.71-.24,1.07-.38a58.17,58.17,0,0,1,12-3.35c3.63-.61,7.27-1.23,10.94-1.62q10.54-1.11,21.13-1.94,19.53-1.55,38.89-4c8.5-1.08,16.84-2.71,25.21-4.21,5.3-1,10.49-2.17,15.63-3.52,5-1.3,9.67-3,14.51-4.53a32.64,32.64,0,0,1,9.54-2,4.15,4.15,0,0,0,0-.82q-1.51-5.45-3.07-10.91a3.51,3.51,0,0,0-.41-.7c-.5.06-.91.09-1.3.15l-6.68,1c-8.64,1.33-17.31,2.55-26.11,3.12a265.33,265.33,0,0,1-32.4.1c-4.81-.27-9.62-.49-14.44-.47a52.55,52.55,0,0,0-18.19,3.08l-7.05,2.59A54.48,54.48,0,0,1,735,604.66a95.82,95.82,0,0,1-14.78,1.11C719.3,605.77,718.41,605.73,717.32,605.7ZM672.1,657.15a5.74,5.74,0,0,0-.82-.53,13.91,13.91,0,0,1-6.4-5.13c-1.68-2.43-3.27-4.89-4.81-7.37a33.18,33.18,0,0,1-3.51-7.6c-1.07-3.37-2.11-6.74-3-10.13a48.5,48.5,0,0,1-1.65-13.09c0-1.18,0-2.37,0-3.56-.1-10.46-4-20-11.9-28.69-2.51-2.72-4.93-5.48-7.42-8.21-6.46-7.06-12-14.46-15.91-22.54-1.4-2.92-2.89-5.8-3.45-8.9a3.36,3.36,0,0,0-.47-.8c-.61.57-1.09,1-1.53,1.44-2.72,2.8-5.19,5.72-7.62,8.66a2.48,2.48,0,0,0-.57,2.48,98.75,98.75,0,0,0,3.5,10,74.14,74.14,0,0,1,3.64,11.6c.35,1.47.65,2.95,1,4.43a207.14,207.14,0,0,0,6.77,23.93,66.07,66.07,0,0,0,13.49,22.51c1.58,1.75,3.2,3.49,4.87,5.19,3.64,3.71,7.57,7.24,11.58,10.72a76.41,76.41,0,0,1,8.29,8.3,128.45,128.45,0,0,1,8.46,11c.23.35.33.8,1.11.94C667.81,660.4,669.9,658.85,672.1,657.15ZM626.31,686.4c-.63-.92-1.14-1.7-1.7-2.46A41,41,0,0,1,621,678a48.91,48.91,0,0,0-12-14.89c-1.45-1.24-2.95-2.46-4.5-3.63a166.66,166.66,0,0,1-18.11-15.87c-1.06-1.08-2.06-2.2-3-3.34a64.7,64.7,0,0,1-6.94-10.89,30.42,30.42,0,0,1-2.9-7.89,56,56,0,0,1-1.21-15.73,58,58,0,0,0-2.19-18.61,4.43,4.43,0,0,0-.46-.88,4.56,4.56,0,0,0-1.57,1.34,81.13,81.13,0,0,0-11.19,15,37.11,37.11,0,0,0-4.36,11,42.83,42.83,0,0,0,1.7,23.17,52.35,52.35,0,0,0,9,15.41,149.75,149.75,0,0,0,17.17,17.61,59.52,59.52,0,0,0,10.27,7.15q4.49,2.49,9.28,4.63a93.32,93.32,0,0,0,20.62,6.65l1.6.29a2,2,0,0,0,1.53-.3Zm83.54-75.72a17.18,17.18,0,0,0,2.26-4.73c1.31-3.58,2.61-7.17,4-10.75a6.67,6.67,0,0,0,.54-2.58c0-.51,0-1,0-1.55a25.66,25.66,0,0,0-1.42-9.66,70.59,70.59,0,0,0-7.77-15.48c-1.93-3-3.92-5.93-5.9-8.88a94.16,94.16,0,0,1-8.1-14.74A80.78,80.78,0,0,1,687,513.7a61.56,61.56,0,0,1,.45-14.22c0-.28.24-.6-.26-.89a5.4,5.4,0,0,0-.71.13,257,257,0,0,0-24.7,9.71c-2,.9-4,1.77-5.86,2.8.12,1,.23,2,.36,3a12.12,12.12,0,0,0,2.18,5.61,65.57,65.57,0,0,0,5.72,7c1.35,1.44,2.68,2.88,4,4.34a25.09,25.09,0,0,1,5.51,10c.52,1.92.9,3.87,1.28,5.81s.66,4,1.05,6a29.48,29.48,0,0,0,3.49,9.21c1.19,2,2.37,4.08,3.78,6,3.08,4.27,6.3,8.48,9.47,12.72,2.66,3.55,5.34,7.1,8,10.67a54.58,54.58,0,0,1,8.81,18.29C709.6,610.12,709.74,610.4,709.85,610.68Zm134.62-45.09c-.93.21-1.65.35-2.37.53s-1.69.44-2.53.66c-7.5,1.92-15.15,3.47-22.79,5-15.43,3.15-31,5.85-46.63,8.34q-5.86.95-11.67,2.05A139.22,139.22,0,0,0,744,585.78c-8.44,2.6-15.73,6.59-22.87,10.74a2.52,2.52,0,0,0-1.19,1.41c-.49,1.45-1,2.9-1.49,4.35-.08.23-.22.5.18.7,2.1-.2,4.2-.43,6.31-.59s4.4-.25,6.59-.43a39.2,39.2,0,0,0,8.36-1.66c2-.64,4-1.36,6-2,2.51-.86,5-1.76,7.53-2.56a52.65,52.65,0,0,1,13.21-2.35c2.06-.1,4.13-.22,6.19-.17q8.06.2,16.09.55a232.78,232.78,0,0,0,33.41-.6c9.28-.93,18.52-2.1,27.78-3.17a5.07,5.07,0,0,0,.95-.29C848.86,581.67,846.7,573.74,844.47,565.59Zm-109.65,7.25a11.55,11.55,0,0,0,1.34-.2,70.15,70.15,0,0,1,11.37-2.23q5.51-.66,11.05-1.13c4.93-.43,9.86-.77,14.79-1.17a217.52,217.52,0,0,0,27.2-3.73c3.32-.7,6.67-1.29,10-1.93,10.27-2,20.48-4.14,31-5.44a6.42,6.42,0,0,0,1-.28,7.16,7.16,0,0,0-.07-1c-1.31-7-2-14-2.8-20.94-.27-2.42-.63-4.83-1-7.24,0-.34,0-.74-.61-1-2.81.73-5.63,1.53-8.39,2.47A227.26,227.26,0,0,0,808,537.77c-5,2.29-10,4.58-14.92,6.94a133,133,0,0,1-21.84,8.06c-8.47,2.36-16.71,5.11-24.85,8a5,5,0,0,0-1.94,1.11c-3.21,3.22-6.3,6.52-9.1,10A6.55,6.55,0,0,0,734.82,572.84ZM688.69,649.5l.27.25,1.34-.35c2-.51,3.88-1.07,5.86-1.51q5.85-1.3,11.73-2.49a223.76,223.76,0,0,1,43.67-4.66,222.2,222.2,0,0,0,37.07-3.25c4.37-.75,8.72-1.54,13.07-2.33a235.91,235.91,0,0,1,26.24-3.44,99.1,99.1,0,0,1,18.55.15,69.65,69.65,0,0,1,11.6,2.17c.5.15,1,.23,1.55.33,1.48-2.92-1.13-18.61-2.9-23.23a5,5,0,0,0-.77.06c-1.88.51-3.8.95-5.61,1.58q-9.39,3.22-19,6.07c-7.24,2.16-14.36,4.52-21.69,6.5A257.47,257.47,0,0,1,780,632c-5.27.78-10.55,1.52-15.86,2.14-6.74.79-13.51,1.41-20.25,2.16a310.48,310.48,0,0,0-32.54,5.16A132.4,132.4,0,0,0,692,647,8.4,8.4,0,0,0,688.69,649.5ZM797.56,463.17a7.12,7.12,0,0,0-.48.75c-.5,1.29-1,2.57-1.47,3.87a141.72,141.72,0,0,0-4.27,16.4c-1.22,5.75-2.21,11.54-3.81,17.25a111.63,111.63,0,0,1-4.41,13.36c-.16.4-.34.79-.47,1.19a2.56,2.56,0,0,0,0,.69c.59-.26,1-.42,1.38-.62,1.74-.93,3.47-1.86,5.19-2.81a98.21,98.21,0,0,1,12.17-5.84,202,202,0,0,1,26.17-8c.44-.11.86-.26,1.41-.43-.39-.69-.71-1.31-1.08-1.92a88.47,88.47,0,0,0-13.22-16.58c-5.48-5.43-11.15-10.76-16.18-16.44C798.31,463.79,798,463.58,797.56,463.17Zm-29,69,.41.07a14.59,14.59,0,0,0,.94-1.17c1.55-2.47,3.15-4.93,4.58-7.44a65.62,65.62,0,0,0,4.64-9.93,121.08,121.08,0,0,0,3.8-12.68,8.62,8.62,0,0,0,.49-3.21,22,22,0,0,0-4.77-11.58c-1-1.23-2-2.49-2.94-3.73a21.34,21.34,0,0,1-4.46-8.77c-.05-.24-.06-.53-.62-.64-.27.11-.65.22-1,.38-5.2,2.44-10.56,4.67-16.11,6.63a8.48,8.48,0,0,0-1,.5c.12,1,.22,2,.36,3,.52,3.59,1,7.18,1.6,10.76a21.41,21.41,0,0,0,2.8,7.42c1.4,2.36,2.76,4.73,4.22,7.07A41.21,41.21,0,0,1,767.89,527q.2,2.09.42,4.17A9.35,9.35,0,0,0,768.51,532.15ZM748.59,552.4c.62-.46.92-.65,1.17-.87,3.59-3.27,7.21-6.51,10.74-9.81,1.72-1.61,3.25-3.33,4.89-5a1.89,1.89,0,0,0,.61-1.58c-.29-3.45-.45-6.91-.85-10.35a24.3,24.3,0,0,0-5-12.19c-1.14-1.47-2.25-2.95-3.37-4.44-.88-1.16-1.78-2.33-2.61-3.51a28,28,0,0,1-4.69-22.24,3.89,3.89,0,0,0,0-.68,2.17,2.17,0,0,0-.54-.08l-13.22,4a3.65,3.65,0,0,0-.66.3c.08,1.43.19,2.82.22,4.21a24.72,24.72,0,0,0,1.57,8.09,102,102,0,0,0,4.24,9.54c1.11,2.28,2.15,4.58,3.1,6.89a37.2,37.2,0,0,1,2.9,14.64,106.08,106.08,0,0,0,1,15.91c.26,1.84.27,3.7.39,5.56C748.53,551.21,748.55,551.62,748.59,552.4ZM704.51,622c.29-.16.52-.22.58-.33.95-1.77,1.88-3.55,2.81-5.33a1.36,1.36,0,0,0,0-1.21c-.34-.89-.68-1.78-1-2.69A62.72,62.72,0,0,0,698,594c-2.45-3.53-5.13-7-7.77-10.41s-5.2-6.58-7.75-9.89a105.79,105.79,0,0,1-8-11.89,29,29,0,0,1-3.5-9.21c-.32-1.73-.56-3.48-.8-5.23a45,45,0,0,0-1.51-7.65,19.19,19.19,0,0,0-3.77-6.84c-1.11-1.31-2.31-2.57-3.44-3.87-1.68-1.95-3.36-3.9-5-5.88a18.55,18.55,0,0,1-4.22-9.15,2.56,2.56,0,0,0-.32-.67,16.79,16.79,0,0,0-4.66,2.51c.14.35.28.75.45,1.14,1.5,3.43,3,6.87,4.54,10.29a35.2,35.2,0,0,1,3.41,16.28,30.33,30.33,0,0,0,.54,6.64,18.31,18.31,0,0,0,4.23,8.66,51.74,51.74,0,0,0,5.08,5.07c2.32,2.05,4.66,4.09,6.92,6.17a27.64,27.64,0,0,1,6.87,9.47c.49,1.13,1,2.26,1.45,3.4.65,1.58,1.28,3.16,1.92,4.74a25,25,0,0,0,4.32,7c1.42,1.65,2.91,3.26,4.4,4.88s3.31,3.43,4.83,5.22c4.26,5,7.12,10.35,8,16.27A5.68,5.68,0,0,0,704.51,622Zm56.06-75.11a8.27,8.27,0,0,0,1.07-.25c1-.41,2.05-.85,3.09-1.25a141.6,141.6,0,0,0,22.91-11.34c4.44-2.69,8.87-5.4,13.38-8,3.68-2.17,7.44-4.27,11.22-6.35a90.53,90.53,0,0,1,21.18-8.27c.32-.08.62-.2.89-.29-.13-1.43-.8-3.14-3-7.75a2.89,2.89,0,0,0-1.07-1.56c-.82.25-1.63.53-2.46.75-4.61,1.24-9.21,2.48-13.83,3.68A94.78,94.78,0,0,0,795.4,513c-1.49.74-3,1.49-4.48,2.22-3.23,1.58-6.47,3.14-9.69,4.74a2.14,2.14,0,0,0-.83.83c-1,1.66-1.86,3.34-2.82,5a91.68,91.68,0,0,1-7.5,11,76.8,76.8,0,0,1-8.3,8.67A3.67,3.67,0,0,0,760.57,546.91Zm47.8,167.25c-.7-.16-1-.27-1.33-.31-2.93-.37-5.78-1-8.62-1.61-.73-.16-1.47-.28-2.22-.38l-8.13-1.12c-5.08-.71-10.17-1.36-15.3-1.83-7.68-.69-15.38-.92-23.1-.9a171.38,171.38,0,0,1-33-2.61c-3.41-.66-6.76-1.43-10.06-2.36-5.61-1.58-11.08-3.41-16.5-5.34a138.47,138.47,0,0,1-16.53-7c-3.64-1.87-7.27-3.75-11-5.55a63.51,63.51,0,0,0-13.33-4.88c-3.25-.76-2.46-.82-5.17.72-.46.27-1.13.43-1.17,1a2.82,2.82,0,0,0,.49.25l4.84,1.36a135.49,135.49,0,0,1,20.08,7.25c4.17,1.9,8.28,3.9,12.44,5.82a166.59,166.59,0,0,0,26.53,9.66c4.67,1.25,9.43,2.32,14.16,3.45a171.25,171.25,0,0,0,22.84,3.54c6.21.62,12.44,1.16,18.65,1.8a96,96,0,0,1,18.95,3.7c3.57,1.12,7.06,2.34,9.84,4.46a4.61,4.61,0,0,0,.71.31A107.63,107.63,0,0,0,808.37,714.16ZM695.28,643.25c.6-.16,1-.25,1.45-.38,2.94-.89,5.84-1.85,8.81-2.67,5.24-1.46,10.65-2.51,16.07-3.51,10.52-1.94,21.21-3.17,31.94-4.22,8.68-.85,17.33-1.82,25.9-3.18A309.11,309.11,0,0,0,815.82,621c10.43-3,20.88-5.92,31.16-9.2a45.86,45.86,0,0,1,9.07-2.08c.11,0,.21-.12.41-.24a9,9,0,0,0-.46-2.21,11.89,11.89,0,0,0-.45-1.24c-.42.07-.75.11-1.06.19a90,90,0,0,0-10.24,3.31,184.81,184.81,0,0,1-18,5.85c-4.64,1.19-9.37,2.11-14.09,3.08A408.15,408.15,0,0,1,769,625c-8.75.87-17.52,1.49-26.29,2.18-6.45.5-12.87,1.09-19.25,2A82.86,82.86,0,0,0,702.67,635a3.92,3.92,0,0,0-1.33.93c-2,2.18-3.85,4.4-5.75,6.61A2.67,2.67,0,0,0,695.28,643.25Zm27.51-51.32,1.4-.82c2.23-1.3,4.4-2.66,6.7-3.88A80.25,80.25,0,0,1,751,580.18c6-1.34,12.15-2.3,18.33-3.13,4.61-.62,9.22-1.23,13.82-1.91,16.3-2.41,32.48-5.18,48.47-8.57l11.52-2.48c.26-.06.5-.14.84-.24a24.49,24.49,0,0,0-.95-4.46c-.53,0-1,0-1.33.1-4.76.84-9.55,1.62-14.27,2.57-7.65,1.54-15.26,3.21-22.89,4.82a216,216,0,0,1-24.48,3.75c-4.85.45-9.72.82-14.58,1.22-6,.49-12.06,1-18,1.77a83.73,83.73,0,0,0-14.86,3.22,4.2,4.2,0,0,0-2.35,1.62,98.7,98.7,0,0,0-7,11.73A2.65,2.65,0,0,0,722.79,591.93ZM583.26,573.66l-.4-.13c-.35.31-.72.6-1.06.92-1.84,1.67-3.68,3.34-5.5,5-1.26,1.16-2.43,2.38-3.73,3.51a1.88,1.88,0,0,0-.67,2.29c.19.49.29,1,.44,1.51a57.7,57.7,0,0,1,2.37,21.53A34.2,34.2,0,0,0,577,623.64a58.6,58.6,0,0,0,10,16.26,23.48,23.48,0,0,0,2.3,2.39c3.11,2.76,6.16,5.57,9.44,8.22,3.55,2.88,7.35,5.58,11,8.4,7.13,5.48,12.59,11.74,15.62,19.1.76,1.88,1.38,3.78,2.07,5.68.16.43.33.86.53,1.4a17.61,17.61,0,0,0,3.92-2.46c-.83-1.91-1.59-3.73-2.39-5.54-.63-1.42-1.27-2.84-2-4.25a26.66,26.66,0,0,0-5.37-7.48c-2.71-2.6-5.42-5.22-8.33-7.69-2.46-2.09-5.17-4-7.84-5.95a57.14,57.14,0,0,1-7.66-6.49,60.26,60.26,0,0,1-13-19.76,76.29,76.29,0,0,1-4.65-20.42,79.81,79.81,0,0,1,.78-22.25c.5-2.66,1.12-5.3,1.67-7.95C583.19,574.46,583.21,574.06,583.26,573.66Zm251.84-60.3c-.56.18-1.07.32-1.55.51-2.57,1-5.13,2-7.68,3a89.07,89.07,0,0,0-11.77,5.73c-5.16,3-10.31,6-15.42,9.11-3,1.8-5.94,3.68-8.89,5.54a110,110,0,0,1-19,9.32c-2.87,1.12-5.76,2.21-8.62,3.34a12.73,12.73,0,0,1-5.07,1.16,3.46,3.46,0,0,0-2.64,1c-1.22,1.24-2.56,2.43-3.82,3.65a13.33,13.33,0,0,0-.92,1.16c.94-.3,1.51-.46,2-.66,4-1.45,8-2.77,12.13-3.93,2-.57,4-1.15,6-1.7A98.15,98.15,0,0,0,789.44,543c.62-.32,1.25-.65,1.88-1,4.58-2.29,9.14-4.61,13.75-6.87A137.53,137.53,0,0,1,835.33,525c.85-.19,1.72-.34,2.54-.5.14-1.47-.37-4-1.74-8.59A5.88,5.88,0,0,0,835.1,513.36ZM629,690.62c.36,2,.68,3.9,1.07,5.83a24,24,0,0,0,3.72,8.5,47.94,47.94,0,0,0,16.68,15c6.47,3.68,13.69,6.34,21.05,8.82a11.94,11.94,0,0,0,1.32.24,8.85,8.85,0,0,0-.92-.77c-3.39-2-6.34-4.43-9.42-6.72a25.31,25.31,0,0,1-4.5-4.24c-1.71-2.11-3.41-4.24-5-6.41-4.66-6.27-9.24-12.57-13.91-18.83a36.49,36.49,0,0,0-3.28-3.57,3,3,0,0,0-1.87-1.07A59,59,0,0,0,629,690.62ZM740,560.65a4,4,0,0,0,.61-.3c.76-.73,1.45-1.5,2.27-2.2,1.32-1.12,2.25-2.33,2.08-3.88a.27.27,0,0,1,0-.15,17.3,17.3,0,0,0,.25-6.33c-.31-2.41-.8-4.82-1-7.23q-.63-6.1-1-12.21a36.55,36.55,0,0,0-2.44-11.44c-1.09-2.72-2.28-5.41-3.45-8.12s-2.35-5.18-3.4-7.8a23.11,23.11,0,0,1-1.37-13.32,5.14,5.14,0,0,0,0-1.08,28,28,0,0,0-4.23,1.17,10.19,10.19,0,0,0-.15,1.07,43.24,43.24,0,0,0,2.38,16.26c.67,1.79,1.3,3.59,2,5.38a57.53,57.53,0,0,1,2.39,8.79,75.45,75.45,0,0,1,1.19,14.36,55.11,55.11,0,0,0,2,15.53,43.2,43.2,0,0,1,1.71,10C739.84,559.58,740,560,740,560.65Zm44.35-69.39.38.05a6.92,6.92,0,0,0,.28-.88c.53-3,1-6,1.59-9,.65-3.26,1.4-6.51,2.22-9.74a43.4,43.4,0,0,1,3-8.2c.13-.27.38-.56-.07-.92a11.48,11.48,0,0,0-1.18.46q-7.73,3.87-15.41,7.77a6.65,6.65,0,0,0-.88.62c.46,1.51.83,3,1.35,4.42a15.51,15.51,0,0,0,1.41,2.9c1.44,2.34,3,4.65,4.49,7a21.21,21.21,0,0,1,2.45,4.75A9.28,9.28,0,0,0,784.39,491.26Z"/><path class="cls-5" d="M460.54,618.12c-7.53-4.53-15.16-8.56-22.93-12.42-4.37-2.16-8.76-4.22-13.18-6.25q-9.49-4.38-19-8.47c-5.45-2.34-10.88-4.59-16.31-6.85-17.63-7.33-35.1-13.78-52.73-20.29-1.2-.44-2.38-.89-3.57-1.34a9,9,0,0,1-.91-.42,3.52,3.52,0,0,1,1.53-.27,41.92,41.92,0,0,0,8.21-1.51,36.46,36.46,0,0,0,4.76-1.77c4.06-1.89,6.71-4.23,8-7.18a19.16,19.16,0,0,0,1-11.25,45.8,45.8,0,0,0-4.74-13.77,68.11,68.11,0,0,0-9.9-13.79c-6.31-7-15-14.23-26.33-21.28A248.94,248.94,0,0,0,285.83,476a226,226,0,0,0-64.16-18.23c-7.36-.94-14.71-1.55-22-1.76q-9.7-.27-19.34,0c-4.22.12-8.36.43-12.55.72a188.59,188.59,0,0,0-21.12,2.64,91.37,91.37,0,0,0-15,4,74.25,74.25,0,0,0-15.32,7.78A117,117,0,0,0,101,483.37a189.19,189.19,0,0,0-18.83,20.46c-4.63,5.82-9,11.87-13.3,18.07-5.08,7.27-10.38,14.66-15.25,22.36a88.21,88.21,0,0,0-8.81,17.45A62,62,0,0,0,44,601.26a108.35,108.35,0,0,0,5.28,13.29c2.87,6.29,6.23,12.46,9,18.93.36.83.84,1.63,1.28,2.43a1.5,1.5,0,0,0,1.22.79,4,4,0,0,0,1.09,0c1.53-.29,3.08-.5,4.53-.91,5.81-1.62,11.54-3.16,17.24-4.5A104.19,104.19,0,0,1,103,628.44a155.68,155.68,0,0,1,18.23.25c7,.51,13.77,1.46,20.4,2.57a227.48,227.48,0,0,0,46.06,3.07,133.71,133.71,0,0,0,28.07-3.87,164.52,164.52,0,0,0,17.37-5.52,76.05,76.05,0,0,1,17.23-4.1l8.79-1a155.63,155.63,0,0,0,22.57-4,74.79,74.79,0,0,0,9.85-3.27,107.07,107.07,0,0,0,16-8.42,66.52,66.52,0,0,0,11.17-8.89,137.26,137.26,0,0,0,9.66-10.54,19.21,19.21,0,0,0,2.67-4.15,20.09,20.09,0,0,0,1.83-7.64,16.62,16.62,0,0,0-1.62-8.14c0-.07.08-.13.15-.24.47.15.9.28,1.33.43,3.8,1.29,7.57,2.64,11.34,4,7.43,2.69,14.92,5.29,22.39,8,12.25,4.54,24.37,9.34,36.69,14.39q8.55,3.5,17,7.29,4.93,2.21,9.83,4.45c3,1.37,6,2.83,8.93,4.28,4.17,2,8.32,4.18,12.43,6.4,3.48,1.89,6.91,3.79,10.34,5.83,0-.27.05-.53.08-.8Z"/><path class="cls-4" d="M584.9,837.71l-.21-.3c-.55-.76-1.12-1.55-1.75-2.29-2.72-3.22-5.35-6.55-7.89-9.78l-1.68-2.13c-2.41-3.05-5-6.26-7.92-9.83l-2.71-3.31c-5.81-7.12-19.43-23.78-21.48-26.18s-4.28-4.95-6.79-7.73-4.91-5.41-7.26-7.92c-1.54-1.63-3.15-3.26-4.7-4.84l-1.44-1.47c-.86-.87-1.86-1.89-2.89-2.87a1.08,1.08,0,0,1-.32-1.37,31.24,31.24,0,0,0,2-8.26,70.46,70.46,0,0,0,.4-9.89,118.49,118.49,0,0,0-2.73-23.09c-1.27-6.14-2.44-11.28-4-16.43a94.8,94.8,0,0,0-9.48-21.3,58.54,58.54,0,0,0-4.93-7.12,34,34,0,0,0-4.55-4.68,10.12,10.12,0,0,0-2.37-1.52,6.22,6.22,0,0,0-1.56-.47,2.76,2.76,0,0,0-2.59.86,3,3,0,0,0-.7,1.48,10.41,10.41,0,0,0-.15,1.82,20.15,20.15,0,0,0,.49,4,95.73,95.73,0,0,0,2.64,9.51q1.49,4.63,3,9.27c.83,2.55,1.66,5.09,2.48,7.64.68,2.12,1.34,4.24,2,6.37,1.12,3.58,2.28,7.28,3.5,10.91,1.37,4,2.83,8.1,4.24,12q1.37,3.78,2.69,7.56c1.86,5.3,3.46,10,4.9,14.33A34.29,34.29,0,0,1,514,754c.1.44.2.88.31,1.32l-.72-.68c-.57-.53-1.15-1.07-1.73-1.59l-2.07-1.81c-2.55-2.25-5.2-4.58-7.85-6.83-3-2.58-6.15-5.07-9.28-7.41q-2.11-1.59-4.26-3.16l-1.87-1.38a2.33,2.33,0,0,1-.79-.82c-.62-1.27-1.25-2.53-1.88-3.8-1.13-2.28-2.31-4.64-3.39-7-.88-1.88-1.67-3.83-2.43-5.71-.34-.83-.67-1.66-1-2.49-2-4.87-4.53-10.14-7.89-16.58-1.77-3.4-3.63-6.84-5.43-10.17-1.14-2.1-2.27-4.21-3.4-6.31-3.52-6.6-6.64-12-9.83-17.16a76.8,76.8,0,0,0-6-8.33,36,36,0,0,0-7.46-6.87,27.07,27.07,0,0,0-2.7-1.54,6.36,6.36,0,0,0-2.3-.66,3.86,3.86,0,0,0-4.56,3.38,14.31,14.31,0,0,0-.11,2.46,22.77,22.77,0,0,0,.84,4.76,54.41,54.41,0,0,0,4.92,11.86,134.23,134.23,0,0,0,11.53,17.67l1.78,2.31c2.11,2.72,4.29,5.55,6.37,8.35,2.52,3.4,5,6.89,7.43,10.27l1.06,1.47c2.63,3.68,5.51,7.62,8.76,11.46,1.27,1.5,2.5,3,3.74,4.54l.62.76c-6-3.75-11.73-7-17.5-10-1.35-.7-2.7-1.39-4.07-2.07a1.62,1.62,0,0,1-.79-.62,45,45,0,0,0-4-6l-.19-.25c-2.65-3.55-5.3-7.47-8.08-12-3.06-4.95-5.78-9-8.56-12.76-2.3-3.11-4.55-5.87-6.87-8.44a136.14,136.14,0,0,0-15.71-14.76c-1.95-1.57-4.11-3.15-6.79-5-3.18-2.15-6.54-4.26-10.3-6.46a52.67,52.67,0,0,0-8.59-4.18c-.86-.31-1.8-.62-2.89-.94a12,12,0,0,0-1.69-.35,8.19,8.19,0,0,0-1.55,0,3,3,0,0,0-1.83.71,1.52,1.52,0,0,0-.41,1.46,4.39,4.39,0,0,0,.59,1.45,16.47,16.47,0,0,0,1.41,2c1.78,2.16,3.62,4.4,5.55,6.62s3.69,4.18,5.5,6.1c1.66,1.76,3.39,3.52,5.08,5.23l1.14,1.15c1.44,1.46,2.9,2.92,4.35,4.37l1.31,1.31c.88.89,1.77,1.78,2.67,2.66l5.36,5.19,1.82,1.77c5.32,5.16,10.2,9.69,14.91,13.83,2.69,2.38,5.68,4.8,9.68,7.86,1,.76,2,1.49,3.05,2.23l1.35,1,.18.13-1.79-.77c-1.86-.81-3.71-1.62-5.59-2.4-6.81-2.85-14.17-5.56-22.49-8.27-7.41-2.42-15-4.7-22.58-6.79a230.23,230.23,0,0,0-33.31-6.45c-6.66-.81-11.77-1.27-16.56-1.51a126.14,126.14,0,0,0-18.14.38c-2.91.28-5.85.72-8.74,1.29a22,22,0,0,0-3.89,1.09,9,9,0,0,0-2.14,1.16,2.28,2.28,0,0,0-1,1.79,2.54,2.54,0,0,0,1.17,1.93,6.7,6.7,0,0,0,1.44.79c.83.35,1.68.66,2.51.92a105.7,105.7,0,0,0,14.32,3.41,373.62,373.62,0,0,0,37.77,4.47c4.92.34,9.94.66,14.79,1l4.9.31c12.17.76,22.08,1.74,31.18,3.06.48.07,1,.14,1.44.19a101.11,101.11,0,0,1,14.73,2.9,3.06,3.06,0,0,1,.59.17l4.29,1.8-2.08-.24c-1.9-.22-3.87-.45-5.81-.63a55.18,55.18,0,0,0-13,.3c-1.63.23-3.37.49-5.06.86-4.19.9-8.44,1.86-12.62,2.83-12,2.79-24.11,5.85-35.81,8.81l-6.16,1.56a111.75,111.75,0,0,0-12.12,3.71,57.29,57.29,0,0,0-9.05,4.31,22.17,22.17,0,0,0-2.48,1.76,5.54,5.54,0,0,0-1.13,1.26c-.89,1.37-.48,2.78,1.11,3.78a10.82,10.82,0,0,0,4.38,1.54,30.84,30.84,0,0,0,3.39.26,41.88,41.88,0,0,0,7-.47c4.61-.66,9.52-1.64,15.43-3.06a137.56,137.56,0,0,0,14.16-4.23c5.58-2,11.29-4,16.82-5.91l6.25-2.18c2.77-1,5.64-2,8.5-2.89,5.58-1.76,11.59-3.23,16.41-4.42a140.52,140.52,0,0,1,14.68-2.75c.67-.08,1.32-.22,2-.34l.86-.17.37-.08.43-.08a3.55,3.55,0,0,1,2.19.25c1.31.64,2.62,1.26,3.94,1.89,1.71.82,3.43,1.63,5.13,2.47,4.76,2.35,9.6,5,14.38,7.77a67.86,67.86,0,0,0-21.3.06c-4.34.72-8.54,1.62-11.72,2.32-5.4,1.2-10.74,2.42-14.79,3.35-5.34,1.23-10.69,2.19-15.89,2.85l-6.9.87-11.64,1.47c-5.06.64-9.65,1.43-14.05,2.4a45.08,45.08,0,0,0-8.61,2.64,29.72,29.72,0,0,0-7,4.07,7.08,7.08,0,0,0-1.6,1.8c-1,1.67-.44,3.38,1.44,4.58a9.75,9.75,0,0,0,3.05,1.28c1.45.33,2.57.55,3.64.7a53.87,53.87,0,0,0,11.82.22,118.43,118.43,0,0,0,17.26-2.79c3.56-.82,7.08-1.85,10.48-2.84l2.46-.71c4.31-1.24,8.61-2.61,12.78-3.94,2.16-.69,4.31-1.37,6.47-2l4.94-1.53c3.45-1.06,6.89-2.12,10.32-3.21,1.6-.51,3.19-1.07,4.73-1.62l3-1a164.2,164.2,0,0,1,18.65-5.22c.46-.1.91-.19,1.37-.27,1.15-.21,2.31-.41,3.46-.6l1.14-.2c.57-.1.67-.08.8.12a.38.38,0,0,0,.2.14,10.78,10.78,0,0,1,2.19,1.25l.54.36.64.42c2.62,1.71,5.34,3.49,7.94,5.29s5.23,3.68,8.11,5.83c3.07,2.3,6.09,4.7,9.23,7.34a49.78,49.78,0,0,0-4.95-.76l-.15,0a119.67,119.67,0,0,0-28.05.24c-4.55.52-9.1,1.2-13.54,2-7.31,1.37-14.88,2.57-23.16,3.66-6.95.92-13.22,2-19.19,3.28a87.66,87.66,0,0,0-11.05,3.07,28,28,0,0,0-3.58,1.55,7.23,7.23,0,0,0-2.38,1.94,4.69,4.69,0,0,0-.7,1.22,2.58,2.58,0,0,0,.83,3,8.09,8.09,0,0,0,2.07,1.37,22.51,22.51,0,0,0,5.27,1.7,35.19,35.19,0,0,0,4.9.64,81.15,81.15,0,0,0,12.29-.15c3.1-.29,6.42-.69,10.43-1.26,4.38-.62,9.1-1.4,14.4-2.37a129.66,129.66,0,0,0,14.3-3.43c8.23-2.49,14.91-4.63,21.11-6.8,3.14-1.09,6.38-2.21,9.62-3.23a52.28,52.28,0,0,1,9.2-2c.8-.11,1.6-.26,2.36-.41l1.15-.21.16,0c.28,0,.6-.07.83-.11,1.26,0,1.26,0,2.12.69,3.38,2.88,6.86,6,10.66,9.67,3.35,3.19,6.57,6.43,9.58,9.63l1.32,1.37,1.06,1.11.19.18a168.13,168.13,0,0,0-22.91-2.34c-4.69-.2-9.62-.45-15.52-.79s-11.33-.5-16.32-.46l-4.23,0c-4.35,0-8.84,0-13.27.26a119.62,119.62,0,0,0-20.37,2.54,63.41,63.41,0,0,0-8.89,2.57,12.39,12.39,0,0,0-2.59,1.27l-.17.11c-.13.09-.26.17-.38.27a2.62,2.62,0,0,0-1.23,2.12,2.67,2.67,0,0,0,1.35,2.05,12,12,0,0,0,1.88,1,15.06,15.06,0,0,0,3.64,1.16c1.16.23,2.42.45,3.66.59a68,68,0,0,0,12.53.27l5.17-.4c9.71-.74,19.75-1.51,29.6-2.5,10.17-1,20.37-1.93,30.32-2.68l2.08-.16c3.48-.26,7-.53,10.43-.81,1.61-.14,3.24-.33,4.81-.52l.78-.09c.51-.06,1-.15,1.47-.23L526,774a3.12,3.12,0,0,1,1.86,1.26l.07.06c.73.83,1.47,1.66,2.21,2.48q1.43,1.59,2.84,3.19,2.82,3.22,5.6,6.47c1.18,1.38,8.85,10.76,15,18.29l7.42,9.06c1.28,1.54,2.56,3.09,3.82,4.64l4.24,5.16c1.84,2.24,3.74,4.57,5.66,6.83a58.32,58.32,0,0,0,6.3,6.27c.42.37.9.75,1.5,1.19a3.51,3.51,0,0,0,1.53.67l.41,0a1.15,1.15,0,0,0,.66-.21.64.64,0,0,0,.23-.73A3.72,3.72,0,0,0,584.9,837.71ZM489.59,668.44l.21.37c.42.78.85,1.58,1.23,2.38l.68,1.46c.89,1.9,1.82,3.87,2.59,5.83,1.63,4.16,3.19,8.42,4.7,12.53l1,2.67c.57,1.59,1.17,3.23,1.9,4.83a118.67,118.67,0,0,0,6.52,12.07,18.18,18.18,0,0,1,2.1,4.95,42.07,42.07,0,0,1,1.28,8.86v.26c0,1.33.07,2.71.19,4.06s.24,2.56.35,3.84c.27,3.22.55,6.54,1,9.82-.67-2-1.4-3.94-2.11-5.86l-.66-1.76q-.9-2.46-1.82-4.92c-1.55-4.13-3.14-8.41-4.59-12.63-2.35-6.89-4.66-13.9-6.9-20.69-1-3-2-6-3-9-1.64-4.94-2.79-8.76-3.73-12.4a29.65,29.65,0,0,1-1-5.2A14.82,14.82,0,0,1,489.59,668.44Zm18,37.26-.6-1.09a52.14,52.14,0,0,1-5.75-15.06c-.46-2.29-1-4.6-1.51-6.84-.23-1-.46-2-.68-3a29.7,29.7,0,0,0-3.48-8.53c.45.52.89,1,1.31,1.57a57.64,57.64,0,0,1,4.68,7.12,93.06,93.06,0,0,1,9.5,23.49c1.39,5.45,2.49,10.92,3.47,16A111.28,111.28,0,0,1,516.65,742c0,.71,0,1.44-.06,2.16-.19-1.12-.37-2.25-.58-3.37a144.93,144.93,0,0,1-2.32-16.92,48.92,48.92,0,0,0-1.65-9.2,19,19,0,0,0-2-4.66C509.19,708.56,508.4,707.13,507.6,705.7ZM448,680.08c4.24,6.5,8.83,13.45,13.77,20.32,2.74,3.81,5,7.24,7,10.49a90.49,90.49,0,0,1,4.41,8c-3.6-4.55-7-9.16-10.73-14.29-2.85-3.91-5.75-7.61-9.25-12.05l-2-2.55c-1.84-2.33-3.74-4.73-5.55-7.12a111.46,111.46,0,0,1-11.85-19.51A44.42,44.42,0,0,1,430.23,653a13.59,13.59,0,0,1-.33-3.51,9.36,9.36,0,0,1,.24-1.37l0-.09a59.21,59.21,0,0,1,4.61,6.72,103.32,103.32,0,0,1,5.51,10.87A102.84,102.84,0,0,0,448,680.08Zm15.28,19.29c-1.69-2.55-3.43-5.18-5-7.81-4.24-7-8.38-14.77-13.05-24.36A97,97,0,0,0,439,655.91a50.87,50.87,0,0,0-7.41-9l.14,0a4.92,4.92,0,0,1,1.73.67,29.59,29.59,0,0,1,6.23,5.05,46,46,0,0,1,5.1,6.43,131.27,131.27,0,0,1,6.89,11.31c4.52,8.36,9.17,17.08,13.8,25.9a166,166,0,0,1,8.39,18.18,91.67,91.67,0,0,0,6.5,13.57,2.65,2.65,0,0,1-.28-.43c-.28-.52-.58-1-.88-1.54s-.42-.73-.62-1.1l-.73-1.28c-.6-1-1.21-2.1-1.74-3.18-1.28-2.63-2.83-5.42-4.89-8.79s-4.35-7-7.22-11.33Zm-79.33-50.69a78.19,78.19,0,0,1,6.69,5.81c1.77,1.73,3.51,3.49,5.19,5.25,1.11,1.17,2.2,2.37,3.25,3.54l1.07,1.19c.71.8,1.43,1.59,2.14,2.38,1.42,1.59,2.85,3.18,4.31,4.75s2.86,3,4.3,4.53c1,1,1.92,2,2.87,3,2.14,2.26,4.58,4.64,7.66,7.49,1.1,1,2.2,2,3.32,3,2.91,2.63,5.93,5.35,8.57,8.21l2.54,2.78c-.81-.64-1.62-1.29-2.4-2q-4.33-3.64-8.62-7.34c-4.27-3.66-9.3-8-14.3-12.65l-2.12-1.94c-1.81-1.67-3.68-3.39-5.47-5.11s-3.59-3.5-5.37-5.26L394,662.85c-2.09-2-4.16-4.24-6.52-7-2.09-2.4-4.28-5-6.91-8.17-.77-1-1.5-1.94-2.21-2.9-.18-.26-.37-.51-.55-.76.74.52,1.49,1,2.21,1.58.9.68,1.79,1.37,2.67,2.06Zm42,38.92c-1.74-1.76-3.44-3.47-5.09-5.21-1.43-1.51-2.86-3.07-4.25-4.65-1.12-1.27-2.21-2.55-3.31-3.83-.65-.76-1.29-1.52-1.95-2.27l-2.61-3c-1.24-1.43-2.48-2.85-3.7-4.29-2.32-2.71-5.05-5.85-8.12-8.8a86.3,86.3,0,0,0-8-7c-1.27-.94-2.56-1.84-3.66-2.6a53.51,53.51,0,0,0-4.85-3,36.16,36.16,0,0,1,5.61,2.37c3.69,2,7.17,4.13,10.09,6A101.54,101.54,0,0,1,407.72,660c1.46,1.28,2.91,2.62,4.31,3.91l.78.72c2.57,2.37,5.06,4.92,7.63,7.79,2.28,2.56,4.53,5.34,6.68,8.26,3,4.13,6,8.55,8.74,13.14a97.52,97.52,0,0,0,10,14c.48.56.94,1.12,1.4,1.68l.11.13a4,4,0,0,1-1.1-.73,13.73,13.73,0,0,0-1.41-1.15,12.23,12.23,0,0,1-2.28-2.2l-1.73-2c-1.27-1.49-2.54-3-3.83-4.46a111.12,111.12,0,0,0-7.86-8.28C428,689.67,426.94,688.63,425.91,687.6ZM397,694.41c-2.83-.59-5.16-1.11-7.34-1.62-1.87-.44-3.76-.93-5.6-1.41L383,691.1a166.84,166.84,0,0,0-19.63-3.82,136.7,136.7,0,0,0-20.21-1.34c-1.28,0-2.55,0-3.83.09-1.48,0-2.95.07-4.43.09l-1.93,0c-3.8,0-7.73.09-11.59.06a64.62,64.62,0,0,1-12.91-1.31c-.48-.1-1-.17-1.47-.25l-.83-.13a2.19,2.19,0,0,1,.54-.32,17.51,17.51,0,0,1,3.62-1.17,74.33,74.33,0,0,1,8-1.27,111.2,111.2,0,0,1,19.86-.22c4.59.31,9.51.84,15.48,1.66a206.19,206.19,0,0,1,27.09,5.42c7.13,2,14.62,4.26,24.05,7.38Q400.9,695.22,397,694.41Zm-84.79-7.24c1,.14,2.09.27,3.15.38,3.22.32,6.47.36,9.5.37,5.07,0,10.21-.18,15.19-.36l1.46,0a107.77,107.77,0,0,1,16,.55,124.9,124.9,0,0,1,15.88,2.81c2.63.66,5.18,1.35,8,2.12,6.17,1.69,11.92,3,17.61,4,4.8.83,9.74,1.68,14.5,2.83q-3.09-.46-6.18-.88l-1.55-.22c-1.85-.25-3.76-.52-5.66-.73-6.26-.71-12-1.24-17.62-1.64l-11.53-.8-6.47-.45c-7-.48-14.2-1.15-22.08-2.06a206.6,206.6,0,0,1-21.12-3.41c-3.58-.79-6.56-1.58-9.29-2.45Zm21,44.06,1.53-.2c2-.22,4-.55,6-.95,3.65-.73,7.45-1.68,12-3,3.92-1.12,8.14-2.28,12.41-3.16l2.37-.49q10.47-2.16,20.95-4.28c3.74-.74,7.22-1.46,10.61-2.28-2.15.72-4.33,1.48-6.51,2.24-3.8,1.34-7.63,2.6-11.37,3.74-3.17,1-6.31,2.09-9.34,3.18L368,727.42a129.92,129.92,0,0,1-26.64,6.24,42.47,42.47,0,0,1-5.76.4c-1.05,0-2.18-.06-3.54-.16a6.68,6.68,0,0,1-2.4-.61,9.06,9.06,0,0,1-1.1-.61,1,1,0,0,1-.44-.66c0-.09,0-.15,0-.18l1.2-.14,2.72-.32Zm55.38-14c-1.69.31-3.38.65-5.06,1L378,719.27l-7.93,1.55c-3.05.58-6,1.24-8.87,2-3.76,1-7.47,2.14-11.06,3.27l-.31.1a103,103,0,0,1-20.58,4.24c.26-.19.52-.38.79-.56a37.6,37.6,0,0,1,6.8-3.51,74.38,74.38,0,0,1,11.29-3.5l7.05-1.61,8.52-2,33.24-7.8c3.94-.93,7.8-1.82,11.7-2.51a59.48,59.48,0,0,1,7.74-.86c1.39-.05,2.76-.06,4.13,0,1.77.07,3.57.18,5.3.29l.27,0c-1.59.2-3.29.48-5.35.87a204.36,204.36,0,0,0-21.62,5.36A94.27,94.27,0,0,1,388.58,717.2Zm50.39,9a74.43,74.43,0,0,0-14.83,4c-2.48.94-4.91,1.86-7.4,2.71a144.65,144.65,0,0,1-23.19,5.7c-8.4,1.41-16.8,2.51-25.39,3.6-3.4.43-6.81.84-10.22,1.25l-4.59.56a6.51,6.51,0,0,1,1.24-1.06,28.13,28.13,0,0,1,5.37-2.85,44.53,44.53,0,0,1,6.69-2c3.47-.79,7.15-1.42,11.26-2q10.2-1.3,20.43-2.57c6.66-.82,12.67-1.84,18.37-3.11,5.44-1.2,11.75-2.6,17.93-3.92,2.84-.61,5.72-1.17,8.55-1.68a59.24,59.24,0,0,1,8-.85C447.46,724.75,443.23,725.55,439,726.22Zm-86.33,19.19,1.08-.12c.89-.09,1.79-.19,2.68-.26,5.74-.45,11.32-1.13,16.5-1.79,6.15-.8,13.13-1.7,19.9-2.79a148.9,148.9,0,0,0,29.49-7.73l.46-.18c1.62-.62,3.24-1.24,4.87-1.83a62.9,62.9,0,0,1,12.64-3c2.55-.37,5.09-.77,7.63-1.17l2.58-.41,1.32-.21c-3,.82-6.07,1.77-9.42,2.88-1.1.36-2.2.77-3.26,1.15s-2.28.84-3.44,1.22c-4.56,1.48-9.52,3.07-15.63,5-9.1,2.86-17.33,5.41-25.84,7.8a124.54,124.54,0,0,1-19.64,4,79.13,79.13,0,0,1-10.77.54,40.3,40.3,0,0,1-7.34-.82,9.22,9.22,0,0,1-2.58-.86,4.35,4.35,0,0,1-1-.75A.59.59,0,0,1,352.64,745.41ZM468,749.51l-6.41,2.21-5.44,1.87c-6.23,2.13-11.08,3.58-15.73,4.7a128.31,128.31,0,0,1-18.57,3.19l-3.71.35c-2.8.26-5.6.52-8.4.76l-8.49.69-4.72.37h-.2a6,6,0,0,0-1.09.15,1.48,1.48,0,0,1-1.32-.27,6.5,6.5,0,0,1-.66-.47.84.84,0,0,1-.24-1.28,2.65,2.65,0,0,1,.67-.71,15.24,15.24,0,0,1,1.92-1.12c.53-.25,1.13-.46,1.71-.67l.26-.09a83.4,83.4,0,0,1,11.1-2.9c6.38-1.26,12.78-2.14,17.66-2.77L431,753q2.85-.35,5.67-.72c4.19-.55,8.38-1.31,12.43-2l2-.36A188.74,188.74,0,0,1,473.5,747c.54,0,1.09-.06,1.64-.08l3.71-.12A66.15,66.15,0,0,0,468,749.51Zm-68,15.33c2.12-.13,4.24-.26,6.37-.37,5.7-.27,11.6-.68,17.54-1.22,3.61-.32,6.55-.71,9.25-1.21,5.47-1,10.31-2.12,14.81-3.37,6.32-1.74,12.44-3.85,17.06-5.49l.27-.09c2.77-1,5.64-2,8.59-2.76a64.82,64.82,0,0,1,12.55-2l-.22.06c-1,.28-2,.56-3,.88-2.37.78-4.76,1.61-7.07,2.41l-1.1.38c-6,2.08-12.64,4.22-20.86,6.73-4.81,1.46-9.19,2.58-13.42,3.42-4.49.89-9.81,1.89-15.24,2.67-3.58.51-6.57.89-9.42,1.2a60.87,60.87,0,0,1-10.65.22,36,36,0,0,1-7.58-1.22h0l-.2-.06h0Zm74.89,7.61c-5.67.19-11.43.46-17,.73l-.94,0c-5.84.28-11.72.86-17.41,1.42l-2,.19c-6,.59-10.94,1.21-15.49,1.94-.35.06-.45,0-.63-.2-.06-.08-.14-.19.16-.42a3.54,3.54,0,0,1,.67-.38c.73-.31,1.34-.56,2-.78a75.28,75.28,0,0,1,10.59-2.65,103.53,103.53,0,0,1,14.64-1.58c.77,0,1.55-.06,2.34-.08,3.48-.08,7-.11,10.45-.14l4.74,0c6.21-.07,12.76.1,19.46.51,2.67.17,5.39.28,8,.4l3.7.16.4,0,4.54.21c-2.44,0-4.87.09-7.26.15l-6.92.15C484.3,772.2,479.55,772.3,474.88,772.45Zm-50.14,5.37c1.41-.18,2.83-.36,4.25-.52l2.35-.22,2.16-.21c4.09-.43,8.27-.74,12.31-1l5.52-.43c.76-.06,1.51-.09,2.28-.13h.33c8.11-.39,16.4-.55,24.4-.71l3.57-.07c4.5-.09,9-.15,13.51-.22l6.38-.09c-3.8.28-7.73.58-11.58.91-5.21.44-10.78,1-18.06,1.68-7,.69-14.16,1.25-21.08,1.8l-7,.56c-1.21.1-2.42.2-3.64.28a58.2,58.2,0,0,1-12.85-.55,20.67,20.67,0,0,1-3.72-.91Z"/><path class="cls-4" d="M503.68,639.2c-3.81-.71-7.63-1.4-11.39-2.24-8.4-1.87-16.78-3.82-25.15-5.76q-30.54-7-61.35-13.33c-23.54-4.81-46.8-10.27-70.12-15.63A123.55,123.55,0,0,1,312,594.15c-2.21-1-4.3-2.16-6.36-3.33a23.15,23.15,0,0,1-5.56-4.3,19.55,19.55,0,0,1-2.4-3.06c-1.86-3.1-.32-5.93,3.85-7.23.46-.14.94-.25,1.41-.38a30.66,30.66,0,0,1,6.15-.82,139.85,139.85,0,0,1,19.74.47A244.64,244.64,0,0,1,370.69,583c11.51,3,22.7,6.67,34,10.12,10.53,3.22,20.77,6.89,30.86,10.8q14.46,5.63,29.08,11a293.53,293.53,0,0,1,41.72,18.59.93.93,0,0,0,1.16.1,3.31,3.31,0,0,0-.3-1.77c-.59-2-1.21-3.9-1.78-5.86q-3.57-12.29-8-24.42c-3.08-8.46-6.37-16.86-10.06-25.18-1-2.17-1-2.25-3.88-3a15.5,15.5,0,0,0-2.18-.37c-2.47-.32-5-.51-7.4-1a116,116,0,0,0-20.09-1.8c-7.43,0-14.85.17-22.28.36-15.93.42-31.87.41-47.81.22a288.73,288.73,0,0,1-31.15-2.12c-10.14-1.23-20.24-2.59-30.29-4.21-7.18-1.16-14.33-2.42-21.4-3.94a148,148,0,0,1-23.66-7.15,60.28,60.28,0,0,1-8.63-4.15,35.41,35.41,0,0,1-8.12-6.34,11.86,11.86,0,0,1-2.38-3.7,4.88,4.88,0,0,1,1.49-5.66,12.68,12.68,0,0,1,2.51-1.81,19.25,19.25,0,0,1,6.34-2.16,67.55,67.55,0,0,1,8.43-.78,196.07,196.07,0,0,1,24.49.82c13.61,1.23,27.08,3.09,40.43,5.37,16.13,2.76,32.34,5.18,48.68,7.1q14.24,1.68,28.21,4.34c19.05,3.63,37.3,8.71,54,16.57a79.56,79.56,0,0,1,9.83,5.17,7.26,7.26,0,0,0,1,.37,5.28,5.28,0,0,0-.17-.92c-3.14-6.94-6.51-13.81-10.19-20.59q-4.44-8.18-9.28-16.21c-3.31-5.47-6.85-10.86-10.36-16.26a21.51,21.51,0,0,0-3.64-4.89c-.06-1.11-1.18-1.22-2.27-1.36-3.2-.42-6.41-.85-9.62-1.26-1-.12-2-.22-3-.31a370.16,370.16,0,0,0-41.74-1.33c-5.92.11-11.84.4-17.76.41-11.52,0-23-.12-34.55-.18-14.52-.08-29,.13-43.56-.23-9.59-.23-19.19-.32-28.75-1a248.75,248.75,0,0,1-36.12-5.14,98.43,98.43,0,0,1-22.3-7.55c-2.15-1.07-4.18-2.28-6.16-3.52a14.18,14.18,0,0,1-4.27-4.13c-2.14-3.19-1.43-6.46,2-8.9a18.76,18.76,0,0,1,4.79-2.36,77.18,77.18,0,0,1,17.6-3.54,104.69,104.69,0,0,1,19.23.15c10,.85,19.82,2.22,29.58,3.93,12.76,2.24,25.51,4.54,38.27,6.81,11.14,2,22.42,3.36,33.82,4.23q16.07,1.21,32.12,2.57c8.38.71,16.75,1.53,25.05,2.66a126.93,126.93,0,0,1,41.86,13.34c.32.16.66.3,1.24.56a3.86,3.86,0,0,0-1-1.91c-6-8.15-12.47-16.13-19.38-23.88-4.17-4.68-8.52-9.28-12.74-13.93a7.08,7.08,0,0,0-4.52-2.12l-1.74-.18c-2-.23-4-.37-5.93-.71a295.05,295.05,0,0,0-31.39-3.67c-12.15-.77-24.3-1.51-36.49-1.51-8.51,0-17,.32-25.53.55-15.76.42-31.52.79-47.28,1.34a314.41,314.41,0,0,1-31.76-.49c-11.07-.74-22.08-1.77-33-3.5a82.2,82.2,0,0,1-13.8-3.32,55.77,55.77,0,0,1-6.15-2.52,16.19,16.19,0,0,1-6.44-5.39c-1.79-2.6-1.17-5.23,1.76-7.14a15.64,15.64,0,0,1,3.33-1.64,61.47,61.47,0,0,1,6.55-1.84,141.5,141.5,0,0,1,21.94-2.76,258.38,258.38,0,0,1,27.27.24c30.72,1.74,61.45,3.35,92.1,5.63q13.71,1,27.39,2.24c3.55.32,7.08.86,10.6,1.42a104.07,104.07,0,0,1,25.13,7.28c5.28,2.28,10.41,4.76,15.62,7.14.51.23.95.67,1.71.54,0-.17,0-.31-.11-.39q-4-3.94-8.13-7.86a8,8,0,0,0-1.06-.8c-8-5.34-16.12-10.52-25.36-14.63-.86-.39-1.7-.8-2.53-1.22-18.26-9.19-37.36-17.31-56.82-25-12.19-4.8-24.42-9.57-36.56-14.45a659.11,659.11,0,0,1-67.82-31.61,173.12,173.12,0,0,1-23.77-15.23,49.55,49.55,0,0,1-3.77-3.26,9.8,9.8,0,0,1-1.78-2.24c-1.44-2.62-.33-5.25,3.33-6.36a21.62,21.62,0,0,1,5.1-.89,50.12,50.12,0,0,1,8.49.27q9.18,1,18.13,2.83a237.28,237.28,0,0,1,35.19,10.29c10.39,3.91,20.36,8.36,30.19,13a381.89,381.89,0,0,1,57,32.67q18.57,13,36.09,26.82c12,9.48,23.56,19.29,34.29,29.61,4.05,3.9,8,7.87,12,11.81.3.3.62.58,1,.86a2.67,2.67,0,0,0,.68.09,17.81,17.81,0,0,0-1.52-3.17c-1.67-2.94-3.43-5.85-5-8.81-3.65-6.93-7.12-13.9-10.11-21-5-11.83-9.45-23.75-13.68-35.73q-3.12-8.9-6.26-17.79c-.78-2.24-1.51-4.49-2.26-6.73-1.58-4.8-3.18-9.59-4.73-14.4-1.72-5.35-3.48-10.7-5-16.07-1.46-5-2.76-10.05-4-15.1-1.28-5.36-2.38-10.73-3.49-16.11a28.29,28.29,0,0,1-.52-4.67,8.37,8.37,0,0,1,.4-3c.69-2,2.84-2.93,5.57-2.33a11.54,11.54,0,0,1,2.7,1,17.65,17.65,0,0,1,2.74,1.62c1.55,1.14,3.07,2.31,4.5,3.53a78.14,78.14,0,0,1,11.9,13.18c4.55,6.12,8.84,12.34,12.79,18.69a151.51,151.51,0,0,1,7.66,13.67,207.41,207.41,0,0,1,14.19,37.92,182.11,182.11,0,0,1,4.05,20.4c1.42,9.89,2.17,19.82,2.61,29.76a270.28,270.28,0,0,0,2.56,28.07,77,77,0,0,1,1.29,14.59,3,3,0,0,0,1,2.07q2.82,3.21,5.59,6.45A356,356,0,0,1,462.24,515c.17.24.41.45.91,1a6.5,6.5,0,0,0,.11-1.24c-1-4.82-1.9-9.65-3-14.46-2-9.08-3.28-18.22-4.42-27.37s-2.26-18.56-3.59-27.82c-1.23-8.52-2.71-17-4.11-25.52a225.54,225.54,0,0,1-3-41,102.76,102.76,0,0,1,3.39-25.73,50.07,50.07,0,0,1,3.51-9.59,39.4,39.4,0,0,1,2.83-4.59,10.52,10.52,0,0,1,3.73-3.24,8.19,8.19,0,0,1,7.51-.24,9.47,9.47,0,0,1,3.4,2.46,38.84,38.84,0,0,1,3.47,4.55,54.09,54.09,0,0,1,6.83,17.61,123.77,123.77,0,0,1,2.41,19.6c.67,13,.66,26,.32,39-.33,12.38-.44,24.76-.9,37.14s-1.22,24.5-2.82,36.71c-.78,6-1.75,11.94-2.28,17.93-.69,8-1,16-1.55,24a4.24,4.24,0,0,0,.69,2.35c2.31,4.17,4.64,8.32,6.9,12.49q5.33,9.83,9.79,19.9c3.37,7.54,6.51,15.13,9.7,22.71.89,2.08,1.63,4.2,2.45,6.31.13.34.14.77.95.83a7.83,7.83,0,0,0,.55-1.17c1-3.3,2.13-6.58,2.83-9.91q3.23-15.29,6.14-30.62c2.69-14,5.1-28,8-42,2.49-12.24,5.46-24.43,8.15-36.65,2.64-12,5.15-24,7.81-35.93a192.77,192.77,0,0,1,5.24-19.88,45.51,45.51,0,0,1,3.31-7.87,31,31,0,0,1,2.24-3.35,7.76,7.76,0,0,1,2.68-2.2,5.23,5.23,0,0,1,4.92-.06,8.93,8.93,0,0,1,2.28,1.7,14.19,14.19,0,0,1,2.78,4.18A53,53,0,0,1,566,426.71a98.29,98.29,0,0,1,1.75,16.63A178.91,178.91,0,0,1,562.9,490c-2.66,11.48-6.28,22.79-10.06,34.08A273.7,273.7,0,0,1,533,570.17a179.48,179.48,0,0,1-11.47,18.76,86.21,86.21,0,0,1-12.79,14.56,2.83,2.83,0,0,0-1.06,3.43c.89,2.41,1.67,4.84,2.45,7.28,1.68,5.29,3.42,10.58,5,15.9q2.85,9.81,5.4,19.67c1.64,6.32,3.22,12.66,4.67,19,1.63,7.15,13.1,64.4,14.55,71.57,1.6,7.92,3.14,15.84,4.57,23.78,1.74,9.6,3.37,19.22,5.5,28.78.45,2,.7,4.1,1,6.15a6.15,6.15,0,0,1-.11,2.05c-.19.84-1.13,1-2.07.53a4.71,4.71,0,0,1-1.92-1.94,34.48,34.48,0,0,1-1.58-3.16,88.34,88.34,0,0,1-5.28-15.83c-1.69-7.53-3.16-15.08-4.71-22.62-1.23-5.93-2.41-11.87-3.66-17.8-1.15-5.44-12.28-61-13.51-66.38s-2.47-10.6-3.77-15.89c-1.15-4.68-2.41-9.34-3.58-14-.38-1.55-.7-3.09-2.79-4.23C506.62,639.62,505.13,639.47,503.68,639.2ZM361.82,454.35a3,3,0,0,0-2.69-.13c-.39-.55-1.14-.42-1.76-.46-3.07-.22-6.14-.44-9.22-.59-4.41-.22-8.83-.44-13.24-.55-11-.3-21.94-1.38-32.85-2.52-16.69-1.74-33.4-3.39-50.11-5.06-9.11-.9-18.27-1.24-27.44-1.48-8.76-.23-17.5-.67-26.19-1.57q-6.31-.66-12.52-1.82c-1.86-.35-3.74-.66-5.6-1-2.76-.5-5.5-1-8.48-1.57-.44.06-.65.49-.81.91a2.17,2.17,0,0,0,.19,2,15.15,15.15,0,0,0,1.53,1.92,12,12,0,0,0,4.26,2.86c2.19.9,4.43,1.75,6.72,2.49a87.93,87.93,0,0,0,11.68,2.78,286.37,286.37,0,0,0,58.36,4.25c10.09-.28,20.16-.82,30.26-.72q13,.13,26-.26,9.12-.27,18.25-.42c9.43-.16,18.85.2,28.25.73.9,0,1.82,0,2.73,0a5.44,5.44,0,0,0,2.69.13,1.44,1.44,0,0,0,1.31-.08l.3.24a3.79,3.79,0,0,0-.34-.2Zm3.85.07s.08-.08.13-.09a.59.59,0,0,1,.19,0l.18,0-.06.12a1.15,1.15,0,0,1-.14-.17ZM476.23,630.11c-.57-.48-.57-.48-1.61-.54-.27-.56-1-.61-1.6-.79-3.41-1-6.85-2-10.26-3-13.49-4-26.95-8.12-40.48-12.08-18.18-5.34-36.33-10.76-54.78-15.58-1.73-.46-3.46-.92-5.22-1.32-12-2.69-23.88-5.62-36-8-3.06-.61-6.09-1.32-9.16-1.92-3.8-.74-7.62-1.4-11.43-2.09a10.18,10.18,0,0,0-1.2,0,11.81,11.81,0,0,0,.91,1.06,32.54,32.54,0,0,0,6.56,4.32,106.82,106.82,0,0,0,24.41,9c3.49.85,7,1.61,10.54,2.4,17.81,4,35.58,8.2,53.52,11.9,12.23,2.53,24.45,5.09,36.62,7.77,11.77,2.6,23.46,5.38,35.2,8.07a4,4,0,0,0,2.39.28C475,630,475.61,630.05,476.23,630.11ZM364.24,420c0,.05.21,0,.32.06s0-.13,0-.15a3.92,3.92,0,0,0-.36-.16,15.29,15.29,0,0,0-1.33-1.34c-13.58-10.87-27.39-21.57-41.91-31.75a348.72,348.72,0,0,0-46.41-27c-9.15-4.49-18.46-8.8-28.1-12.68a214,214,0,0,0-38.69-11.73,151.38,151.38,0,0,0-16.95-2.46,41.54,41.54,0,0,0-8.49.05,4.43,4.43,0,0,0-2.53.86,4.53,4.53,0,0,0,.67.57c1.35.73,2.78,1.4,4.08,2.18a115.39,115.39,0,0,0,23.65,10.48c8.65,2.82,17.42,5.44,26.17,8.09,5.34,1.62,10.75,3.09,16.11,4.69a245,245,0,0,1,37.33,14.85,277.19,277.19,0,0,1,33.56,19.28c3.66,2.47,7.31,4.95,11.06,7.34,4.07,2.59,8.22,5.12,12.4,7.61,5.81,3.47,11.69,6.88,17.55,10.29.54.32.95.94,1.88.66C364.23,419.82,364.19,419.94,364.24,420Zm86.62,139.85c-5-1.41-10-2.92-15-4.18a390,390,0,0,0-46.47-8.37c-10.13-1.25-20.28-2.42-30.3-4.14-7.08-1.21-14.13-2.53-21.2-3.77-12.28-2.14-24.61-4.1-37.1-5.43a186.84,186.84,0,0,0-24.71-1.19,46.73,46.73,0,0,0-4.74.26,42.73,42.73,0,0,0-5.06,1,8.8,8.8,0,0,0-2.32,1.08c-1.45.88-1.87,2-1.22,3.36a12.72,12.72,0,0,0,.82,1.37,3.47,3.47,0,0,0,3,1.71A13.45,13.45,0,0,1,269,542c8.87,2,17.72,4.07,26.61,6,8.16,1.81,16.37,3.52,24.56,5.27a277,277,0,0,0,39.4,5.2c11.83.78,23.66.79,35.52.54,9.09-.2,18.18-.45,27.27-.63a141.15,141.15,0,0,1,28.79,2.32c.56.1,1.13.17,1.69.25l.24-.35C452.33,560.38,451.62,560.08,450.86,559.87Zm-70.42-126.3c-2.55-1.62-5.14-3.2-7.66-4.84-8.19-5.36-17-10.13-25.78-14.89a304.42,304.42,0,0,1-29.48-18.31c-4.34-3-8.68-6.06-13.14-9a212.13,212.13,0,0,0-27.65-15.18,200.73,200.73,0,0,0-30.47-10.9c-10.9-3-21.82-6-32.5-9.36a183.3,183.3,0,0,1-17.8-6.47c-3-1.3-5.78-2.74-8.67-4.11a3.92,3.92,0,0,0-1.85-.69c.31.7,1,1.07,1.54,1.51a161.86,161.86,0,0,0,17.25,12,351.85,351.85,0,0,0,37.08,19.51c13.23,6.1,26.64,12,40.34,17.47Q298.32,397,315,403.7c10.88,4.39,21.57,9,32.12,13.87,4.34,2,8.57,4.13,12.83,6.22,3.7,1.82,7.39,3.65,11,5.52,3,1.51,5.89,3.08,8.82,4.63l2.2,1.18.28-.31C381.67,434.39,381.07,434,380.44,433.57ZM366.46,297a66.07,66.07,0,0,1,8,11c1.45,2.39,2.88,4.79,4.2,7.23a127.82,127.82,0,0,1,7.84,18.21,189.61,189.61,0,0,1,6.06,21.85c1.37,6,2.83,11.95,4.23,17.93,1.18,5,2.27,10,3.5,15,.95,3.87,2,7.74,3.14,11.58,1.31,4.4,2.73,8.78,4.16,13.15.89,2.74,1.86,5.46,2.87,8.17a177.93,177.93,0,0,1,6.13,20.7c1.27,5.29,2.44,10.59,3.65,15.89a19,19,0,0,0,2.07,5.78,20,20,0,0,1,1.41,3,9.45,9.45,0,0,0,2.83,3.57c.59-.39.44-.82.36-1.21-.33-1.67-.66-3.34-1.06-5a162.94,162.94,0,0,1-4.11-33,284.91,284.91,0,0,0-2.56-30.7,180.54,180.54,0,0,0-3.91-20.05,172.42,172.42,0,0,0-6.24-19.71c-1.56-4-3.09-8.06-4.8-12.06a149.65,149.65,0,0,0-13.06-23.95,208.42,208.42,0,0,0-13-17.77,55.44,55.44,0,0,0-9.82-9.21,5.1,5.1,0,0,0-2.67-1.32C366.07,296.48,366.24,296.74,366.46,297Zm56.45,205.65c-3-.43-5.9-.84-8.85-1.28-7.12-1.05-14.25-2.06-21.36-3.19a142.81,142.81,0,0,0-27.83-2c-4.16.16-8.32.39-12.48.61a332.1,332.1,0,0,1-65-3.08c-13.85-2-27.59-4.38-41.32-6.78-11.3-2-22.57-4-33.67-6.59-2.7-.62-5.46-1.12-8.2-1.67a1.79,1.79,0,0,0-.85,2.26,7.65,7.65,0,0,0,1.21,2.24,15.43,15.43,0,0,0,4.26,3.4,71.23,71.23,0,0,0,13.44,6.14,152,152,0,0,0,21.5,5.58,268.52,268.52,0,0,0,42.32,4.35c19.43.61,38.87.7,58.3.75,11.85,0,23.69,0,35.53-.06,5.17,0,10.33-.42,15.5-.49,8.93-.1,17.85,0,26.76.46,1,.05,2,.07,3,.1l.18-.36C424.5,502.92,423.71,502.75,422.91,502.63Zm-33-49c-4.59-1.78-9.15-3.63-13.8-5.32a111.48,111.48,0,0,0-24.06-5.64c-8.4-1.07-16.86-1.72-25.34-2.32q-36.25-2.61-72.51-5.25c-11.29-.83-22.57-1.78-33.86-2.64a174,174,0,0,0-25.73-.14A97.46,97.46,0,0,0,177.52,435c-.87.22-1.73.46-2.57.75a6.06,6.06,0,0,0-1.08.67,13.07,13.07,0,0,0,1.29.4,222.79,222.79,0,0,0,44.78,4.47c8.51,0,17,0,25.51.45q9.62.51,19.15,1.62c8.08.92,16.18,1.76,24.27,2.64,5.12.56,10.25,1.08,15.36,1.69a210.24,210.24,0,0,0,23.17,1.48A450.38,450.38,0,0,1,374.76,452c4.71.54,9.38,1.18,14,2.1.62.12,1.26.19,1.9.29,0-.11.07-.21.11-.32A8.6,8.6,0,0,0,390,453.66ZM516.62,576.25c3.88-10.69,9.07-21.07,13.84-31.54,1.29-2.84,2.79-5.63,4.28-8.42a94.38,94.38,0,0,0,7.19-17.95,34.52,34.52,0,0,0,1.37-11,216.16,216.16,0,0,1,.55-27.17c.41-4.44,1.32-8.82,2.1-13.22,1.76-10,3.55-20,5.08-30,.82-5.34,1.16-10.72,1.62-16.08.21-2.49.19-5,.26-7.5a4.62,4.62,0,0,0-.23-.94,6.07,6.07,0,0,0-.9.91c-.76,1.31-1.56,2.63-2.2,4a66.46,66.46,0,0,0-3.82,10.68c-2.45,8.69-4.45,17.44-6.3,26.22-4.43,21.06-9,42.1-13.23,63.18-2.52,12.55-4.53,25.16-6.73,37.74-1.22,7-2.33,14-4,21-.17.73-.27,1.47-.4,2.2l.48.15C516,577.77,516.34,577,516.62,576.25ZM206.5,477.73c10.38,1.9,20.75,3.84,31.15,5.67,17.55,3.1,35.12,6.15,52.87,8.57a325.6,325.6,0,0,0,51.06,3.17c5.75-.13,11.5-.42,17.24-.71a166.3,166.3,0,0,1,32.65,1.38c9.51,1.4,19.08,2.48,28.67,3.52.8.09,1.61.14,2.56.22-.2-.68-.86-.7-1.34-.84a128.05,128.05,0,0,0-20-4.23q-9.13-1.14-18.34-2-19.4-1.77-38.81-3.39c-13-1.1-25.91-2.91-38.67-5.2q-21.07-3.81-42.16-7.52c-7.89-1.38-15.86-2.48-23.92-3.12a103.36,103.36,0,0,0-15.24-.23,72.11,72.11,0,0,0-13.67,2.25,15.44,15.44,0,0,0-5.17,2.22Zm263.74,46.91a166.54,166.54,0,0,1,2.2-30.7A316.25,316.25,0,0,0,476,453.71q1-29.15,1.56-58.32a224.47,224.47,0,0,0-1-26.05,74.19,74.19,0,0,0-2.85-15.6A44.32,44.32,0,0,0,467.13,340a8.42,8.42,0,0,0-2.86-2.57,1.8,1.8,0,0,0-1.72-.22,2.11,2.11,0,0,0,.05.65,81,81,0,0,1,4.56,21.83,172.14,172.14,0,0,1-.25,25.49,547.56,547.56,0,0,0-1.32,54.94c.23,6.87.82,13.74,1.37,20.6.69,8.74,1.28,17.48,1.61,26.23a193.7,193.7,0,0,1-.14,19.87c-.22,3.37-.09,6.75-.1,10.12,0,2,.06,4,0,6a3.79,3.79,0,0,0,1.79,3.48C470.19,525.62,470.25,525.13,470.24,524.64Zm-4.15-19.89a148.72,148.72,0,0,0,.49-21c-.27-8.19-1-16.36-2.06-24.51-2-15.82-3.3-31.67-4.44-47.52a185,185,0,0,1,.82-32.43,187.22,187.22,0,0,0,1.19-24.36,101.32,101.32,0,0,0-1.62-16.08c-.05-.24-.14-.47-.19-.65a.86.86,0,0,0-1.12.27,24.59,24.59,0,0,0-5.65,10.15A88.1,88.1,0,0,0,449,370.85a195.45,195.45,0,0,0,1.62,44.94c1.23,7.76,2.7,15.5,4.09,23.24,1.72,9.61,3.43,19.22,4.73,28.86,1.54,11.45,3.1,22.89,5.18,34.29.17.93.27,1.87.44,2.8a9.79,9.79,0,0,0,.36,1.25l.46,0C466,505.71,466,505.23,466.09,504.75ZM559.38,419a58.89,58.89,0,0,1-2.29,23.11c-2.14,6.76-4.16,13.54-6.44,20.27A102.62,102.62,0,0,0,545.32,495c0,4.07-.08,8.13,0,12.19a35.05,35.05,0,0,1-1.18,10.07,106.87,106.87,0,0,1-6.78,18.63A333.13,333.13,0,0,0,523.43,570c-1.41,4-3,7.94-4.48,11.92a6,6,0,0,0-.2.71c.65,0,.7-.38.85-.62,1.84-2.94,3.73-5.88,5.46-8.86a260.6,260.6,0,0,0,20.5-44.88c3.83-11,7.54-21.93,10.72-33a178.93,178.93,0,0,0,7.24-51.19,98,98,0,0,0-1.28-16.66c-.54-3-1.35-5.91-2.06-8.86a7.54,7.54,0,0,0-.44-1.07l-.37,0C559.37,418,559.34,418.47,559.38,419Zm-197.24-120c.46,3.17.82,6.35,1.47,9.49,1.38,6.67,2.82,13.34,4.42,20,1.41,5.85,3,11.66,5,17.42,2.59,7.44,5,14.92,7.66,22.35,2.19,6.1,4.63,12.15,7,18.22,4.3,11.11,9,22.14,13.82,33.13q4.26,9.72,8.63,19.41c1.26,2.78,2.67,5.53,4,8.28a8.5,8.5,0,0,0,.73,1.08c.68-.05.56-.36.5-.56-1-3.62-1.91-7.24-2.91-10.85-2.71-9.82-7-19.31-10.73-28.92-2.44-6.31-4.72-12.64-6.61-19.06s-3.87-12.55-5.65-18.85c-1.66-5.87-3.12-11.78-4.67-17.66-1-3.93-2-7.87-3.18-11.77q-2-6.68-4.31-13.31a116.29,116.29,0,0,0-6.59-15.35c-1.41-2.75-2.76-5.51-4.24-8.23-1.19-2.19-2.52-4.34-3.79-6.5l-.55.07A9.86,9.86,0,0,0,362.14,298.9Zm115,326.75L456.76,618c-7.32-2.73-14.71-5.37-22-8.21-12.08-4.74-24.39-9.07-37-12.9-9.83-3-19.61-6.06-29.5-8.92a218.39,218.39,0,0,0-34.7-7.21,166.43,166.43,0,0,0-23.43-1.34c-1.58,0-3.16.15-4.73.29a9.42,9.42,0,0,0-1.93.38c-1,.3-1.42.77-1.32,1.4.14.85.57,1.2,1.71,1.36,10.75,1.52,21.35,3.51,31.89,5.7,13.11,2.73,26.26,5.36,39.12,8.73,11.82,3.1,23.65,6.2,35.38,9.47,12.37,3.44,24.64,7.07,36.94,10.64,10.51,3.06,21,6.05,31.37,9.46.45.14.92.25,1.38.38l.23-.34C479.19,626.49,478.19,626,477.15,625.65ZM269.71,545.38a63.21,63.21,0,0,0,13.48,7.1,118.17,118.17,0,0,0,21,6.12c6.45,1.26,13,2.38,19.49,3.44,10.69,1.73,21.49,3,32.31,4.16,9.85,1.06,19.76,1.51,29.69,1.61,15.85.16,31.7.16,47.55-.24,6.25-.16,12.5-.32,18.76-.39,3.16,0,6.33.13,9.5.21a4.86,4.86,0,0,0,2-.07,5.86,5.86,0,0,0-2.31-.83,135.16,135.16,0,0,0-28.38-4.26c-6.76-.37-13.51-.13-20.27.09-12.92.41-25.85.63-38.78.17-10.76-.38-21.45-1.3-32.09-2.54-6.45-.76-12.76-1.93-19-3.28q-17.7-3.82-35.09-8.35c-6-1.57-12-3-18.06-4.5-.45-.11-.93-.17-1.75-.31A5.4,5.4,0,0,0,269.71,545.38Z"/></g></g></g></svg>