<svg xmlns="http://www.w3.org/2000/svg" viewBox="0 0 2337.75 1782.22"><defs><style>.cls-1{isolation:isolate;}.cls-2{fill:#fdeacf;}.cls-3{fill:#49263e;}.cls-4{fill:#fff;}.cls-5{fill:#aedff4;}.cls-6{fill:#4cb7d8;}.cls-7{fill:#b1e8fc;}.cls-8{fill:#dcf4ff;}.cls-9{fill:#ff424d;}.cls-10{fill:#21111d;}.cls-11{fill:#fecc86;}.cls-12,.cls-18{opacity:0.3;}.cls-12,.cls-22{mix-blend-mode:multiply;}.cls-13{fill:#f99247;}.cls-14{opacity:0.5;}.cls-15{fill:#f3fffe;}.cls-16{fill:#fe9f73;}.cls-17{fill:#f07162;}.cls-19{fill:#5fb28a;}.cls-20{fill:#7fc6a6;}.cls-21{fill:#ffb357;}.cls-23{fill:#d4eef4;}.cls-24{fill:#fd7583;}.cls-25{fill:#fec786;}.cls-26{fill:#ef293d;}.cls-27{fill:#f75553;}.cls-28{fill:#aac9f8;}.cls-29{fill:#258d8c;}.cls-30{fill:#fbfdfc;}.cls-31{fill:#e2f2f1;}.cls-32{fill:#33192c;}.cls-33{fill:#fc4963;}.cls-34{fill:#f7d6b2;}.cls-35{fill:#4c222e;}</style></defs><title>Fichier 1</title><g class="cls-1"><g id="Calque_2" data-name="Calque 2"><g id="Layer_1" data-name="Layer 1"><path class="cls-2" d="M722.41,1779.24l-472.89-1.77s-355.23-217.38-218-785.74c41.41-171.48,280-431.89,572.88-451.26C961.7,516.84,931.15,85.89,1597.15,169.63c183.1,23,424.17,211.89,571.28,512,109.56,223.51,330.41,549.13-23.21,1097.65Z"/><path class="cls-3" d="M772.31,489.77,1697,488.1a30.09,30.09,0,0,1,30,30.13l2.22,1229.15a30.1,30.1,0,0,1-30,30.24l-924.73,1.67a30.09,30.09,0,0,1-30-30.13L742.37,520A30.09,30.09,0,0,1,772.31,489.77Z"/><polygon class="cls-4" points="806.86 1700.13 806.86 547.79 1665.04 547.79 1665.04 1492.02 1463.84 1700.13 806.86 1700.13"/><rect class="cls-5" x="1287.74" y="584.55" width="315.5" height="376.95"/><path class="cls-6" d="M1236,410a137.51,137.51,0,0,0-137.51,137.5c0,.1,0,.19,0,.29h275c0-.1,0-.19,0-.29A137.51,137.51,0,0,0,1236,410Zm0,103.27a24.34,24.34,0,1,1,24.34-24.34A24.33,24.33,0,0,1,1236,513.27Z"/><rect class="cls-7" x="874.43" y="608.83" width="323.22" height="14.54"/><rect class="cls-7" x="874.43" y="673.04" width="323.22" height="14.54"/><rect class="cls-7" x="874.43" y="745.79" width="323.22" height="14.54"/><rect class="cls-7" x="874.43" y="810" width="323.22" height="14.54"/><rect class="cls-7" x="874.43" y="882.75" width="323.22" height="14.54"/><rect class="cls-7" x="874.43" y="946.96" width="323.22" height="14.54"/><polygon class="cls-8" points="1665.04 1492.02 1463.84 1700.13 1463.84 1492.02 1665.04 1492.02"/><path class="cls-7" d="M1040.77,1311.56H874.43V1145.22h166.34Zm-154.33-12h142.32V1157.23H886.44Z"/><rect class="cls-7" x="1082.68" y="1143.39" width="509.26" height="17.08"/><rect class="cls-7" x="1082.68" y="1218.83" width="509.26" height="17.08"/><path class="cls-9" d="M955.43,1288.06l-50-76.35a3.89,3.89,0,0,1,1-5.31,3.68,3.68,0,0,1,5.18,1l42,64.2,53.41-140.16a3.7,3.7,0,0,1,4.83-2.17,3.86,3.86,0,0,1,2.12,5Z"/><path class="cls-7" d="M1040.77,1539.88H874.43V1373.54h166.34Zm-154.33-12h142.32V1385.55H886.44Z"/><rect class="cls-7" x="1082.68" y="1372.73" width="509.26" height="17.08"/><rect class="cls-7" x="1082.68" y="1448.17" width="509.26" height="17.08"/><path class="cls-9" d="M960.11,1509l-60.74-91.16a4.83,4.83,0,0,1,1.26-6.59,4.55,4.55,0,0,1,6.42,1.3l50.89,76.12,66.21-173.76a4.6,4.6,0,0,1,6-2.69,4.79,4.79,0,0,1,2.62,6.15Z"/><path class="cls-4" d="M237,862.67c14.42-.82,48.22-2.26,77.6.21A20.6,20.6,0,0,0,336.94,842c-.11-5-1.9-10.8-6.53-17.38-17.84-25.34-48.85-1.14-48.56,11.72,0,0-6.27-19.36-25.31-16s-12.31,31.55-12.31,31.55-6.14-1.3-10.4,1.61A5,5,0,0,0,237,862.67Z"/><path class="cls-4" d="M64.72,1063.87a10.67,10.67,0,0,1,1.54-9.44c3.84-5.25,10.82-9.71,23.34-10.48,0,0-13.54-60.12,38.91-66.43,53.89-6.49,56.68,56.88,56.68,56.88s30.54-33.61,47.2,7.34c0,0,32.87-16.59,48.67,3.33a15,15,0,0,1-.14,18.8Z"/><path class="cls-4" d="M1841.94,855.22a12.78,12.78,0,0,1,1.85-11.35c4.61-6.31,13-11.67,28-12.59,0,0-16.27-72.27,46.77-79.86,64.78-7.79,68.13,68.38,68.13,68.38s36.72-40.41,56.73,8.82c0,0,39.52-19.94,58.5,4a18.06,18.06,0,0,1-.16,22.6Z"/><rect class="cls-10" x="140.7" y="1776.32" width="2054.46" height="5.9"/><path class="cls-11" d="M1965.22,335.48c0-109-88.38-197.42-197.4-197.42s-197.4,88.39-197.4,197.42a196.79,196.79,0,0,0,57,138.73h0s59.74,63.89,79.92,133.53c0,0,34.49,11.71,60.52,12.36,26-.65,60.52-12.36,60.52-12.36,20.17-69.64,79.91-133.53,79.91-133.53h0A196.76,196.76,0,0,0,1965.22,335.48Z"/><path class="cls-6" d="M1767.77,723.74h0a30.69,30.69,0,0,1-30.68-30.68h61.36A30.68,30.68,0,0,1,1767.77,723.74Z"/><path class="cls-6" d="M1702,592h131.61a0,0,0,0,1,0,0v66a43.49,43.49,0,0,1-43.49,43.49h-44.63A43.49,43.49,0,0,1,1702,658V592A0,0,0,0,1,1702,592Z"/><g class="cls-12"><path class="cls-11" d="M1965.22,335.48a196.55,196.55,0,0,0-33-109.23c-57.74,142.27-149.81,238-282.45,275.06,16.71,21.92,38.85,54.91,52.24,90.69h131.52c23.66-63.24,74.67-117.8,74.67-117.8h0A196.76,196.76,0,0,0,1965.22,335.48Z"/></g><path class="cls-13" d="M1800.07,592.77l-5.65-1.54c.19-.68,18.6-68.37,31.36-137.71,22.16-120.3,9.42-145.82-.15-150.32-9.78-4.6-17.47-3.78-22.86,2.45-.39.46-.77.94-1.13,1.43a36.52,36.52,0,0,1,17.93,25.7c2.19,14-4,27.91-13.92,31.09-2.39.76-7,1.15-11-4.86-6.31-9.54-8.29-33.41-1.22-49.32-6.78-2.78-15-4.26-24.51-4.26h-5.7c-9.46,0-17.72,1.48-24.51,4.25,7.07,15.92,5.1,39.79-1.21,49.33-4,6-8.57,5.63-11,4.86-9.86-3.18-16.11-17.12-13.92-31.09a36.52,36.52,0,0,1,17.93-25.7c-.36-.49-.74-1-1.13-1.43-5.39-6.23-13.08-7-22.86-2.45-9.56,4.5-22.3,30-.15,150.32,12.77,69.34,31.18,137,31.36,137.71l-5.65,1.54c-.18-.68-18.65-68.58-31.46-138.16-17.69-96-16.58-147.3,3.41-156.71,15.5-7.29,24.75-1.89,29.78,3.92a28.35,28.35,0,0,1,2,2.6c6.9-2.93,15.83-4.85,27.39-4.85h5.7c11.56,0,20.49,1.92,27.4,4.85a30.15,30.15,0,0,1,2-2.6c5-5.81,14.28-11.22,29.79-3.92,20,9.41,21.1,60.67,3.41,156.71C1818.72,524.19,1800.26,592.09,1800.07,592.77Zm-66.58-280.5c-8.32,4.86-13.6,12.16-15,21.42-1.91,12.19,3.59,22.56,9.93,24.6.59.19,2.16.7,4.28-2.51C1738.05,347.61,1739.48,326,1733.49,312.27Zm65.24,0c-6,13.75-4.56,35.34.84,43.51,2.13,3.21,3.7,2.7,4.29,2.51,6.33-2,11.84-12.41,9.93-24.6C1812.34,324.43,1807.06,317.13,1798.73,312.27Z"/><path class="cls-10" d="M1701,593.38c-1.57-4.5-2.28-6.15-3.84-9.76l-.84-2c-24.65-57.56-69.57-106-70-106.44l-.14-.15A197.69,197.69,0,0,1,1569,335.48c0-109.66,89.2-198.88,198.86-198.88a198.44,198.44,0,0,1,166.49,90.07l-2.45,1.61a195.51,195.51,0,0,0-164-88.75c-108,0-195.94,87.9-195.94,196a194.81,194.81,0,0,0,56.55,137.7l1.91,1.93-.14,0c8.6,9.61,46.76,53.83,68.82,105.35l.84,2c1.58,3.68,2.31,5.35,3.92,9.95Z"/><path class="cls-10" d="M1630,244.34l-2.81-.82c.14-.49,14.73-49.08,63.84-67.35l1,2.75C1644.32,196.66,1630.1,243.86,1630,244.34Z"/><path class="cls-10" d="M1639,261.91l-2.81-.82c.14-.49,14.73-49.08,63.84-67.35l1,2.75C1653.37,214.23,1639.15,261.43,1639,261.91Z"/><path class="cls-10" d="M1775,702.92H1760.6a60.17,60.17,0,0,1-60.1-60.1V590.53h133.08v2.93H1703.43v49.36A57.23,57.23,0,0,0,1760.6,700H1775A56.79,56.79,0,0,0,1815,683.58l2.06,2.09A59.73,59.73,0,0,1,1775,702.92Z"/><path class="cls-10" d="M1768.62,725.22c-28.52,0-32.64-27.67-32.68-28l2.91-.4c.14,1.07,4,26,30.73,25.42l.06,2.93Z"/><path class="cls-10" d="M1903.18,446l-1.74-2.35c26-19.33,30.15-51.6,30.19-51.93l2.91.34C1934.5,392.39,1930.28,425.89,1903.18,446Z"/><path class="cls-10" d="M1897.41,431.93l-1.74-2.35c19-14.09,22-37.63,22-37.87l2.9.34C1920.47,393.07,1917.44,417.07,1897.41,431.93Z"/><path class="cls-10" d="M1695.93,618.31l0-2.92c1.12,0,112.09-1.45,147.23-14.56l1,2.75C1808.52,616.86,1700.51,618.26,1695.93,618.31Z"/><path class="cls-10" d="M1695.94,643.05l-.06-2.93c1.21,0,121.64-2.41,144.15-14.47l1.38,2.58C1818.28,640.62,1700.92,643,1695.94,643.05Z"/><path class="cls-10" d="M1702,668.43l0-2.93c1.09,0,109.15-1.15,138.1-16.11l1.34,2.6C1811.83,667.27,1706.45,668.39,1702,668.43Z"/><path class="cls-13" d="M1520.09,304.4h-.37l-69.86-5.95a4.39,4.39,0,1,1,.75-8.75l69.85,5.94a4.39,4.39,0,0,1-.37,8.77Z"/><path class="cls-13" d="M1556.23,193.1a4.36,4.36,0,0,1-2.48-.76l-57.86-39.6a4.39,4.39,0,1,1,5-7.25l57.86,39.59a4.4,4.4,0,0,1,1.14,6.11A4.35,4.35,0,0,1,1556.23,193.1Z"/><path class="cls-13" d="M1660.8,113.27a4.4,4.4,0,0,1-4.07-2.74l-26.39-65a4.39,4.39,0,1,1,8.14-3.31l26.39,65a4.41,4.41,0,0,1-4.07,6Z"/><path class="cls-13" d="M2012,317.06a4.39,4.39,0,0,1-.29-8.78l70-4.62a4.39,4.39,0,0,1,.58,8.77l-70,4.62Z"/><path class="cls-13" d="M1978,205.1a4.4,4.4,0,0,1-2.41-8.07l58.6-38.49a4.39,4.39,0,0,1,4.82,7.35l-58.6,38.49A4.43,4.43,0,0,1,1978,205.1Z"/><path class="cls-13" d="M1888.5,113a4.26,4.26,0,0,1-1.73-.36,4.37,4.37,0,0,1-2.3-5.76l27.61-64.45a4.39,4.39,0,1,1,8.07,3.46l-27.61,64.45A4.4,4.4,0,0,1,1888.5,113Z"/><path class="cls-13" d="M1775.89,78.89h-.07a4.39,4.39,0,0,1-4.32-4.46l1.08-70.1A4.4,4.4,0,0,1,1777,0h.07a4.39,4.39,0,0,1,4.32,4.46l-1.08,70.11A4.38,4.38,0,0,1,1775.89,78.89Z"/><g class="cls-14"><ellipse class="cls-15" cx="1859.66" cy="214.08" rx="23.1" ry="48.37" transform="translate(672.27 1661.24) rotate(-57.2)"/></g><rect class="cls-7" x="1299.04" y="598.05" width="292.89" height="349.94"/><path class="cls-16" d="M1407.17,877.77c-34-5.77-31.4-44.75-31.4-44.75l3.14-119.25.06-2.2,140.68-26.19.4,54.89.07,10.6.06,6,0,6.68.34,46.55.07,8.59-2.1,34.35s7,56.46,10.88,95H1396.51Z"/><path class="cls-17" d="M1487.24,846.69s-4,65.29-85.78,69.39l5.72-38.3S1459.83,889.8,1487.24,846.69Z"/><path d="M1528.08,762.13l-35.3,6.39-6.52,6.41s4.58-58.78,11.5-70.18S1528.08,762.13,1528.08,762.13Z"/><path class="cls-16" d="M1478.85,782.8a29.29,29.29,0,1,0,30.05-28.51A29.29,29.29,0,0,0,1478.85,782.8Z"/><path d="M1528.08,762.13s11.38-56.75-5.52-78.46S1406.45,622.14,1394,632.44s-.62,23.53-.62,23.53-39.89-14-49.93,21.48,76.08,52.88,128.13,37.54C1471.61,715,1505.49,725.84,1528.08,762.13Z"/><g class="cls-18"><rect class="cls-7" x="874.43" y="996.99" width="728.81" height="90.67"/></g><polygon class="cls-16" points="537.55 1521.84 490.02 1522.49 489.33 1477.66 536.68 1471.74 537.55 1521.84"/><polygon class="cls-16" points="455.71 1521.84 408.18 1522.49 407.5 1477.66 454.84 1471.74 455.71 1521.84"/><path class="cls-19" d="M460.77,1133.79c1.58,46.29,8.42,227.38,22.82,345.86A15.52,15.52,0,0,0,499,1493.33a119.12,119.12,0,0,0,34.25-5.16,15.61,15.61,0,0,0,11.1-14.66L550.22,1113a14.43,14.43,0,0,0-.18-2.62l-.27-1.78a15.56,15.56,0,0,0-21-12.16l-58.06,22.3A15.56,15.56,0,0,0,460.77,1133.79Z"/><path class="cls-20" d="M396.93,1124.45s-3.95,222.68,6.35,360a13.15,13.15,0,0,0,12.15,12.13,118.43,118.43,0,0,0,39-3.6,13.13,13.13,0,0,0,9.73-11.57l27.56-319.35,17-88.66Z"/><path class="cls-10" d="M404.12,1495.07Z"/><path class="cls-21" d="M379.2,1053.58c1,8.89,6.3,140.87,21.11,151.76s156.48.42,159.78-12.44-3.66-150.78-3.66-150.78Z"/><path class="cls-21" d="M539.18,991.4c1.91,0,77.68,35.72,77.68,35.72l-16.51,29.13-42.83-11Z"/><path class="cls-21" d="M400.61,854.61c18.67-1.94,67.77-2,67.77-2s6.43,1.92,4.4.89c53.82,11.41,58.44,51.77,58.44,51.77l22.48,116.93,29.35,2.59c8.91,18.36.26,66.77.26,66.77l-143,11.2s-31,4-55.87-30.26c-16.48-22.68-20-90.73-18.33-140.3C366.09,932.16,371.6,857.63,400.61,854.61Z"/><path class="cls-10" d="M542,1006a.9.9,0,0,0,1.11-.35l6.39-10.14-.06-.35-17.31-90c-.1-.81-1.51-11.28-9.94-23.06-7.91-11-23.76-25.29-54.37-30.43a.9.9,0,1,0-.3,1.78c29.95,5,45.43,18.88,53.14,29.62,8.36,11.63,9.67,22.23,9.68,22.34v.06l17.25,89.73-6,9.54a.89.89,0,0,0,.28,1.24Z"/><path class="cls-10" d="M573.83,1007.39a.9.9,0,0,0,.71-1.65L548.9,994.48a.91.91,0,0,0-1.19.47.9.9,0,0,0,.46,1.18l25.64,11.26Z"/><path class="cls-21" d="M408.77,887.73l17.42-29.22,30.61,9.25,12.42-13.21s2.64,12.2,2.56,13.21-14,15.46-15.77,15.3S408.77,887.73,408.77,887.73Z"/><path class="cls-10" d="M411.25,1209.5a1.05,1.05,0,0,0,.08-2.1c-14.7-1.05-16.72-13.54-20.06-34.25-.6-3.72-1.22-7.57-2-11.7-5-27.5-7.17-94.12-7.19-94.79a1.05,1.05,0,0,0-1.05-1h0a1.06,1.06,0,0,0-1,1.09c0,.67,2.22,67.44,7.22,95.09.75,4.12,1.37,8,2,11.67,3.39,21,5.63,34.84,22,36Z"/><path class="cls-9" d="M641.31,942l20,9.38,1.32.61,20,9.38L592,1196.19a12.21,12.21,0,0,1-16.58,6.65L524.46,1179a12.22,12.22,0,0,1-5.49-17Z"/><path class="cls-13" d="M642.86,926.18h47.65a8.92,8.92,0,0,1,8.92,8.92v23a0,0,0,0,1,0,0H633.94a0,0,0,0,1,0,0v-23A8.92,8.92,0,0,1,642.86,926.18Z" transform="translate(870.72 2078.14) rotate(-154.9)"/><path class="cls-10" d="M647.47,952l32.28,15.12a11.43,11.43,0,0,0,15.18-5.49L704.1,942l-2-.92L693,960.69a9.24,9.24,0,0,1-12.28,4.44L648.4,950Z"/><g class="cls-22"><circle class="cls-23" cx="725.36" cy="818.05" r="119.68" transform="translate(-366 752.51) rotate(-45)"/></g><ellipse class="cls-15" cx="701.42" cy="746.73" rx="44.95" ry="21.47" transform="translate(-212.27 283.31) rotate(-19.9)"/><rect class="cls-10" x="510.58" y="1081.64" width="249.79" height="2.18" transform="translate(-603.11 1287.7) rotate(-68.99)"/><path class="cls-10" d="M823,783.3l2.12-.48c-.06-.26-6.19-26.83-27-42.66l-1.32,1.73C816.94,757.23,822.92,783,823,783.3Z"/><path class="cls-10" d="M811.13,792.53l2.12-.48c-.06-.26-6.19-26.83-27-42.66l-1.32,1.73C805.09,766.46,811.07,792.27,811.13,792.53Z"/><path class="cls-11" d="M674.58,926.43a119.68,119.68,0,1,1,159.15-57.61A119.68,119.68,0,0,1,674.58,926.43ZM851,876.9a138.72,138.72,0,1,0-184.46,66.77A138.71,138.71,0,0,0,851,876.9Z"/><path class="cls-10" d="M666.05,944.65c69.8,32.71,153.2,2.52,185.91-67.29s2.51-153.21-67.3-185.91a139.17,139.17,0,0,0-103.84-5.92l.69,2.07a137,137,0,0,1,102.23,5.82c68.72,32.2,98.44,114.3,66.24,183s-114.29,98.43-183,66.24a137.11,137.11,0,0,1-69.57-73.93l-2,.8A139.24,139.24,0,0,0,666.05,944.65Z"/><path class="cls-16" d="M639.25,1066.55A4.55,4.55,0,0,0,635,1062l-14.33-1a1.06,1.06,0,0,1-1-.78h0a1.05,1.05,0,0,1,1-1.32l21.22-1.41a3.5,3.5,0,0,0,3.27-4.57h0a5.65,5.65,0,0,0-5.57-4L618,1050.45a1,1,0,0,1-1.09-.78l-.09-.34a1,1,0,0,1,.74-1.29l23.19-6.23a4.55,4.55,0,0,0,3.28-5.24,4.35,4.35,0,0,0-5.36-3.2l-23.36,6.28a1.07,1.07,0,0,1-1.3-.75l-.29-1.09a1.06,1.06,0,0,1,.62-1.25l20.73-8.59a4.53,4.53,0,0,0,2.57-5.62,4.33,4.33,0,0,0-5.72-2.47s-17.47,6.54-22.68,7.91l-4.83.26c7.06,6.62-.91-2.41-6.72-3.58-6.43-1.3-23.43,14.44-23.43,14.44-.78,1.36,0,4.38,1.25,6.66,4.74,25.19,5.68,29,7.58,35.71l26.21-8a65,65,0,0,1,23.36-2.69l2,.13A4.34,4.34,0,0,0,639.25,1066.55Z"/><path class="cls-21" d="M583,1024.75s8.65,22.51.26,66.77l-29.46,1.65,7-54.16Z"/><path class="cls-21" d="M432.46,849.79s-32.66-2.26-48.57,6.05c-23.74,12.41-18,88.26-18,88.26S386,934,387.36,930.43,432.46,849.79,432.46,849.79Z"/><path class="cls-10" d="M442.91,1020.39a.84.84,0,0,0,.52.05.89.89,0,0,0,.7-1.06c-.12-.64-12.85-64.44-17.83-104.48a.9.9,0,1,0-1.79.22c5,40.11,17.73,104,17.86,104.62A.89.89,0,0,0,442.91,1020.39Z"/><path class="cls-10" d="M531.17,1021.89a.9.9,0,0,1-1.5-.62c0-.74-4.29-74.15-8.58-98.45a.9.9,0,1,1,1.77-.32c4.31,24.41,8.57,97.93,8.61,98.67A.87.87,0,0,1,531.17,1021.89Z"/><path class="cls-10" d="M418.94,1013.57l.11,0,23.87,6.32a.9.9,0,1,0,.46-1.74l-23.86-6.32a.9.9,0,0,0-.58,1.7Z"/><path class="cls-10" d="M411.81,1020.13a.94.94,0,0,0,.34.07c1.29,0,128.71.52,170.24,5.38.93,2.77,5.15,17.06,3,42.85a.9.9,0,0,0,1.8.16c2.49-29.24-3-43.57-3.25-44.17l-.2-.5-.53-.06c-41-4.93-169.71-5.46-171-5.46a.9.9,0,0,0-.35,1.73Z"/><path class="cls-10" d="M463.77,1099.7c52,0,115.72-6.71,119.65-7.13a1,1,0,0,0,.93-1.16,1,1,0,0,0-1.15-.93c-1.42.15-142.37,15-177.78,1.13-35-13.71-37.43-90.8-37.45-91.58a1,1,0,0,0-1.07-1,1.06,1.06,0,0,0-1,1.07c.09,3.23,2.51,79.26,38.79,93.49C416.33,1098.14,438.7,1099.7,463.77,1099.7Z"/><path class="cls-16" d="M466.9,779.82,472.3,816s2.34,12.15-8.06,15.27l4.42,16a12.88,12.88,0,0,1-6.6,15,33.22,33.22,0,0,1-9.81,3.06c-12.14,1.82-20.09-6.37-21.79-10.8s-1.94-26.79-1.94-26.79l-2-10.7-4.85-41.91Z"/><path class="cls-10" d="M421.76,770.91s-11.29,8.14-1.48,31.91l4.26-3.08L421,786.86Z"/><path class="cls-10" d="M441,797.89a.51.51,0,0,1-.37-.09.52.52,0,0,1-.12-.72c.06-.08,5.95-8.29,13.08-4.08a.51.51,0,0,1-.51.89c-6.32-3.73-11.52,3.48-11.73,3.79A.52.52,0,0,1,441,797.89Z"/><path class="cls-10" d="M460.68,796.11a.53.53,0,0,1-.41-.12.52.52,0,0,1-.06-.72c.18-.21,4.39-5.09,7.84-2.91a.53.53,0,0,1,.16.71.52.52,0,0,1-.71.16c-2.7-1.71-6.47,2.66-6.51,2.71A.53.53,0,0,1,460.68,796.11Z"/><path d="M450.82,802.81a1.54,1.54,0,1,1-1.75-1.3A1.56,1.56,0,0,1,450.82,802.81Z"/><path d="M466.73,798.87a1.54,1.54,0,1,1-1.75-1.3A1.55,1.55,0,0,1,466.73,798.87Z"/><path class="cls-16" d="M433.18,806a9.21,9.21,0,1,1-10.48-7.81A9.24,9.24,0,0,1,433.18,806Z"/><path class="cls-17" d="M424.24,813.07a3.84,3.84,0,0,1-4-2.33,3.62,3.62,0,0,1,.81-4.4,4.31,4.31,0,0,1,4.81-.55,4.2,4.2,0,0,0-2.18-2,5.72,5.72,0,0,0-4.08.34.25.25,0,0,1-.35-.11.27.27,0,0,1,.11-.35,6.14,6.14,0,0,1,4.49-.36,5,5,0,0,1,2.83,3l.35.85-.74-.55a4,4,0,0,0-4.91.11,3.16,3.16,0,0,0-.68,3.8,3.31,3.31,0,0,0,3.46,2h0a.26.26,0,0,1,.29.22.25.25,0,0,1-.21.29Z"/><path class="cls-10" d="M473.21,810s7,24-9.06,27.28C441.21,842,437,829,434,818.34L430.4,796l-.23-6.62h0a11.82,11.82,0,0,1,3.85,6.24c1.28,5.31,4.63,19.62,6.06,20.06C442.1,816.25,469.25,808.14,473.21,810Z"/><path class="cls-17" d="M457.71,812.32a.25.25,0,0,1-.26-.14.24.24,0,0,1,.11-.34l4.82-2.45L459,797.61a.25.25,0,0,1,.18-.31.24.24,0,0,1,.31.17L463,809.66l-5.2,2.63A.11.11,0,0,1,457.71,812.32Z"/><path class="cls-10" d="M430.19,789.76l-5.2-3.49-3,12.09s6,.09,7,6.16-.85,16.06,11.73,28.13-3.89-20.25-4.17-21.41S430.19,789.76,430.19,789.76Z"/><path class="cls-10" d="M421.76,770.91c4.16-5.57,20.67-10.86,33.83-5.39h0c14.75,4.67,12.48,19,12.09,19.49l-.2-.11c.11.3.22.61.32.92a15.38,15.38,0,0,0-2.14-1.93l-6-3.33a28.93,28.93,0,0,0-12.88-1.68A38.74,38.74,0,0,0,433.39,782c-.52,3.26-.41,9.53,2.57,21.48,4.53,18.23-6.9-3-11.12-11.15a21.62,21.62,0,0,0-.5,5.68S413.43,782.08,421.76,770.91Z"/><path class="cls-16" d="M468.42,790s-.75-7.48-1.35-9.05-17.82-3.77-26.69-1.18,10.17,9.94,10.37,9.91S468.42,790,468.42,790Z"/><polygon class="cls-16" points="435.23 782.47 425.27 775.64 435.29 786.3 435.23 782.47"/><path class="cls-24" d="M467.3,842.33l1.34,9.42s-8.09,6.88-13.27,10.51c-10.28-7.12-25.68-12.61-25.68-12.61l-1-13.91c-19.08-2.18-38.9,10.65-33.92,16.83s30.81,8.08,37.67,10.33,24.06,7.46,24.06,7.46c4.54-3.37,16.75-17.71,16.75-17.71l12.35,3.43C485.86,843.54,467.3,842.33,467.3,842.33Z"/><path d="M456.52,871.06a.74.74,0,0,0,.5-.2L478.57,849a.69.69,0,0,0,0-1,.71.71,0,0,0-1,0L456,869.87a.7.7,0,0,0,0,1A.66.66,0,0,0,456.52,871.06Z"/><polygon class="cls-9" points="602.59 1011.64 590.15 1034.01 609.22 1027.79 602.59 1011.64"/><path class="cls-25" d="M489.28,1523.24h41.55l16.84-18.82,30.81,18.82h6.64a4.88,4.88,0,0,1,4.81,3.89,4.82,4.82,0,0,1-4.64,5.81h-96.6a1.31,1.31,0,0,1-1.29-1.32v-6.45A1.91,1.91,0,0,1,489.28,1523.24Z"/><path class="cls-26" d="M489.65,1523.3v-17.5s7-9.66,17.65-4.73c0,0,16.11,11.73,30.32-2.46l35.27,16.05s9.67,3.32,12.29,8.64Z"/><rect x="489.29" y="1505.8" width="0.71" height="17.41"/><path d="M521.74,1506a17.71,17.71,0,0,0,2.19-.12l-.11-.72a24.53,24.53,0,0,1-16.32-4.38l-.4.6A25.56,25.56,0,0,0,521.74,1506Z"/><polygon points="498.23 1520.03 498.63 1519.43 494.12 1516.31 493.73 1516.91 498.23 1520.03"/><polygon points="501.46 1519.15 501.86 1518.55 497.35 1515.43 496.96 1516.03 501.46 1519.15"/><path d="M588.58,1532.1a5.25,5.25,0,0,0,1.79-4,5.16,5.16,0,0,0-5.08-5.22H489.77a2.77,2.77,0,0,0-2.72,2.8v4.83h.7v-4.83a2.05,2.05,0,0,1,2-2.07h95.52a4.44,4.44,0,0,1,4.38,4.49,4.54,4.54,0,0,1-1.55,3.42Z"/><path d="M585,1523.43l.64-.31c-.08-.17-2-4.24-9.23-7.4s-38.31-17.3-38.62-17.44l-.29.66c.32.14,31.53,14.34,38.63,17.45C583.05,1519.43,585,1523.39,585,1523.43Z"/><path class="cls-25" d="M406.61,1523.24h41.55L465,1504.42l30.81,18.82h6.64a4.85,4.85,0,0,1,.17,9.7H406a1.31,1.31,0,0,1-1.29-1.32v-6.45A1.91,1.91,0,0,1,406.61,1523.24Z"/><path class="cls-9" d="M407,1523.3v-17.5s7-9.66,17.65-4.73c0,0,16.11,11.73,30.32-2.46l35.27,16.05s9.68,3.32,12.29,8.64Z"/><rect x="406.63" y="1505.8" width="0.71" height="17.41"/><path d="M439.07,1506a17.51,17.51,0,0,0,2.19-.12l-.1-.72a24.55,24.55,0,0,1-16.33-4.38l-.4.6A25.58,25.58,0,0,0,439.07,1506Z"/><polygon points="415.56 1520.03 415.96 1519.43 411.45 1516.31 411.06 1516.91 415.56 1520.03"/><polygon points="418.8 1519.15 419.19 1518.55 414.69 1515.43 414.29 1516.03 418.8 1519.15"/><path d="M505.91,1532.1a5.26,5.26,0,0,0,1.8-4,5.16,5.16,0,0,0-5.09-5.22H407.1a2.77,2.77,0,0,0-2.72,2.8v4.83h.71v-4.83a2,2,0,0,1,2-2.07h95.52a4.44,4.44,0,0,1,4.38,4.49,4.51,4.51,0,0,1-1.55,3.42Z"/><path d="M502.31,1523.43l.63-.31c-.07-.17-2-4.24-9.23-7.4s-38.3-17.3-38.62-17.44l-.28.66c.31.14,31.52,14.34,38.62,17.45C500.38,1519.43,502.29,1523.39,502.31,1523.43Z"/><path class="cls-4" d="M684.26,1659.22s-24,60.37-3.87,106l-461.32,3.87-42.57-3.87L139,1742v-35.58L149.4,1677l34.06-17.8Z"/><path class="cls-27" d="M197.46,1775H695.88a5.88,5.88,0,0,0,0-11.76H197.46c-30.09,0-54.56-22.71-54.56-50.62S167.37,1662,197.46,1662H695.88a5.88,5.88,0,0,0,0-11.76H197.46c-36.57,0-66.32,28-66.32,62.39S160.89,1775,197.46,1775Z"/><path class="cls-28" d="M677.49,1713.93H432.9a1.31,1.31,0,1,1,0-2.61H677.49a1.31,1.31,0,1,1,0,2.61Z"/><path class="cls-28" d="M398.45,1713.93H160.82a1.31,1.31,0,0,1,0-2.61H398.45a1.31,1.31,0,1,1,0,2.61Z"/><path class="cls-28" d="M289.13,1737.33H167.21a1.31,1.31,0,1,1,0-2.61H289.13a1.31,1.31,0,1,1,0,2.61Z"/><path class="cls-28" d="M677.49,1737.33H307a1.31,1.31,0,1,1,0-2.61H677.49a1.31,1.31,0,1,1,0,2.61Z"/><path class="cls-10" d="M695.88,1776.32H197.46c-37.29,0-67.62-28.58-67.62-63.69s30.33-63.69,67.62-63.69H695.88a7.19,7.19,0,0,1,0,14.37,1.31,1.31,0,0,1,0-2.62,4.57,4.57,0,0,0,0-9.14H197.46c-35.85,0-65,27.4-65,61.08s29.16,61.07,65,61.07H695.88a4.57,4.57,0,0,0,0-9.14,1.31,1.31,0,1,1,0-2.61,7.19,7.19,0,0,1,0,14.37Z"/><path class="cls-20" d="M616.88,1689.21s15.7,39.11,6.65,67.9l-12.76-19.71s-8.7,10.45-14,19.71c0,0-9.74-64.3-28.62-67.9Z"/><path class="cls-28" d="M677.49,1690.52H167.21a1.31,1.31,0,1,1,0-2.61H677.49a1.31,1.31,0,1,1,0,2.61Z"/><path class="cls-4" d="M138.86,1542.78s22.27,56,3.59,98.42l428.15,3.59,39.51-3.59,34.82-21.58v-33l-9.68-27.3-31.61-16.52Z"/><path class="cls-29" d="M590.65,1650.24H128.09a5.46,5.46,0,1,1,0-10.91H590.65c27.93,0,50.64-21.07,50.64-47s-22.71-47-50.64-47H128.09a5.46,5.46,0,1,1,0-10.91H590.65c33.94,0,61.55,26,61.55,57.9S624.59,1650.24,590.65,1650.24Z"/><path class="cls-28" d="M503.72,1593.65h-227a1.31,1.31,0,0,1,0-2.61h227a1.31,1.31,0,1,1,0,2.61Z"/><path class="cls-28" d="M624.66,1593.65H404.12a1.31,1.31,0,1,1,0-2.61H624.66a1.31,1.31,0,0,1,0,2.61Z"/><path class="cls-28" d="M618.73,1615.37H505.58a1.31,1.31,0,1,1,0-2.61H618.73a1.31,1.31,0,1,1,0,2.61Z"/><path class="cls-28" d="M618.73,1571.92H145.15a1.31,1.31,0,1,1,0-2.61H618.73a1.31,1.31,0,1,1,0,2.61Z"/><path class="cls-10" d="M590.65,1651.55H128.09a6.76,6.76,0,0,1,0-13.52,1.31,1.31,0,0,1,0,2.61,4.15,4.15,0,0,0,0,8.3H590.65c33.22,0,60.25-25.39,60.25-56.59s-27-56.59-60.25-56.59H128.09a4.15,4.15,0,0,0,0,8.3,1.31,1.31,0,0,1,0,2.61,6.76,6.76,0,0,1,0-13.52H590.65c34.66,0,62.86,26.55,62.86,59.2S625.31,1651.55,590.65,1651.55Z"/><path class="cls-6" d="M415.79,1614.07s-15.7,39.1-6.65,67.89l12.75-19.71s8.71,10.45,14.05,19.71c0,0,9.74-64.29,28.62-67.89Z"/><path class="cls-28" d="M489,1615.37H145.15a1.31,1.31,0,1,1,0-2.61H489a1.31,1.31,0,0,1,0,2.61Z"/><path class="cls-29" d="M144.44,1294.35s4.72-65.76,30.25-53,46.33,96.55,49.1,99.05,1.94,79.07,1.94,79.07l-29.68-15S188.15,1221.46,144.44,1294.35Z"/><path class="cls-20" d="M173.05,1158.21s57.19,51.17,72.8,138.91-33.71,113.56-33.71,113.56S205.12,1226.19,173.05,1158.21Z"/><path class="cls-29" d="M279.14,1422.52s9.57-186.78,57.85-267.76c0,0-84.75,50.56-112.85,183.28-1.59,7.47-2.53,15.77-3.72,23.77a131,131,0,0,0-1.8,23c.33,13,2.14,24.16,2.67,32.37C225.86,1488.14,279.14,1422.52,279.14,1422.52Z"/><path class="cls-20" d="M277.51,1343.21a151.72,151.72,0,0,1,29.64-73.37c11.74-15.42,25.33-27.14,35.94-18.78,23.58,18.59,28.3,134,28.3,134s-26.63-79.9-38.29-74.63-22.47,113.75-22.47,113.75l-43.56,3.6Z"/><path class="cls-10" d="M218.09,1416c-1.78-40.78,3.33-79.91,15.21-116.33a303.07,303.07,0,0,1,41.09-81.61c30.25-42.62,61.9-63.68,62.21-63.89l.78,1.18c-.32.21-31.78,21.15-61.88,63.57-27.77,39.14-60,105.09-56,197Z"/><path class="cls-10" d="M211.44,1410.71c0-.46-1.82-46.73-7.52-100.7-5.25-49.78-15-116.47-31.51-151.5l1.28-.6c16.61,35.2,26.37,102.07,31.63,152,5.7,54,7.51,100.33,7.52,100.79Z"/><path class="cls-10" d="M195.34,1404.52c0-.3-1.35-30.38-5.77-60.86-5.81-40.08-14.21-62.63-24.29-65.22-5.95-1.52-12.76,4-20.23,16.27l-1.21-.73c7.84-12.91,15.16-18.6,21.79-16.9,10.83,2.77,19.35,25.11,25.34,66.39,4.43,30.55,5.77,60.69,5.78,61Z"/><path class="cls-10" d="M267.77,1427.88l-1.4-.17,10.44-84.59a152.56,152.56,0,0,1,29.78-73.7c10.23-13.44,19.32-20.75,27-21.73a12.93,12.93,0,0,1,9.93,2.82c9.93,7.83,17.75,32.87,23.25,74.43,4.09,30.86,5.3,59.81,5.32,60.1l-1.41.06c-.05-1.15-5-115.31-28-133.48a11.58,11.58,0,0,0-8.89-2.53c-7.3.93-16.07,8.05-26.06,21.18a151.09,151.09,0,0,0-29.5,73Z"/><rect class="cls-10" x="299.12" y="1332.06" width="19.96" height="1.41" transform="translate(-1017.07 996.52) rotate(-62.72)"/><rect class="cls-10" x="299.62" y="1343.47" width="18.97" height="1.41" transform="translate(-1017.41 966.4) rotate(-61.15)"/><rect class="cls-10" x="214.18" y="1217.23" width="1.41" height="18.87" transform="translate(-489.12 199.41) rotate(-24.49)"/><rect class="cls-10" x="214.76" y="1230.7" width="1.41" height="13.74" transform="translate(-572.83 259.52) rotate(-28.99)"/><rect class="cls-10" x="173.56" y="1244.2" width="1.41" height="14.95" transform="translate(-1020.05 838.57) rotate(-62.99)"/><rect class="cls-10" x="176.28" y="1253.84" width="1.41" height="9.22" transform="translate(-990.13 755.6) rotate(-58.69)"/><path class="cls-27" d="M180.93,1399.74s2.48,136.55,39.06,133.35h62.14c36.57,3.2,39.06-133.35,39.06-133.35C286.58,1394.51,215.54,1394.51,180.93,1399.74Z"/><rect class="cls-10" x="258" y="1438.11" width="58.12" height="1.41" transform="translate(-955.08 658) rotate(-46.56)"/><rect class="cls-10" x="267.54" y="1456.82" width="33.53" height="1.41" transform="translate(-1002.05 715.57) rotate(-48.99)"/><path class="cls-16" d="M1904.22,936.53s-14.5-7.09-27.91-3.27a19,19,0,0,0-13.64,17.26l-.42,7.89,41.51-15.18s6.26,3.38,5.79,2.43S1904.22,936.53,1904.22,936.53Z"/><path class="cls-16" d="M1862.72,949.64,1861,982.89s-1.12,11.85,9.19,13.89l-2.78,15.75a12.38,12.38,0,0,0,7.75,13.77,32.32,32.32,0,0,0,9.74,2c11.88.63,18.79-7.93,20-12.34s-.61-25.85-.61-25.85l.92-10.44.8-40.6Z"/><path class="cls-10" d="M1890.57,966.84a.46.46,0,0,0,.35-.12.49.49,0,0,0,0-.7c-.06-.07-6.5-7.4-13-2.72a.5.5,0,0,0-.11.69.49.49,0,0,0,.69.12c5.75-4.15,11.42,2.28,11.66,2.56A.53.53,0,0,0,1890.57,966.84Z"/><path class="cls-10" d="M1870.32,962.78a.49.49,0,0,0,.37-.85c-.19-.18-4.69-4.47-7.82-2.07a.5.5,0,1,0,.61.79c2.44-1.89,6.48,2,6.53,2A.46.46,0,0,0,1870.32,962.78Z"/><path d="M1880.45,968.31a1.49,1.49,0,1,0,1.57-1.41A1.5,1.5,0,0,0,1880.45,968.31Z"/><path d="M1864.75,966a1.49,1.49,0,1,0,1.56-1.4A1.47,1.47,0,0,0,1864.75,966Z"/><path class="cls-10" d="M1904.25,936s12.61.07,15.21,11.24-3.14,16.7-3.42,20,.76,25.51-14.68,23l-2.25-36.75,6.18-14.25Z"/><path class="cls-16" d="M1892.75,968.44a8.92,8.92,0,1,0,9.38-8.43A8.92,8.92,0,0,0,1892.75,968.44Z"/><path class="cls-17" d="M1902,974.41a3.71,3.71,0,0,0,3.64-2.59,3.5,3.5,0,0,0-1.19-4.15,4.18,4.18,0,0,0-4.69-.08,4,4,0,0,1,1.92-2.1,5.68,5.68,0,0,1,4,0,.25.25,0,0,0,.18-.46,6,6,0,0,0-4.36.06,4.84,4.84,0,0,0-2.45,3.13l-.26.85.66-.6a3.9,3.9,0,0,1,4.75-.34,3,3,0,0,1,1,3.57,3.19,3.19,0,0,1-3.14,2.27H1902a.25.25,0,0,0-.26.23.26.26,0,0,0,.24.26Z"/><path class="cls-17" d="M1894.78,988s-1.75,19.85-26.69,20.43l2.05-11.62S1886.08,1000.87,1894.78,988Z"/><path class="cls-17" d="M1874.68,978.05a.26.26,0,0,0,.25-.16.25.25,0,0,0-.14-.32l-4.88-1.91,2.19-11.59a.25.25,0,0,0-.49-.09l-2.26,12,5.26,2Z"/><polygon class="cls-16" points="1904.47 992.94 1903.64 976.09 1899.45 976.33 1898.56 993.11 1904.47 992.94"/><path class="cls-10" d="M1901.94,935.56s2.54,7.11-2.85,18.46,12.49-3.67,12.49-3.67S1911.3,933.3,1901.94,935.56Z"/><path class="cls-10" d="M1899.09,954s-37.73-4.25-39.59-13.24,7-8.75,7-8.75-1-12.69,10.24-8.35,32.43,5,37.83,15.89S1899.09,954,1899.09,954Z"/><path class="cls-10" d="M1899.54,960.39l-2,6.82-1.54-2.15s-2.71-10.09-.22-14.73,11.06,2.68,11.06,2.68Z"/><path class="cls-30" d="M1867.91,981.88c.16,0,10.4-.38,10.4-.38s-1.24,4.24-5,4.38S1867.91,981.88,1867.91,981.88Z"/><polygon class="cls-16" points="1917.78 1764.48 1964.43 1765.12 1965.09 1721.13 1918.63 1715.32 1917.78 1764.48"/><polygon class="cls-16" points="1812.2 1764.48 1858.84 1765.12 1859.51 1721.13 1813.05 1715.32 1812.2 1764.48"/><path class="cls-16" d="M1810.92,1369.2c7.12,9.16,9,.14,9,.14,4.33,4.52,6.53,3.66,7.61,2.16a4.29,4.29,0,0,0,.55-3.81c-1.31-4.09-5.35-16.57-8.33-24.22.7-5.27,9.51-3,13.94-.39,2.28,1.36,6.16,1.69,2.6-4.3-2.92-4.88-13-12.58-13-12.58l4.64-29.32L1787,1298.8s-1.59,33.69-1.86,38.77,4.47,22.41,8.63,27.81c7.53,9.81,8.3,4,8.3,4C1810.81,1378.81,1810.92,1369.2,1810.92,1369.2Z"/><path class="cls-17" d="M1813.83,1358.28a.61.61,0,0,1,1.18-.21,75.05,75.05,0,0,0,5.4,11,.61.61,0,1,1-1.05.63,74.33,74.33,0,0,1-5.5-11.18A.63.63,0,0,1,1813.83,1358.28Z"/><path class="cls-17" d="M1806.09,1358.42a.61.61,0,0,1,1.21-.14,38,38,0,0,0,4.14,10.61.61.61,0,1,1-1,.63,38.94,38.94,0,0,1-4.29-11A.45.45,0,0,1,1806.09,1358.42Z"/><path class="cls-17" d="M1797.29,1359.93a.61.61,0,0,1,1.2-.15,32.66,32.66,0,0,0,4,9.24.61.61,0,0,1-.17.85.62.62,0,0,1-.85-.17,33.72,33.72,0,0,1-4.22-9.64A.62.62,0,0,1,1797.29,1359.93Z"/><path class="cls-31" d="M1783.18,1311.44l.73,14.25s7.43,5,21.1,4.59l-3.43-18.84Z"/><path class="cls-32" d="M1894.63,1268s-6.19,291.8-27.49,460.21c0,0-28.38,8.93-64.05-7.76l-1.51-430.08-5.16-64.43Z"/><path class="cls-3" d="M1969.51,1270.86S1982,1558.52,1968,1728c0,0-26.51,16.7-62.86,2.24l-44-413.28-18.67-110.58Z"/><path d="M1932,1736.78a92.43,92.43,0,0,0,36.42-7.88l.45-.22.09-.49c11.94-64.65,4.32-383.26,4.24-386.47a1,1,0,0,0-1-1h0a1,1,0,0,0-1,1c.07,3.2,7.65,320-4.12,385.57-4,1.81-34,14.57-61.58,2a1,1,0,1,0-.81,1.78A65.53,65.53,0,0,0,1932,1736.78Z"/><path d="M1846.71,1731.42a96.63,96.63,0,0,0,20.64-2.21,1,1,0,0,0,.75-1.17,1,1,0,0,0-1.17-.75c-32.59,7.13-58.94-5.39-62.86-7.39l-1.51-404.62c0-.54-1-1.7-1-2.24v1.26a1,1,0,0,0-1,1l1.52,405.78.5.28A99.82,99.82,0,0,0,1846.71,1731.42Z"/><path class="cls-9" d="M1814.82,1020.75s-23.28,9.5-27.16,27.92-14,240.87-7,262.77h34.14Z"/><path class="cls-31" d="M1981.55,1149l-15.5,175.38s-92,20.27-163.41-17.22c0,0,11.42-272.14,13.67-283.17,2.65-13,73.88-14.05,103.6-10.87,0,0,46.06-1.15,70.7,12.45Z"/><path class="cls-9" d="M1983.38,1109.42v225.23s-58.78,11.24-87.29,0c0,0,.17-313.52,11.81-323.08,1.44,0,30.73.59,51.65,3.18S1983.38,1109.42,1983.38,1109.42Z"/><path class="cls-9" d="M1860.67,1011.57s-5.9,275.74-11.72,316.73c0,0-23.72,1.58-54-8.94,0,0,5.44-287.66,13.25-295.34S1860.67,1011.57,1860.67,1011.57Z"/><path class="cls-31" d="M1904.15,1012s-36.93-.87-43.13.3c0,0,4.87,14.54,5.67,15.12s24.72,5.46,24.72,5.46,8.16-4.8,8.52-6.44S1904.15,1012,1904.15,1012Z"/><path d="M1983.38,1181.92a1,1,0,0,0,1-1v-46.43a1,1,0,1,0-2,0v46.43A1,1,0,0,0,1983.38,1181.92Z"/><path d="M1896.09,1335.62h0a1,1,0,0,0,1-1c-.48-199.61,5.06-269,5.12-269.66a1,1,0,0,0-.9-1,1,1,0,0,0-1.06.89c-.06.67-5.61,70.1-5.12,269.82A1,1,0,0,0,1896.09,1335.62Z"/><path d="M1795,1320.31h0a1,1,0,0,0,1-1c-1.92-85.68,13.68-271,13.84-272.83a1,1,0,0,0-2-.15c-.16,1.86-15.76,187.24-13.85,273A1,1,0,0,0,1795,1320.31Z"/><path d="M1859.4,1068.84a1,1,0,0,0,1-1l1.29-57.37-1.08.08c-2,.16-49.12,4-63,20.2a1,1,0,1,0,1.48,1.28c12.26-14.26,53.4-18.74,60.62-19.42l-1.25,55.19a1,1,0,0,0,1,1Z"/><path class="cls-25" d="M2058.51,1216.82c-6-30.44,7.14-49.67,17-59.81a131.32,131.32,0,0,1,6.84,29.33c1.37,13.14-5.7,30.51-16.55,48.64C2062.58,1230.47,2060,1224.55,2058.51,1216.82Z"/><path class="cls-10" d="M1980.35,1038.51a.67.67,0,0,1-.53-.26c-6.44-8.59-17-12.08-17.07-12.11a.67.67,0,1,1,.41-1.27c.44.14,11,3.64,17.72,12.58a.67.67,0,0,1-.13.93A.66.66,0,0,1,1980.35,1038.51Z"/><path class="cls-10" d="M1979.09,1044.69a.65.65,0,0,1-.53-.27c-6.44-8.59-17-12.08-17.07-12.11a.67.67,0,0,1,.41-1.27c.45.15,11,3.65,17.73,12.58a.66.66,0,0,1-.14.93A.67.67,0,0,1,1979.09,1044.69Z"/><path d="M1952,1734.41a1,1,0,0,0,1-1l1.72-115.4a1,1,0,0,0-1-1h0a1,1,0,0,0-1,1l-1.72,115.4a1,1,0,0,0,1,1Z"/><path d="M1845.53,1731.43a1,1,0,0,0,1-.92l6.47-112.42a1,1,0,0,0-.93-1,1,1,0,0,0-1,.93l-6.46,112.41a1,1,0,0,0,.92,1Z"/><rect class="cls-25" x="1893.77" y="920.61" width="87.7" height="750.34" transform="translate(-305.31 1930.35) rotate(-49.57)"/><rect class="cls-13" x="1920.76" y="920.61" width="33.73" height="750.34" transform="translate(-305.31 1930.35) rotate(-49.57)"/><rect class="cls-6" x="2128" y="1484.29" width="87.7" height="22.09" transform="translate(-374.89 2178.78) rotate(-49.57)"/><path class="cls-33" d="M2253.76,1565.13h0a43.84,43.84,0,0,1-61.81,4.94l-40.13-34.2,56.87-66.75,40.13,34.2A43.83,43.83,0,0,1,2253.76,1565.13Z"/><path class="cls-34" d="M1567.56,980.5l56,105.35h0a13.49,13.49,0,0,0,17.49-20.54c5.58,4.75,15,2.85,21-4.24s6.42-16.69.85-21.43a13.49,13.49,0,0,0,17.5-20.54h0Z"/><path class="cls-25" d="M1623.61,1085.85s18.58-4.1,17.49-20.54l11.91,10.15-17.5,20.53Z"/><path class="cls-25" d="M1663,1039.64s18.58-4.11,17.5-20.54l11.9,10.14-17.5,20.54Z"/><path class="cls-13" d="M1641.1,1065.31s20.69-1.58,21.88-25.67l13,11-21.87,25.68Z"/><path class="cls-9" d="M1586.18,1015.49s16.59-3.38,18.88-22.17l-37.5-12.82Z"/><path d="M2254.91,1566.09c15-17.75,12.78-34.22,8.29-44.91a56,56,0,0,0-13.4-19l-568.57-484.41-.27-.09-116.49-39.83,36.09,67.85,2.64-1.4-32.55-61.18,109.08,37.29,568.13,484a54.08,54.08,0,0,1,12.62,18c6,14.4,3.37,28.44-7.86,41.74Z"/><rect x="1899.44" y="1106.06" width="2.99" height="431.8" transform="translate(-338.5 1910.24) rotate(-49.53)"/><rect x="2117.96" y="1445.34" width="2.99" height="33.24" transform="translate(295.94 3279.71) rotate(-79.51)"/><rect x="2207.76" y="1536.46" width="2.99" height="18.88" transform="translate(286.77 3436.58) rotate(-79.5)"/><rect x="2218.65" y="1548.84" width="2.99" height="18.88" transform="translate(283.52 3457.43) rotate(-79.5)"/><rect x="2126.76" y="1460.53" width="2.99" height="33.24" transform="translate(288.13 3300.72) rotate(-79.5)"/><rect x="2136.46" y="1501.06" width="87.7" height="2.99" transform="matrix(0.65, -0.76, 0.76, 0.65, -376.16, 2192.37)"/><path class="cls-16" d="M1927.22,1353.85c-11.5,1.53-6.49-6.19-6.49-6.19-6.25.18-7.22-2-6.94-3.8a4.27,4.27,0,0,1,2.28-3.1c3.8-2,15.43-8.06,22.92-11.42,3.2-4.25-4.65-8.84-9.66-10.06-2.58-.63-5.58-3.12,1.16-4.88,5.51-1.44,18.11.16,18.11.16l17.26-24.15,27.82,30.06s-22.5,25.13-25.87,28.94-18.91,12.84-25.66,13.78c-12.25,1.7-8.71-3-8.71-3C1920.56,1360.77,1927.22,1353.85,1927.22,1353.85Z"/><path class="cls-17" d="M1932.81,1344a.6.6,0,0,0,.11-.71.59.59,0,0,0-.81-.27,74.54,74.54,0,0,1-11.53,4,.63.63,0,0,0-.44.75.62.62,0,0,0,.75.44,75.38,75.38,0,0,0,11.76-4.11A.91.91,0,0,0,1932.81,1344Z"/><path class="cls-17" d="M1938.23,1349.55a.63.63,0,0,0,.08-.78.61.61,0,0,0-.85-.16,37.8,37.8,0,0,1-10.39,4.65.61.61,0,0,0,.3,1.19,38.38,38.38,0,0,0,10.77-4.83Z"/><path class="cls-17" d="M1943.44,1356.8a.61.61,0,0,0-.75-1,32.87,32.87,0,0,1-9.37,3.75.61.61,0,0,0,.25,1.19,33.16,33.16,0,0,0,9.77-3.91A.39.39,0,0,0,1943.44,1356.8Z"/><path class="cls-31" d="M1989.76,1326.08l-7.56,8.44S1954,1310.22,1952,1307c.48-.48,8.47-12.17,8.47-12.17Z"/><path class="cls-9" d="M1941.52,1013.73s48-4.38,71.93,35.29c21.87,36.25,63.62,87.18,68.86,137.32,4.23,40.53-71.84,121.33-91.7,140.65l-35.18-37.5s56-88.8,60.34-99.76c4-10-77.94-118-77.94-118Z"/><path d="M1990.61,1328a1,1,0,0,0,.74-1.63c-8-9.2-30.85-33-34.67-37,19.56-30,60.07-99,60.08-101a1,1,0,0,0-1-1h0a1,1,0,0,0-1,.78c-1.15,3-39.13,68.48-60.21,100.76l-.42.65.54.57c.26.27,26.44,27.49,35.14,37.46A1,1,0,0,0,1990.61,1328Z"/><path d="M2034.91,1196.86a1,1,0,0,0,0-2c-6,0-16.23-5.92-18.26-7.12-3.26-13.3-49.35-78.24-51.33-81a1,1,0,1,0-1.6,1.13c.49.69,48.9,68.9,51.09,80.7l.08.43.37.22C2015.77,1189.54,2027.73,1196.86,2034.91,1196.86Z"/><path d="M2058.51,1121.14a.94.94,0,0,0,.53-.16,1,1,0,0,0,.29-1.36l-52.8-81.67c-27-28.87-60.06-25-60.39-25a1,1,0,0,0-.85,1.1,1,1,0,0,0,1.1.85c.32,0,32.37-3.71,58.64,24.33l52.65,81.46A1,1,0,0,0,2058.51,1121.14Z"/><path class="cls-25" d="M1965.19,1770.71H1924.9l-16.33-18.25-29.88,18.25h-6.43a4.71,4.71,0,0,0-.17,9.41h93.67a1.27,1.27,0,0,0,1.25-1.28v-6.26A1.85,1.85,0,0,0,1965.19,1770.71Z"/><path class="cls-35" d="M1964.83,1770.76v-17s-6.78-9.37-17.12-4.59c0,0-15.62,11.37-29.39-2.39l-34.21,15.57s-9.38,3.21-11.92,8.37Z"/><rect x="1964.49" y="1753.8" width="0.69" height="16.88"/><path d="M1933.71,1754a14.41,14.41,0,0,1-2.12-.12l.1-.69a23.81,23.81,0,0,0,15.83-4.25l.39.58A24.88,24.88,0,0,1,1933.71,1754Z"/><polygon points="1956.51 1767.59 1956.12 1767.01 1960.49 1763.99 1960.87 1764.57 1956.51 1767.59"/><polygon points="1953.37 1766.74 1952.99 1766.16 1957.36 1763.13 1957.74 1763.72 1953.37 1766.74"/><path d="M1868.9,1779.3a5.09,5.09,0,0,1-1.74-3.86,5,5,0,0,1,4.93-5h92.62a2.68,2.68,0,0,1,2.64,2.71v4.69h-.69v-4.69a2,2,0,0,0-2-2h-92.62a4.31,4.31,0,0,0-4.25,4.35,4.41,4.41,0,0,0,1.5,3.32Z"/><path d="M1872.4,1770.89l-.62-.3c.07-.17,2-4.11,9-7.17s37.14-16.78,37.45-16.92l.28.64c-.31.14-30.58,13.91-37.46,16.92S1872.41,1770.85,1872.4,1770.89Z"/><path class="cls-25" d="M1859.11,1770.71h-40.29l-16.34-18.25-29.87,18.25h-6.44a4.71,4.71,0,0,0-.16,9.41h93.67a1.27,1.27,0,0,0,1.25-1.28v-6.26A1.85,1.85,0,0,0,1859.11,1770.71Z"/><path class="cls-35" d="M1858.75,1770.76v-17s-6.79-9.37-17.12-4.59c0,0-15.62,11.37-29.4-2.39l-34.2,15.57s-9.38,3.21-11.92,8.37Z"/><rect x="1858.41" y="1753.8" width="0.69" height="16.88"/><path d="M1827.63,1754a14.41,14.41,0,0,1-2.12-.12l.1-.69a23.81,23.81,0,0,0,15.83-4.25l.39.58A24.88,24.88,0,0,1,1827.63,1754Z"/><polygon points="1850.42 1767.59 1850.04 1767.01 1854.41 1763.99 1854.79 1764.57 1850.42 1767.59"/><polygon points="1847.29 1766.74 1846.91 1766.16 1851.28 1763.13 1851.66 1763.72 1847.29 1766.74"/><path d="M1762.82,1779.3a5.09,5.09,0,0,1-1.74-3.86,5,5,0,0,1,4.92-5h92.63a2.69,2.69,0,0,1,2.64,2.71v4.69h-.69v-4.69a2,2,0,0,0-1.95-2H1766a4.31,4.31,0,0,0-4.24,4.35,4.41,4.41,0,0,0,1.5,3.32Z"/><path d="M1766.32,1770.89l-.63-.3c.08-.17,2-4.11,9-7.17s37.14-16.78,37.45-16.92l.27.64c-.3.14-30.57,13.91-37.45,16.92S1766.33,1770.85,1766.32,1770.89Z"/></g></g></g></svg>